BesixdouzeCode-Italic.sfdir
StartChar: exclam
Encoding: 241 33 241
GlifName: exclam
Width: 1300
VWidth: 0
Flags: W
LayerCount: 2
Fore
SplineSet
664 1500 m 257,0,-1
NamedP: "at01"
 479 450 l 257,1,-1
 275 429 l 257,2,-1
 464 1500 l 257,3,-1
 664 1500 l 257,0,-1
NamedP: "at01"
196 106 m 257,4,5
 196 136 196 136 209 160 c 128,-1,6
 222 184 222 184 243 200 c 128,-1,7
 264 216 264 216 289.5 223.5 c 128,-1,8
 315 231 315 231 339 227 c 257,9,10
NamedP: "av01"
 363 223 363 223 381 211 c 128,-1,11
 399 199 399 199 411.5 181.5 c 128,-1,12
 424 164 424 164 430.5 144.5 c 128,-1,13
 437 125 437 125 438 106 c 257,14,15
 439 76 439 76 427.5 51.5 c 128,-1,16
 416 27 416 27 396.5 10.5 c 128,-1,17
 377 -6 377 -6 351 -13.5 c 128,-1,18
 325 -21 325 -21 297 -17 c 257,19,20
NamedP: "ab01"
 250 -11 250 -11 223 22 c 128,-1,21
 196 55 196 55 196 106 c 257,4,5
EndSplineSet
PickledDataWithLists: "(dp0
Vcom.fontlab.ttprogram
p1
(c_codecs
encode
p2
(Vdata
p3
Vlatin1
p4
tp5
Rp6
g2
(V<data>\\u000a        <ttProgram>\\u000a          <ttc align=\"round\" code=\"alignv\" point=\"av01\"/>\\u000a          <ttc code=\"alignt\" point=\"at01\" zone=\"t: 1\"/>\\u000a          <ttc code=\"alignb\" point=\"ab01\" zone=\"b: 0\"/>\\u000a        </ttProgram>\\u000a      </data>
p7
g4
tp8
Rp9
Ntp10
s."
EndChar
StartChar: quotedbl
Encoding: 396 34 396
GlifName: quotedbl
Width: 1300
VWidth: 0
Flags: W
LayerCount: 2
Fore
SplineSet
589 1500 m 257,0,-1
 571 1400 l 257,1,2
 565 1362 565 1362 548 1306 c 128,-1,3
 531 1250 531 1250 513 1196 c 257,4,5
 492 1134 492 1134 469 1067 c 257,6,-1
 382 1067 l 257,7,8
NamedP: "av01"
 381 1134 381 1134 382 1196 c 257,9,10
 384 1250 384 1250 387 1306 c 128,-1,11
 390 1362 390 1362 396 1400 c 257,12,-1
 414 1500 l 257,13,-1
NamedP: "at01"
 589 1500 l 257,0,-1
890 1500 m 257,14,-1
NamedP: "sv01"
 872 1400 l 257,15,16
 866 1362 866 1362 849 1306 c 128,-1,17
 832 1250 832 1250 814 1196 c 257,18,19
 793 1134 793 1134 770 1067 c 257,20,-1
NamedP: "sv02"
 683 1067 l 257,21,22
 682 1134 682 1134 683 1196 c 257,23,24
 685 1250 685 1250 688 1306 c 128,-1,25
 691 1362 691 1362 697 1400 c 257,26,-1
 715 1500 l 257,27,-1
 890 1500 l 257,14,-1
NamedP: "sv01"
EndSplineSet
PickledDataWithLists: "(dp0
Vcom.fontlab.ttprogram
p1
(c_codecs
encode
p2
(Vdata
p3
Vlatin1
p4
tp5
Rp6
g2
(V<data>\\u000a        <ttProgram>\\u000a          <ttc align=\"round\" code=\"alignv\" point=\"av01\"/>\\u000a          <ttc code=\"alignt\" point=\"at01\" zone=\"t: 1\"/>\\u000a          <ttc code=\"singlev\" point1=\"at01\" point2=\"sv01\"/>\\u000a          <ttc code=\"singlev\" point1=\"av01\" point2=\"sv02\"/>\\u000a        </ttProgram>\\u000a      </data>
p7
g4
tp8
Rp9
Ntp10
s."
EndChar
StartChar: percent
Encoding: 370 37 370
GlifName: percent
Width: 1300
VWidth: 0
Flags: W
LayerCount: 2
Fore
SplineSet
272 0 m 257,0,-1
 86 0 l 257,1,-1
 1027 1500 l 257,2,-1
 1213 1500 l 257,3,-1
 272 0 l 257,0,-1
327 800 m 257,4,5
NamedP: "av01"
 257 800 257 800 212.5 827.5 c 128,-1,6
 168 855 168 855 145.5 903.5 c 128,-1,7
 123 952 123 952 120.5 1018.5 c 128,-1,8
 118 1085 118 1085 132 1162 c 257,9,10
 145 1238 145 1238 170 1303.5 c 128,-1,11
 195 1369 195 1369 234 1416 c 128,-1,12
 273 1463 273 1463 327 1490 c 128,-1,13
 381 1517 381 1517 454 1517 c 257,14,15
NamedP: "at01"
 524 1517 524 1517 568 1490 c 128,-1,16
 612 1463 612 1463 634.5 1416 c 128,-1,17
 657 1369 657 1369 659.5 1303.5 c 128,-1,18
 662 1238 662 1238 649 1162 c 257,19,20
 635 1085 635 1085 610 1018.5 c 128,-1,21
 585 952 585 952 546 903.5 c 128,-1,22
 507 855 507 855 453 827.5 c 128,-1,23
 399 800 399 800 327 800 c 257,4,5
NamedP: "av01"
509 1210 m 257,24,25
 515 1245 515 1245 517.5 1277 c 128,-1,26
 520 1309 520 1309 513.5 1333 c 128,-1,27
 507 1357 507 1357 487.5 1371.5 c 128,-1,28
 468 1386 468 1386 430 1386 c 257,29,30
 393 1386 393 1386 369.5 1373 c 128,-1,31
 346 1360 346 1360 331.5 1338 c 128,-1,32
 317 1316 317 1316 309 1286.5 c 128,-1,33
 301 1257 301 1257 295 1224 c 257,34,-1
 277 1123 l 257,35,36
 271 1087 271 1087 268 1054.5 c 128,-1,37
 265 1022 265 1022 272 997.5 c 128,-1,38
 279 973 279 973 299 958.5 c 128,-1,39
 319 944 319 944 357 944 c 257,40,41
 393 944 393 944 416.5 957 c 128,-1,42
 440 970 440 970 454.5 992 c 128,-1,43
 469 1014 469 1014 476.5 1043.5 c 128,-1,44
 484 1073 484 1073 490 1105 c 257,45,-1
 509 1210 l 257,24,25
846 -17 m 257,46,47
NamedP: "ab01"
 776 -17 776 -17 731.5 10.5 c 128,-1,48
 687 38 687 38 664.5 86.5 c 128,-1,49
 642 135 642 135 639.5 201.5 c 128,-1,50
 637 268 637 268 651 345 c 257,51,52
 664 421 664 421 689 486.5 c 128,-1,53
 714 552 714 552 753 599 c 128,-1,54
 792 646 792 646 846 673 c 128,-1,55
 900 700 900 700 973 700 c 257,56,57
NamedP: "av02"
 1043 700 1043 700 1087 673 c 128,-1,58
 1131 646 1131 646 1153.5 599 c 128,-1,59
 1176 552 1176 552 1178.5 486.5 c 128,-1,60
 1181 421 1181 421 1168 345 c 257,61,62
 1154 268 1154 268 1129 201.5 c 128,-1,63
 1104 135 1104 135 1065 86.5 c 128,-1,64
 1026 38 1026 38 972 10.5 c 128,-1,65
 918 -17 918 -17 846 -17 c 257,46,47
NamedP: "ab01"
1028 393 m 257,66,67
 1034 428 1034 428 1036.5 460 c 128,-1,68
 1039 492 1039 492 1032.5 516 c 128,-1,69
 1026 540 1026 540 1006.5 554.5 c 128,-1,70
 987 569 987 569 949 569 c 257,71,72
 912 569 912 569 888.5 556 c 128,-1,73
 865 543 865 543 850.5 521 c 128,-1,74
 836 499 836 499 828 469.5 c 128,-1,75
 820 440 820 440 814 407 c 257,76,-1
 796 306 l 257,77,78
 790 270 790 270 787 237.5 c 128,-1,79
 784 205 784 205 791 180.5 c 128,-1,80
 798 156 798 156 818 141.5 c 128,-1,81
 838 127 838 127 876 127 c 257,82,83
 912 127 912 127 935.5 140 c 128,-1,84
 959 153 959 153 973.5 175 c 128,-1,85
 988 197 988 197 995.5 226.5 c 128,-1,86
 1003 256 1003 256 1009 288 c 257,87,-1
 1028 393 l 257,66,67
EndSplineSet
PickledDataWithLists: "(dp0
Vcom.fontlab.ttprogram
p1
(c_codecs
encode
p2
(Vdata
p3
Vlatin1
p4
tp5
Rp6
g2
(V<data>\\u000a        <ttProgram>\\u000a          <ttc align=\"round\" code=\"alignv\" point=\"av01\"/>\\u000a          <ttc align=\"round\" code=\"alignv\" point=\"av02\"/>\\u000a          <ttc code=\"alignt\" point=\"at01\" zone=\"t: 1\"/>\\u000a          <ttc code=\"alignb\" point=\"ab01\" zone=\"b: 0\"/>\\u000a        </ttProgram>\\u000a      </data>
p7
g4
tp8
Rp9
Ntp10
s."
EndChar
StartChar: parenleft
Encoding: 365 40 365
GlifName: parenleft
Width: 1300
VWidth: 0
Flags: W
LayerCount: 2
Fore
SplineSet
408 1180 m 257,0,1
NamedP: "ah02"
 429 1300 429 1300 453 1381 c 128,-1,2
 477 1462 477 1462 516 1510.5 c 128,-1,3
 555 1559 555 1559 616.5 1579.5 c 128,-1,4
 678 1600 678 1600 776 1600 c 257,5,6
NamedP: "av01"
 795 1600 795 1600 815.5 1598.5 c 128,-1,7
 836 1597 836 1597 854 1593.5 c 128,-1,8
 872 1590 872 1590 887 1585.5 c 128,-1,9
 902 1581 902 1581 910 1575 c 257,10,-1
 819 1449 l 257,11,-1
 805 1451 l 257,12,13
 799 1452 799 1452 790 1453 c 128,-1,14
 781 1454 781 1454 770 1454 c 257,15,16
 715 1454 715 1454 686 1433 c 128,-1,17
 657 1412 657 1412 642 1376 c 128,-1,18
 627 1340 627 1340 620 1293 c 128,-1,19
 613 1246 613 1246 604 1194 c 257,20,-1
 391 -14 l 257,21,22
NamedP: "ah01"
 382 -66 382 -66 373 -113 c 128,-1,23
 364 -160 364 -160 367 -195.5 c 128,-1,24
 370 -231 370 -231 391.5 -252.5 c 128,-1,25
 413 -274 413 -274 465 -274 c 257,26,27
 476 -274 476 -274 485 -273.5 c 128,-1,28
 494 -273 494 -273 502 -272 c 257,29,-1
 516 -269 l 257,30,-1
 563 -395 l 257,31,32
 552 -401 552 -401 535.5 -406 c 128,-1,33
 519 -411 519 -411 499.5 -415 c 128,-1,34
 480 -419 480 -419 459 -420.5 c 128,-1,35
 438 -422 438 -422 419 -420 c 257,36,37
NamedP: "av02"
 350 -415 350 -415 304.5 -396 c 128,-1,38
 259 -377 259 -377 232 -347 c 128,-1,39
 205 -317 205 -317 193.5 -277.5 c 128,-1,40
 182 -238 182 -238 180.5 -193 c 128,-1,41
 179 -148 179 -148 185 -98.5 c 128,-1,42
 191 -49 191 -49 200 0 c 257,43,-1
 408 1180 l 257,0,1
NamedP: "ah02"
EndSplineSet
PickledDataWithLists: "(dp0
Vcom.fontlab.ttprogram
p1
(c_codecs
encode
p2
(Vdata
p3
Vlatin1
p4
tp5
Rp6
g2
(V<data>\\u000a        <ttProgram>\\u000a          <ttc align=\"round\" code=\"alignh\" point=\"ah01\"/>\\u000a          <ttc align=\"round\" code=\"alignh\" point=\"ah02\"/>\\u000a          <ttc align=\"round\" code=\"alignv\" point=\"av01\"/>\\u000a          <ttc align=\"round\" code=\"alignv\" point=\"av02\"/>\\u000a        </ttProgram>\\u000a      </data>
p7
g4
tp8
Rp9
Ntp10
s."
EndChar
StartChar: asterisk
Encoding: 125 42 125
GlifName: asterisk
Width: 1300
VWidth: 0
Flags: W
LayerCount: 2
Fore
SplineSet
706 994 m 257,0,-1
 812 802 l 257,1,-1
 697 712 l 257,2,-1
 584 918 l 257,3,-1
 573 990 l 257,4,-1
 536 918 l 257,5,-1
 363 726 l 257,6,-1
 258 793 l 257,7,-1
 442 996 l 257,8,-1
 515 1041 l 257,9,-1
 435 1045 l 257,10,-1
 225 1118 l 257,11,-1
NamedP: "mh01"
 275 1249 l 257,12,-1
 499 1172 l 257,13,-1
 556 1120 l 257,14,-1
 548 1202 l 257,15,-1
 590 1436 l 257,16,-1
 725 1450 l 257,17,-1
 681 1198 l 257,18,-1
 641 1118 l 257,19,-1
 715 1168 l 257,20,-1
 953 1240 l 257,21,-1
 986 1118 l 257,22,-1
 730 1040 l 257,23,-1
 650 1037 l 257,24,-1
 706 994 l 257,0,-1
EndSplineSet
PickledDataWithLists: "(dp0
Vcom.fontlab.ttprogram
p1
(c_codecs
encode
p2
(Vdata
p3
Vlatin1
p4
tp5
Rp6
g2
(V<data>\\u000a        <ttProgram>\\u000a          <ttc code=\"mdeltah\" delta=\"2\" point=\"mh01\" ppm1=\"13\" ppm2=\"13\"/>\\u000a          <ttc code=\"mdeltav\" delta=\"1\" point=\"mh01\" ppm1=\"13\" ppm2=\"13\"/>\\u000a        </ttProgram>\\u000a      </data>
p7
g4
tp8
Rp9
Ntp10
s."
EndChar
StartChar: plus
Encoding: 384 43 384
GlifName: plus
Width: 1300
VWidth: 0
Flags: W
LayerCount: 2
Fore
SplineSet
223 700 m 257,0,-1
NamedP: "av02"
 596 700 l 257,1,-1
 671 1123 l 257,2,-1
NamedP: "av01"
 826 1123 l 257,3,-1
NamedP: "sv01"
 751 700 l 257,4,-1
 1123 700 l 257,5,-1
NamedP: "sv02"
 1096 545 l 257,6,-1
 724 545 l 257,7,-1
 649 122 l 257,8,-1
NamedP: "sv03"
 494 122 l 257,9,-1
NamedP: "av03"
 569 545 l 257,10,-1
 196 545 l 257,11,-1
 223 700 l 257,0,-1
NamedP: "av02"
EndSplineSet
PickledDataWithLists: "(dp0
Vcom.fontlab.ttprogram
p1
(c_codecs
encode
p2
(Vdata
p3
Vlatin1
p4
tp5
Rp6
g2
(V<data>\\u000a        <ttProgram>\\u000a          <ttc align=\"round\" code=\"alignv\" point=\"av01\"/>\\u000a          <ttc align=\"round\" code=\"alignv\" point=\"av02\"/>\\u000a          <ttc align=\"round\" code=\"alignv\" point=\"av03\"/>\\u000a          <ttc code=\"singlev\" point1=\"av01\" point2=\"sv01\"/>\\u000a          <ttc code=\"singlev\" point1=\"av02\" point2=\"sv02\"/>\\u000a          <ttc code=\"singlev\" point1=\"av03\" point2=\"sv03\"/>\\u000a        </ttProgram>\\u000a      </data>
p7
g4
tp8
Rp9
Ntp10
s."
EndChar
StartChar: period
Encoding: 371 46 371
GlifName: period
Width: 1300
VWidth: 0
Flags: W
LayerCount: 2
Fore
SplineSet
107 150 m 257,0,1
 113 184 113 184 131 214 c 128,-1,2
 149 244 149 244 175.5 266.5 c 128,-1,3
 202 289 202 289 234 302 c 128,-1,4
 266 315 266 315 300 315 c 257,5,6
 334 315 334 315 361.5 302 c 128,-1,7
 389 289 389 289 407.5 266.5 c 128,-1,8
 426 244 426 244 434 214 c 128,-1,9
 442 184 442 184 436 150 c 257,10,11
 430 116 430 116 411.5 85.5 c 128,-1,12
 393 55 393 55 367 32.5 c 128,-1,13
 341 10 341 10 309 -3.5 c 128,-1,14
 277 -17 277 -17 243 -17 c 257,15,16
 209 -17 209 -17 181 -3.5 c 128,-1,17
 153 10 153 10 134.5 32.5 c 128,-1,18
 116 55 116 55 108.5 85.5 c 128,-1,19
 101 116 101 116 107 150 c 257,0,1
EndSplineSet
EndChar
StartChar: slash
Encoding: 448 47 448
GlifName: slash
Width: 1300
VWidth: 0
Flags: W
LayerCount: 2
Fore
SplineSet
257 -100 m 257,0,-1
NamedP: "sv01"
 47 -100 l 257,1,-1
NamedP: "av01"
 1057 1600 l 257,2,-1
NamedP: "av02"
 1257 1600 l 257,3,-1
NamedP: "sv02"
 257 -100 l 257,0,-1
NamedP: "sv01"
EndSplineSet
PickledDataWithLists: "(dp0
Vcom.fontlab.ttprogram
p1
(c_codecs
encode
p2
(Vdata
p3
Vlatin1
p4
tp5
Rp6
g2
(V<data>\\u000a        <ttProgram>\\u000a          <ttc align=\"round\" code=\"alignv\" point=\"av01\"/>\\u000a          <ttc align=\"round\" code=\"alignv\" point=\"av02\"/>\\u000a          <ttc code=\"singlev\" point1=\"av01\" point2=\"sv01\"/>\\u000a          <ttc code=\"singlev\" point1=\"av02\" point2=\"sv02\"/>\\u000a        </ttProgram>\\u000a      </data>
p7
g4
tp8
Rp9
Ntp10
s."
EndChar
StartChar: zero
Encoding: 585 48 585
GlifName: zero
Width: 1300
VWidth: 0
Flags: W
LayerCount: 2
Fore
SplineSet
509 -17 m 261,0,1
NamedP: "ab01"
 424 -7 424 -7 362 29.5 c 132,-1,2
 300 66 300 66 256.5 122 c 132,-1,3
 213 178 213 178 186.5 250 c 132,-1,4
 160 322 160 322 147.5 403.5 c 132,-1,5
 135 485 135 485 134.5 573.5 c 132,-1,6
 134 662 134 662 142 750 c 261,7,8
 150 841 150 841 175 936 c 132,-1,9
 200 1031 200 1031 240 1119 c 132,-1,10
 280 1207 280 1207 335 1284 c 132,-1,11
 390 1361 390 1361 458 1416 c 132,-1,12
 526 1471 526 1471 606.5 1498.5 c 132,-1,13
 687 1526 687 1526 779 1517 c 261,14,15
NamedP: "at01"
 862 1508 862 1508 924 1472.5 c 132,-1,16
 986 1437 986 1437 1030.5 1381 c 132,-1,17
 1075 1325 1075 1325 1102 1252 c 132,-1,18
 1129 1179 1129 1179 1142.5 1096.5 c 132,-1,19
 1156 1014 1156 1014 1156 925.5 c 132,-1,20
 1156 837 1156 837 1146 750 c 261,21,22
 1135 658 1135 658 1108.5 563 c 132,-1,23
 1082 468 1082 468 1040.5 379 c 132,-1,24
 999 290 999 290 943.5 213 c 132,-1,25
 888 136 888 136 821 81 c 132,-1,26
 754 26 754 26 675.5 -1 c 132,-1,27
 597 -28 597 -28 509 -17 c 261,0,1
NamedP: "ab01"
348 793 m 261,28,29
 340 735 340 735 333 667.5 c 132,-1,30
 326 600 326 600 325.5 531.5 c 132,-1,31
 325 463 325 463 334 399 c 132,-1,32
 343 335 343 335 368 283.5 c 132,-1,33
 393 232 393 232 436 198.5 c 132,-1,34
 479 165 479 165 547 158 c 261,35,36
NamedP: "av02"
 605 152 605 152 655.5 173 c 132,-1,37
 706 194 706 194 748 234 c 132,-1,38
 790 274 790 274 823.5 329.5 c 132,-1,39
 857 385 857 385 881 448 c 132,-1,40
 905 511 905 511 919.5 577.5 c 132,-1,41
 934 644 934 644 939 707 c 261,42,43
 943 765 943 765 948.5 833 c 132,-1,44
 954 901 954 901 954 969.5 c 132,-1,45
 954 1038 954 1038 945.5 1102 c 132,-1,46
 937 1166 937 1166 913.5 1217 c 132,-1,47
 890 1268 890 1268 848 1301 c 132,-1,48
 806 1334 806 1334 740 1341 c 261,49,50
NamedP: "av01"
 679 1347 679 1347 629 1326.5 c 132,-1,51
 579 1306 579 1306 538.5 1266 c 132,-1,52
 498 1226 498 1226 466 1170.5 c 132,-1,53
 434 1115 434 1115 411 1052 c 132,-1,54
 388 989 388 989 372.5 922.5 c 132,-1,55
 357 856 357 856 348 793 c 261,28,29
EndSplineSet
PickledDataWithLists: "(dp0
Vcom.fontlab.ttprogram
p1
(c_codecs
encode
p2
(Vdata
p3
Vlatin1
p4
tp5
Rp6
g2
(V<data>\\u000a        <ttProgram>\\u000a          <ttc align=\"round\" code=\"alignv\" point=\"av01\"/>\\u000a          <ttc align=\"round\" code=\"alignv\" point=\"av02\"/>\\u000a          <ttc code=\"alignt\" point=\"at01\" zone=\"t: 1\"/>\\u000a          <ttc code=\"alignb\" point=\"ab01\" zone=\"b: 0\"/>\\u000a        </ttProgram>\\u000a      </data>
p7
g4
tp8
Rp9
Ntp10
sVcom.typemytype.robofont.guides
p11
(lp12
(dp13
Vangle
p14
I0
sVisGlobal
p15
I00
sVmagnetic
p16
I5
sVx
p17
I0
sVy
p18
I700
sas."
EndChar
StartChar: two
Encoding: 534 50 534
GlifName: two
Width: 1300
VWidth: 0
Flags: W
LayerCount: 2
Fore
SplineSet
71 0 m 257,0,-1
NamedP: "ab01"
 100 168 l 257,1,2
 169 266 169 266 240.5 347 c 128,-1,3
 312 428 312 428 384 497 c 128,-1,4
 456 566 456 566 527 625.5 c 128,-1,5
 598 685 598 685 665 739 c 257,6,7
 725 787 725 787 779 833.5 c 128,-1,8
 833 880 833 880 874 926.5 c 128,-1,9
 915 973 915 973 939 1021.5 c 128,-1,10
 963 1070 963 1070 963 1123 c 257,11,12
 963 1177 963 1177 949 1220 c 128,-1,13
 935 1263 935 1263 903.5 1292 c 128,-1,14
 872 1321 872 1321 822 1336.5 c 128,-1,15
 772 1352 772 1352 699 1352 c 257,16,17
 651 1352 651 1352 610.5 1335.5 c 128,-1,18
 570 1319 570 1319 536 1292 c 128,-1,19
 502 1265 502 1265 474.5 1230.5 c 128,-1,20
 447 1196 447 1196 426 1160 c 257,21,-1
 296 1220 l 257,22,23
 362 1362 362 1362 480 1439.5 c 128,-1,24
 598 1517 598 1517 752 1517 c 257,25,26
NamedP: "at01"
 762 1517 762 1517 771.5 1517 c 128,-1,27
 781 1517 781 1517 791 1516 c 257,28,29
 882 1510 882 1510 948.5 1475 c 128,-1,30
 1015 1440 1015 1440 1058.5 1386 c 128,-1,31
 1102 1332 1102 1332 1123 1265 c 128,-1,32
 1144 1198 1144 1198 1144 1128 c 257,33,34
 1144 1122 1144 1122 1143.5 1116 c 128,-1,35
 1143 1110 1143 1110 1143 1104 c 257,36,37
 1139 1025 1139 1025 1101.5 956.5 c 128,-1,38
 1064 888 1064 888 1010 827 c 128,-1,39
 956 766 956 766 892.5 712 c 128,-1,40
 829 658 829 658 772 607 c 257,41,42
 700 542 700 542 635.5 485 c 128,-1,43
 571 428 571 428 515.5 374 c 128,-1,44
 460 320 460 320 414 267.5 c 128,-1,45
 368 215 368 215 333 160 c 257,46,-1
 1003 160 l 257,47,-1
 975 0 l 257,48,-1
 71 0 l 257,0,-1
NamedP: "ab01"
EndSplineSet
PickledDataWithLists: "(dp0
Vcom.fontlab.ttprogram
p1
(c_codecs
encode
p2
(Vdata
p3
Vlatin1
p4
tp5
Rp6
g2
(V<data>\\u000a        <ttProgram>\\u000a          <ttc code=\"alignt\" point=\"at01\" zone=\"t: 1\"/>\\u000a          <ttc code=\"alignb\" point=\"ab01\" zone=\"b: 0\"/>\\u000a        </ttProgram>\\u000a      </data>
p7
g4
tp8
Rp9
Ntp10
s."
EndChar
StartChar: three
Encoding: 522 51 522
GlifName: three
Width: 1300
VWidth: 0
Flags: W
LayerCount: 2
Fore
SplineSet
371 1340 m 257,0,-1
 414 1500 l 257,1,-1
 1144 1500 l 257,2,-1
 1119 1360 l 257,3,4
 1100 1320 1100 1320 1064 1276.5 c 128,-1,5
 1028 1233 1028 1233 981.5 1189 c 128,-1,6
 935 1145 935 1145 882 1101.5 c 128,-1,7
 829 1058 829 1058 776 1019 c 257,8,-1
 631 948 l 257,9,-1
 702 948 l 257,10,11
 769 948 769 948 834.5 923 c 128,-1,12
 900 898 900 898 952 852 c 128,-1,13
 1004 806 1004 806 1036 741 c 128,-1,14
 1068 676 1068 676 1068 597 c 257,15,16
 1068 485 1068 485 1027.5 397 c 128,-1,17
 987 309 987 309 917.5 242.5 c 128,-1,18
 848 176 848 176 755 130 c 128,-1,19
 662 84 662 84 557 55 c 128,-1,20
 452 26 452 26 339.5 13 c 128,-1,21
 227 0 227 0 120 0 c 257,22,-1
 148 160 l 257,23,24
 227 161 227 161 310.5 173 c 128,-1,25
 394 185 394 185 473.5 207.5 c 128,-1,26
 553 230 553 230 623.5 262.5 c 128,-1,27
 694 295 694 295 747.5 337 c 128,-1,28
 801 379 801 379 832 430.5 c 128,-1,29
 863 482 863 482 863 543 c 257,30,31
 863 606 863 606 840 653 c 128,-1,32
 817 700 817 700 775 730.5 c 128,-1,33
 733 761 733 761 674.5 776 c 128,-1,34
 616 791 616 791 546 791 c 257,35,36
 501 791 501 791 458 790 c 128,-1,37
 415 789 415 789 373 786 c 257,38,-1
 400 940 l 257,39,40
 446 970 446 970 501 1008 c 128,-1,41
 556 1046 556 1046 613 1087.5 c 128,-1,42
 670 1129 670 1129 724.5 1171.5 c 128,-1,43
 779 1214 779 1214 824.5 1252.5 c 128,-1,44
 870 1291 870 1291 902 1324.5 c 128,-1,45
 934 1358 934 1358 946 1380 c 257,46,-1
 787 1340 l 257,47,-1
 371 1340 l 257,0,-1
EndSplineSet
EndChar
StartChar: six
Encoding: 447 54 447
GlifName: six
Width: 1300
VWidth: 0
Flags: W
LayerCount: 2
Fore
SplineSet
1065 1344 m 257,0,1
 1059 1346 1059 1346 1045.5 1346.5 c 128,-1,2
 1032 1347 1032 1347 1021 1347 c 257,3,4
 933 1347 933 1347 855.5 1324.5 c 128,-1,5
 778 1302 778 1302 711 1261 c 128,-1,6
 644 1220 644 1220 587.5 1163 c 128,-1,7
 531 1106 531 1106 485.5 1037.5 c 128,-1,8
 440 969 440 969 405.5 891 c 128,-1,9
 371 813 371 813 348 730 c 257,10,-1
 452 847 l 257,11,12
 478 862 478 862 511 876.5 c 128,-1,13
 544 891 544 891 580 902.5 c 128,-1,14
 616 914 616 914 652.5 921 c 128,-1,15
 689 928 689 928 722 928 c 257,16,17
NamedP: "av01"
 808 928 808 928 879.5 906 c 128,-1,18
 951 884 951 884 1002 837 c 128,-1,19
 1053 790 1053 790 1081.5 717 c 128,-1,20
 1110 644 1110 644 1110 541 c 257,21,22
NamedP: "ah01"
 1110 429 1110 429 1067 327.5 c 128,-1,23
 1024 226 1024 226 950 149 c 128,-1,24
 876 72 876 72 776.5 26.5 c 128,-1,25
 677 -19 677 -19 565 -19 c 257,26,27
NamedP: "ab01"
 554 -19 554 -19 544 -18.5 c 128,-1,28
 534 -18 534 -18 523 -17 c 257,29,30
 445 -11 445 -11 385.5 16.5 c 128,-1,31
 326 44 326 44 283 85.5 c 128,-1,32
 240 127 240 127 211.5 180.5 c 128,-1,33
 183 234 183 234 166 293 c 128,-1,34
 149 352 149 352 142 412.5 c 128,-1,35
 135 473 135 473 135 530 c 257,36,37
NamedP: "ah02"
 135 658 135 658 166.5 781 c 128,-1,38
 198 904 198 904 256.5 1013.5 c 128,-1,39
 315 1123 315 1123 398 1215.5 c 128,-1,40
 481 1308 481 1308 584 1375 c 128,-1,41
 687 1442 687 1442 807 1479.5 c 128,-1,42
 927 1517 927 1517 1060 1517 c 257,43,44
NamedP: "at01"
 1075 1517 1075 1517 1093 1516.5 c 128,-1,45
 1111 1516 1111 1516 1120 1514 c 257,46,-1
 1065 1344 l 257,0,1
328 597 m 257,47,48
 321 559 321 559 320 529 c 128,-1,49
 319 499 319 499 319 469 c 257,50,51
 319 406 319 406 334 352 c 128,-1,52
 349 298 349 298 379 256.5 c 128,-1,53
 409 215 409 215 453 188 c 128,-1,54
 497 161 497 161 555 153 c 257,55,56
 576 150 576 150 596 150 c 257,57,58
 659 150 659 150 716 178.5 c 128,-1,59
 773 207 773 207 816.5 258 c 128,-1,60
 860 309 860 309 885.5 378.5 c 128,-1,61
 911 448 911 448 911 530 c 257,62,63
 911 590 911 590 889.5 633.5 c 128,-1,64
 868 677 868 677 832 704.5 c 128,-1,65
 796 732 796 732 749 745.5 c 128,-1,66
 702 759 702 759 651 759 c 257,67,68
 553 759 553 759 470.5 718.5 c 128,-1,69
 388 678 388 678 328 597 c 257,47,48
EndSplineSet
PickledDataWithLists: "(dp0
Vcom.fontlab.ttprogram
p1
(c_codecs
encode
p2
(Vdata
p3
Vlatin1
p4
tp5
Rp6
g2
(V<data>\\u000a        <ttProgram>\\u000a          <ttc align=\"round\" code=\"alignh\" point=\"ah01\"/>\\u000a          <ttc align=\"round\" code=\"alignh\" point=\"ah02\"/>\\u000a          <ttc align=\"round\" code=\"alignv\" point=\"av01\"/>\\u000a          <ttc code=\"alignt\" point=\"at01\" zone=\"t: 1\"/>\\u000a          <ttc code=\"alignb\" point=\"ab01\" zone=\"b: 0\"/>\\u000a        </ttProgram>\\u000a      </data>
p7
g4
tp8
Rp9
Ntp10
s."
EndChar
StartChar: seven
Encoding: 440 55 440
GlifName: seven
Width: 1300
VWidth: 0
Flags: W
LayerCount: 2
Fore
SplineSet
264 1500 m 257,0,-1
 1157 1500 l 257,1,-1
 1134 1370 l 257,2,3
 1126 1328 1126 1328 1082.5 1265.5 c 128,-1,4
 1039 1203 1039 1203 975 1124.5 c 128,-1,5
 911 1046 911 1046 835 953.5 c 128,-1,6
 759 861 759 861 687.5 759 c 128,-1,7
 616 657 616 657 557.5 548.5 c 128,-1,8
 499 440 499 440 469 329 c 257,9,10
 458 288 458 288 447.5 244 c 128,-1,11
 437 200 437 200 428 157.5 c 128,-1,12
 419 115 419 115 411.5 74.5 c 128,-1,13
 404 34 404 34 398 0 c 257,14,-1
 200 0 l 257,15,16
 205 30 205 30 215 80 c 128,-1,17
 225 130 225 130 237.5 186 c 128,-1,18
 250 242 250 242 264 297 c 128,-1,19
 278 352 278 352 291 392 c 257,20,21
 326 501 326 501 382 605.5 c 128,-1,22
 438 710 438 710 503.5 805.5 c 128,-1,23
 569 901 569 901 636.5 985 c 128,-1,24
 704 1069 704 1069 762 1138 c 128,-1,25
 820 1207 820 1207 861.5 1258.5 c 128,-1,26
 903 1310 903 1310 915 1340 c 257,27,-1
 236 1340 l 257,28,-1
 264 1500 l 257,0,-1
EndSplineSet
EndChar
StartChar: eight
Encoding: 225 56 225
GlifName: eight
Width: 1300
VWidth: 0
Flags: W
LayerCount: 2
Fore
SplineSet
798 1517 m 257,0,1
 879 1514 879 1514 944.5 1491.5 c 128,-1,2
 1010 1469 1010 1469 1055.5 1429 c 128,-1,3
 1101 1389 1101 1389 1125.5 1331 c 128,-1,4
 1150 1273 1150 1273 1150 1199 c 257,5,6
NamedP: "ah04"
 1150 1127 1150 1127 1128.5 1073.5 c 128,-1,7
 1107 1020 1107 1020 1071 979 c 128,-1,8
 1035 938 1035 938 987 906 c 128,-1,9
 939 874 939 874 886 846 c 257,10,11
 939 823 939 823 981.5 779.5 c 128,-1,12
 1024 736 1024 736 1054 682.5 c 128,-1,13
 1084 629 1084 629 1100.5 570 c 128,-1,14
 1117 511 1117 511 1117 458 c 257,15,16
NamedP: "ah02"
 1117 328 1117 328 1073.5 237.5 c 128,-1,17
 1030 147 1030 147 956.5 90.5 c 128,-1,18
 883 34 883 34 786.5 8.5 c 128,-1,19
 690 -17 690 -17 583 -17 c 257,20,21
NamedP: "ab01"
 489 -17 489 -17 406.5 5.5 c 128,-1,22
 324 28 324 28 262.5 75.5 c 128,-1,23
 201 123 201 123 165.5 195.5 c 128,-1,24
 130 268 130 268 130 368 c 257,25,26
 130 457 130 457 158 531.5 c 128,-1,27
 186 606 186 606 235.5 666 c 128,-1,28
 285 726 285 726 352.5 771.5 c 128,-1,29
 420 817 420 817 498 850 c 257,30,31
 424 903 424 903 379 976 c 128,-1,32
 334 1049 334 1049 334 1132 c 257,33,34
 334 1201 334 1201 352 1256 c 128,-1,35
 370 1311 370 1311 401.5 1354 c 128,-1,36
 433 1397 433 1397 475.5 1427.5 c 128,-1,37
 518 1458 518 1458 567 1478 c 128,-1,38
 616 1498 616 1498 669.5 1507.5 c 128,-1,39
 723 1517 723 1517 776 1517 c 257,40,-1
NamedP: "at01"
 798 1517 l 257,0,1
654 760 m 257,41,42
 586 733 586 733 525.5 701 c 128,-1,43
 465 669 465 669 418.5 628 c 128,-1,44
 372 587 372 587 345 534.5 c 128,-1,45
 318 482 318 482 318 414 c 257,46,47
 318 345 318 345 340 294.5 c 128,-1,48
 362 244 362 244 400.5 210.5 c 128,-1,49
 439 177 439 177 491 161 c 128,-1,50
 543 145 543 145 602 145 c 257,51,52
 661 145 661 145 719 164.5 c 128,-1,53
 777 184 777 184 823.5 219.5 c 128,-1,54
 870 255 870 255 898.5 304.5 c 128,-1,55
 927 354 927 354 927 415 c 257,56,57
 927 485 927 485 905 538.5 c 128,-1,58
 883 592 883 592 845.5 632.5 c 128,-1,59
 808 673 808 673 758.5 703.5 c 128,-1,60
 709 734 709 734 654 760 c 257,41,42
723 923 m 257,61,62
 773 944 773 944 817.5 968 c 128,-1,63
 862 992 862 992 895 1021 c 128,-1,64
 928 1050 928 1050 947.5 1085.5 c 128,-1,65
 967 1121 967 1121 967 1163 c 257,66,67
 967 1218 967 1218 948.5 1256 c 128,-1,68
 930 1294 930 1294 900.5 1318 c 128,-1,69
 871 1342 871 1342 835 1352.5 c 128,-1,70
 799 1363 799 1363 763 1363 c 257,71,72
 720 1363 720 1363 677 1346.5 c 128,-1,73
 634 1330 634 1330 600 1302.5 c 128,-1,74
 566 1275 566 1275 544.5 1239.5 c 128,-1,75
 523 1204 523 1204 523 1167 c 257,76,77
 523 1120 523 1120 537.5 1084.5 c 128,-1,78
 552 1049 552 1049 578.5 1020.5 c 128,-1,79
 605 992 605 992 642 968.5 c 128,-1,80
 679 945 679 945 723 923 c 257,61,62
EndSplineSet
PickledDataWithLists: "(dp0
Vcom.fontlab.ttprogram
p1
(c_codecs
encode
p2
(Vdata
p3
Vlatin1
p4
tp5
Rp6
g2
(V<data>\\u000a        <ttProgram>\\u000a          <ttc align=\"round\" code=\"alignh\" point=\"ah01\"/>\\u000a          <ttc align=\"round\" code=\"alignh\" point=\"ah02\"/>\\u000a          <ttc align=\"round\" code=\"alignh\" point=\"ah03\"/>\\u000a          <ttc align=\"round\" code=\"alignh\" point=\"ah04\"/>\\u000a          <ttc code=\"alignt\" point=\"at01\" zone=\"t: 1\"/>\\u000a          <ttc code=\"alignb\" point=\"ab01\" zone=\"b: 0\"/>\\u000a        </ttProgram>\\u000a      </data>
p7
g4
tp8
Rp9
Ntp10
s."
EndChar
StartChar: colon
Encoding: 190 58 190
GlifName: colon
Width: 1300
VWidth: 0
Flags: W
LayerCount: 2
Fore
SplineSet
135 133 m 257,0,1
 141 164 141 164 157.5 191 c 128,-1,2
 174 218 174 218 197.5 238 c 128,-1,3
 221 258 221 258 249.5 269.5 c 128,-1,4
 278 281 278 281 309 281 c 257,5,6
NamedP: "av03"
 340 281 340 281 365 269.5 c 128,-1,7
 390 258 390 258 406.5 238 c 128,-1,8
 423 218 423 218 430 191 c 128,-1,9
 437 164 437 164 431 133 c 257,10,11
 426 102 426 102 409.5 74.5 c 128,-1,12
 393 47 393 47 369.5 27 c 128,-1,13
 346 7 346 7 317.5 -5 c 128,-1,14
 289 -17 289 -17 259 -17 c 257,15,16
NamedP: "ab01"
 228 -17 228 -17 202.5 -5 c 128,-1,17
 177 7 177 7 160.5 27 c 128,-1,18
 144 47 144 47 137 74.5 c 128,-1,19
 130 102 130 102 135 133 c 257,0,1
226 647 m 257,20,21
 231 678 231 678 248 705 c 128,-1,22
 265 732 265 732 288.5 752 c 128,-1,23
 312 772 312 772 340.5 783.5 c 128,-1,24
 369 795 369 795 400 795 c 257,25,26
NamedP: "av01"
 431 795 431 795 456 783.5 c 128,-1,27
 481 772 481 772 497.5 752 c 128,-1,28
 514 732 514 732 520.5 705 c 128,-1,29
 527 678 527 678 522 647 c 257,30,31
 517 616 517 616 500.5 588.5 c 128,-1,32
 484 561 484 561 460.5 541 c 128,-1,33
 437 521 437 521 408.5 509 c 128,-1,34
 380 497 380 497 350 497 c 257,35,36
NamedP: "av02"
 319 497 319 497 293.5 509 c 128,-1,37
 268 521 268 521 251.5 541 c 128,-1,38
 235 561 235 561 228 588.5 c 128,-1,39
 221 616 221 616 226 647 c 257,20,21
EndSplineSet
PickledDataWithLists: "(dp0
Vcom.fontlab.ttprogram
p1
(c_codecs
encode
p2
(Vdata
p3
Vlatin1
p4
tp5
Rp6
g2
(V<data>\\u000a        <ttProgram>\\u000a          <ttc align=\"round\" code=\"alignv\" point=\"av01\"/>\\u000a          <ttc align=\"round\" code=\"alignv\" point=\"av02\"/>\\u000a          <ttc align=\"round\" code=\"alignv\" point=\"av03\"/>\\u000a          <ttc code=\"alignb\" point=\"ab01\" zone=\"b: 0\"/>\\u000a        </ttProgram>\\u000a      </data>
p7
g4
tp8
Rp9
Ntp10
s."
EndChar
StartChar: greater
Encoding: 269 62 269
GlifName: greater
Width: 1300
VWidth: 0
Flags: W
LayerCount: 2
Fore
SplineSet
1127 733 m 257,0,-1
 1090 524 l 257,1,-1
 111 67 l 257,2,-1
NamedP: "av02"
 142 242 l 257,3,-1
NamedP: "sv01"
 894 606 l 257,4,-1
 975 626 l 257,5,-1
NamedP: "iv01"
 900 646 l 257,6,-1
 278 1012 l 257,7,-1
NamedP: "sv02"
 309 1187 l 257,8,-1
NamedP: "av01"
 1127 733 l 257,0,-1
EndSplineSet
PickledDataWithLists: "(dp0
Vcom.fontlab.ttprogram
p1
(c_codecs
encode
p2
(Vdata
p3
Vlatin1
p4
tp5
Rp6
g2
(V<data>\\u000a        <ttProgram>\\u000a          <ttc align=\"round\" code=\"alignv\" point=\"av01\"/>\\u000a          <ttc align=\"round\" code=\"alignv\" point=\"av02\"/>\\u000a          <ttc code=\"singlev\" point1=\"av02\" point2=\"sv01\" stem=\"Y: 153\"/>\\u000a          <ttc code=\"interpolatev\" point=\"iv01\" point1=\"av01\" point2=\"av02\"/>\\u000a          <ttc code=\"singlev\" point1=\"av01\" point2=\"sv02\" stem=\"Y: 153\"/>\\u000a        </ttProgram>\\u000a      </data>
p7
g4
tp8
Rp9
Ntp10
s."
EndChar
StartChar: question
Encoding: 393 63 393
GlifName: question
Width: 1300
VWidth: 0
Flags: W
LayerCount: 2
Fore
SplineSet
727 1517 m 257,0,1
NamedP: "at01"
 815 1517 815 1517 885.5 1493 c 128,-1,2
 956 1469 956 1469 1005 1425 c 128,-1,3
 1054 1381 1054 1381 1080 1317.5 c 128,-1,4
 1106 1254 1106 1254 1106 1176 c 257,5,6
 1106 1105 1106 1105 1085.5 1051.5 c 128,-1,7
 1065 998 1065 998 1030.5 955 c 128,-1,8
 996 912 996 912 952 877 c 128,-1,9
 908 842 908 842 861 808.5 c 128,-1,10
 814 775 814 775 767.5 740 c 128,-1,11
 721 705 721 705 683 663.5 c 128,-1,12
 645 622 645 622 618.5 570 c 128,-1,13
 592 518 592 518 584 450 c 257,14,-1
 370 429 l 257,15,16
 379 520 379 520 407 588 c 128,-1,17
 435 656 435 656 473.5 708.5 c 128,-1,18
 512 761 512 761 558.5 801 c 128,-1,19
 605 841 605 841 652 874.5 c 128,-1,20
 699 908 699 908 743.5 938.5 c 128,-1,21
 788 969 788 969 822 1003 c 128,-1,22
 856 1037 856 1037 876.5 1078 c 128,-1,23
 897 1119 897 1119 897 1173 c 257,24,25
 897 1219 897 1219 880.5 1253 c 128,-1,26
 864 1287 864 1287 834 1308.5 c 128,-1,27
 804 1330 804 1330 763 1340.5 c 128,-1,28
 722 1351 722 1351 673 1351 c 257,29,30
 624 1351 624 1351 582.5 1343 c 128,-1,31
 541 1335 541 1335 503 1316.5 c 128,-1,32
 465 1298 465 1298 427.5 1267 c 128,-1,33
 390 1236 390 1236 349 1190 c 257,34,-1
 236 1300 l 257,35,36
 285 1363 285 1363 343 1404.5 c 128,-1,37
 401 1446 401 1446 464 1471 c 128,-1,38
 527 1496 527 1496 593.5 1506.5 c 128,-1,39
 660 1517 660 1517 727 1517 c 257,0,1
NamedP: "at01"
297 105 m 257,40,41
 297 128 297 128 307.5 149.5 c 128,-1,42
 318 171 318 171 335 188 c 128,-1,43
 352 205 352 205 375 215 c 128,-1,44
 398 225 398 225 422 225 c 257,45,46
NamedP: "av01"
 476 225 476 225 505.5 191.5 c 128,-1,47
 535 158 535 158 535 105 c 257,48,49
 535 82 535 82 526 60.5 c 128,-1,50
 517 39 517 39 501 21.5 c 128,-1,51
 485 4 485 4 463 -6.5 c 128,-1,52
 441 -17 441 -17 416 -17 c 257,53,54
NamedP: "ab01"
 360 -17 360 -17 328.5 17 c 128,-1,55
 297 51 297 51 297 105 c 257,40,41
EndSplineSet
PickledDataWithLists: "(dp0
Vcom.fontlab.ttprogram
p1
(c_codecs
encode
p2
(Vdata
p3
Vlatin1
p4
tp5
Rp6
g2
(V<data>\\u000a        <ttProgram>\\u000a          <ttc align=\"round\" code=\"alignv\" point=\"av01\"/>\\u000a          <ttc code=\"alignt\" point=\"at01\" zone=\"t: 1\"/>\\u000a          <ttc code=\"alignb\" point=\"ab01\" zone=\"b: 0\"/>\\u000a        </ttProgram>\\u000a      </data>
p7
g4
tp8
Rp9
Ntp10
s."
EndChar
StartChar: A
Encoding: 1 65 1
GlifName: A_
Width: 1300
VWidth: 0
Flags: W
LayerCount: 2
Fore
SplineSet
18 0 m 257,0,-1
NamedP: "ab01"
 719 1300 l 257,1,-1
 789 1500 l 257,2,-1
 971 1520 l 257,3,-1
NamedP: "at01"
 1250 0 l 257,4,-1
NamedP: "sv01"
 1050 0 l 257,5,-1
 982 450 l 257,6,-1
NamedP: "sv02"
 447 450 l 257,7,-1
NamedP: "av01"
 201 0 l 257,8,-1
 18 0 l 257,0,-1
NamedP: "ab01"
877 1400 m 257,9,-1
 776 1080 l 257,10,-1
 522 600 l 257,11,-1
 959 600 l 257,12,-1
 866 1080 l 257,13,-1
 877 1400 l 257,9,-1
EndSplineSet
PickledDataWithLists: "(dp0
Vcom.fontlab.ttprogram
p1
(c_codecs
encode
p2
(Vdata
p3
Vlatin1
p4
tp5
Rp6
g2
(V<data>\\u000a        <ttProgram>\\u000a          <ttc align=\"round\" code=\"alignv\" point=\"av01\"/>\\u000a          <ttc code=\"alignt\" point=\"at01\" zone=\"t: 1\"/>\\u000a          <ttc code=\"alignb\" point=\"ab01\" zone=\"b: 0\"/>\\u000a          <ttc code=\"singlev\" point1=\"ab01\" point2=\"sv01\"/>\\u000a          <ttc code=\"singlev\" point1=\"av01\" point2=\"sv02\"/>\\u000a        </ttProgram>\\u000a      </data>
p7
g4
tp8
Rp9
Ntp10
s."
EndChar
StartChar: G
Encoding: 27 71 27
GlifName: G_
Width: 1300
VWidth: 0
Flags: W
LayerCount: 2
Fore
SplineSet
1092 197 m 257,0,1
 1043 152 1043 152 985 112.5 c 128,-1,2
 927 73 927 73 861 44.5 c 128,-1,3
 795 16 795 16 720 -0.5 c 128,-1,4
 645 -17 645 -17 562 -17 c 257,5,6
NamedP: "ab01"
 418 -17 418 -17 321.5 45.5 c 128,-1,7
 225 108 225 108 173.5 215 c 128,-1,8
 122 322 122 322 112 465 c 128,-1,9
 102 608 102 608 131 770 c 257,10,11
 149 871 149 871 179 965.5 c 128,-1,12
 209 1060 209 1060 253 1143 c 128,-1,13
 297 1226 297 1226 355.5 1294.5 c 128,-1,14
 414 1363 414 1363 488.5 1412.5 c 128,-1,15
 563 1462 563 1462 654.5 1489.5 c 128,-1,16
 746 1517 746 1517 856 1517 c 257,17,18
NamedP: "at01"
 971 1517 971 1517 1067 1480.5 c 128,-1,19
 1163 1444 1163 1444 1223 1375 c 257,20,-1
 1114 1268 l 257,21,22
 1071 1300 1071 1300 1003.5 1324 c 128,-1,23
 936 1348 936 1348 842 1348 c 257,24,25
 720 1348 720 1348 634.5 1302 c 128,-1,26
 549 1256 549 1256 491 1177.5 c 128,-1,27
 433 1099 433 1099 398 994.5 c 128,-1,28
 363 890 363 890 342 773 c 257,29,30
 330 704 330 704 324 631.5 c 128,-1,31
 318 559 318 559 323.5 490 c 128,-1,32
 329 421 329 421 346.5 360 c 128,-1,33
 364 299 364 299 399 253 c 128,-1,34
 434 207 434 207 487.5 180 c 128,-1,35
 541 153 541 153 618 153 c 257,36,37
 663 153 663 153 709 163 c 128,-1,38
 755 173 755 173 796.5 189 c 128,-1,39
 838 205 838 205 872.5 224.5 c 128,-1,40
 907 244 907 244 928 263 c 257,41,-1
 989 612 l 257,42,-1
 679 632 l 257,43,-1
 702 762 l 257,44,-1
NamedP: "av01"
 1192 762 l 257,45,-1
NamedP: "sv01"
 1092 197 l 257,0,1
EndSplineSet
PickledDataWithLists: "(dp0
Vcom.fontlab.ttprogram
p1
(c_codecs
encode
p2
(Vdata
p3
Vlatin1
p4
tp5
Rp6
g2
(V<data>\\u000a        <ttProgram>\\u000a          <ttc align=\"round\" code=\"alignv\" point=\"av01\"/>\\u000a          <ttc code=\"alignt\" point=\"at01\" zone=\"t: 1\"/>\\u000a          <ttc code=\"alignb\" point=\"ab01\" zone=\"b: 0\"/>\\u000a          <ttc code=\"singlev\" point1=\"av01\" point2=\"sv01\"/>\\u000a        </ttProgram>\\u000a      </data>
p7
g4
tp8
Rp9
Ntp10
s."
EndChar
StartChar: M
Encoding: 42 77 42
GlifName: M_
Width: 1300
VWidth: 0
Flags: W
LayerCount: 2
Fore
SplineSet
838 0 m 257,0,-1
 997 901 l 257,1,-1
 1154 1399 l 257,2,-1
 1149 1400 l 257,3,-1
 901 921 l 257,4,-1
 654 500 l 257,5,-1
 554 500 l 257,6,-1
 456 920 l 257,7,-1
 371 1400 l 257,8,-1
 365 1399 l 257,9,-1
 352 901 l 257,10,-1
 193 0 l 257,11,-1
 13 0 l 257,12,-1
NamedP: "ab01"
 241 1290 l 257,13,-1
 250 1500 l 257,14,-1
NamedP: "at01"
 468 1520 l 257,15,-1
NamedP: "at02"
 600 950 l 257,16,-1
 632 700 l 257,17,-1
 750 950 l 257,18,-1
 1076 1500 l 257,19,-1
NamedP: "sv01"
 1287 1520 l 257,20,-1
NamedP: "at03"
 1018 0 l 257,21,-1
NamedP: "sv02"
 838 0 l 257,0,-1
EndSplineSet
PickledDataWithLists: "(dp0
Vcom.fontlab.ttprogram
p1
(c_codecs
encode
p2
(Vdata
p3
Vlatin1
p4
tp5
Rp6
g2
(V<data>\\u000a        <ttProgram>\\u000a          <ttc code=\"alignt\" point=\"at01\" zone=\"t: 1\"/>\\u000a          <ttc code=\"alignt\" point=\"at02\" zone=\"t: 1\"/>\\u000a          <ttc code=\"alignt\" point=\"at03\" zone=\"t: 1\"/>\\u000a          <ttc code=\"alignb\" point=\"ab01\" zone=\"b: 0\"/>\\u000a          <ttc code=\"singlev\" point1=\"at01\" point2=\"sv01\"/>\\u000a          <ttc code=\"singlev\" point1=\"ab01\" point2=\"sv02\"/>\\u000a        </ttProgram>\\u000a      </data>
p7
g4
tp8
Rp9
Ntp10
sVcom.typemytype.robofont.guides
p11
(lp12
(dp13
Vangle
p14
I0
sVisGlobal
p15
I00
sVmagnetic
p16
I5
sVx
p17
I0
sVy
p18
I1287
sas."
EndChar
StartChar: R
Encoding: 63 82 63
GlifName: R_
Width: 1300
VWidth: 0
Flags: W
LayerCount: 2
Fore
SplineSet
408 619 m 257,0,-1
NamedP: "av01"
 300 0 l 257,1,-1
 100 0 l 257,2,-1
NamedP: "ab01"
 327 1290 l 257,3,-1
 327 1490 l 257,4,5
 361 1494 361 1494 405 1499 c 128,-1,6
 449 1504 449 1504 497.5 1508 c 128,-1,7
 546 1512 546 1512 596 1514.5 c 128,-1,8
 646 1517 646 1517 693 1517 c 257,9,10
NamedP: "at01"
 819 1517 819 1517 911 1489 c 128,-1,11
 1003 1461 1003 1461 1062.5 1411 c 128,-1,12
 1122 1361 1122 1361 1151 1291.5 c 128,-1,13
 1180 1222 1180 1222 1180 1139 c 257,14,15
 1180 1010 1180 1010 1135 916 c 128,-1,16
 1090 822 1090 822 1017.5 759.5 c 128,-1,17
 945 697 945 697 853.5 665 c 128,-1,18
 762 633 762 633 668 629 c 257,19,-1
 794 593 l 257,20,-1
 1133 0 l 257,21,-1
NamedP: "sv01"
 910 0 l 257,22,-1
 571 600 l 257,23,24
 563 614 563 614 549.5 616.5 c 128,-1,25
 536 619 536 619 528 619 c 257,26,-1
NamedP: "sv02"
 408 619 l 257,0,-1
NamedP: "av01"
502 1147 m 257,27,-1
 434 763 l 257,28,-1
 582 763 l 257,29,30
 673 763 673 763 749.5 786.5 c 128,-1,31
 826 810 826 810 881.5 855 c 128,-1,32
 937 900 937 900 967.5 966.5 c 128,-1,33
 998 1033 998 1033 998 1119 c 257,34,35
 998 1177 998 1177 971.5 1224.5 c 128,-1,36
 945 1272 945 1272 902.5 1305.5 c 128,-1,37
 860 1339 860 1339 805.5 1357 c 128,-1,38
 751 1375 751 1375 694 1375 c 257,39,40
 652 1375 652 1375 603.5 1373 c 128,-1,41
 555 1371 555 1371 520 1364 c 257,42,-1
 502 1147 l 257,27,-1
EndSplineSet
PickledDataWithLists: "(dp0
Vcom.fontlab.ttprogram
p1
(c_codecs
encode
p2
(Vdata
p3
Vlatin1
p4
tp5
Rp6
g2
(V<data>\\u000a        <ttProgram>\\u000a          <ttc align=\"round\" code=\"alignv\" point=\"av01\"/>\\u000a          <ttc code=\"alignt\" point=\"at01\" zone=\"t: 1\"/>\\u000a          <ttc code=\"alignb\" point=\"ab01\" zone=\"b: 0\"/>\\u000a          <ttc code=\"singlev\" point1=\"ab01\" point2=\"sv01\"/>\\u000a          <ttc code=\"singlev\" point1=\"av01\" point2=\"sv02\"/>\\u000a        </ttProgram>\\u000a      </data>
p7
g4
tp8
Rp9
Ntp10
s."
EndChar
StartChar: S
Encoding: 66 83 66
GlifName: S_
Width: 1300
VWidth: 0
Flags: W
LayerCount: 2
Fore
SplineSet
1087 1252 m 257,0,1
 1056 1277 1056 1277 1026.5 1295.5 c 128,-1,2
 997 1314 997 1314 966 1326 c 128,-1,3
 935 1338 935 1338 900.5 1344 c 128,-1,4
 866 1350 866 1350 825 1350 c 257,5,6
 763 1350 763 1350 705 1332 c 128,-1,7
 647 1314 647 1314 602 1281 c 128,-1,8
 557 1248 557 1248 530 1202 c 128,-1,9
 503 1156 503 1156 503 1101 c 257,10,11
 503 1049 503 1049 527.5 1011.5 c 128,-1,12
 552 974 552 974 591.5 943.5 c 128,-1,13
 631 913 631 913 682 887 c 128,-1,14
 733 861 733 861 786.5 832.5 c 128,-1,15
 840 804 840 804 891 769.5 c 128,-1,16
 942 735 942 735 981.5 688.5 c 128,-1,17
 1021 642 1021 642 1045.5 579.5 c 128,-1,18
 1070 517 1070 517 1070 432 c 257,19,20
 1070 327 1070 327 1025.5 243.5 c 128,-1,21
 981 160 981 160 905.5 102.5 c 128,-1,22
 830 45 830 45 731 14 c 128,-1,23
 632 -17 632 -17 524 -17 c 257,24,25
NamedP: "ab01"
 408 -17 408 -17 300.5 19.5 c 128,-1,26
 193 56 193 56 97 134 c 257,27,-1
 215 284 l 257,28,29
 241 258 241 258 275.5 234.5 c 128,-1,30
 310 211 310 211 351 193.5 c 128,-1,31
 392 176 392 176 438 165.5 c 128,-1,32
 484 155 484 155 532 155 c 257,33,34
 588 155 588 155 647 169.5 c 128,-1,35
 706 184 706 184 755 217 c 128,-1,36
 804 250 804 250 835 303 c 128,-1,37
 866 356 866 356 866 433 c 257,38,39
 866 488 866 488 841.5 529.5 c 128,-1,40
 817 571 817 571 777 604.5 c 128,-1,41
 737 638 737 638 686.5 666.5 c 128,-1,42
 636 695 636 695 583 725 c 128,-1,43
 530 755 530 755 479 789.5 c 128,-1,44
 428 824 428 824 388.5 870 c 128,-1,45
 349 916 349 916 324.5 976 c 128,-1,46
 300 1036 300 1036 300 1116 c 257,47,48
 300 1216 300 1216 344.5 1291.5 c 128,-1,49
 389 1367 389 1367 462.5 1417 c 128,-1,50
 536 1467 536 1467 632 1492 c 128,-1,51
 728 1517 728 1517 830 1517 c 257,52,53
NamedP: "at01"
 892 1517 892 1517 947 1504 c 128,-1,54
 1002 1491 1002 1491 1049 1470 c 128,-1,55
 1096 1449 1096 1449 1134.5 1423 c 128,-1,56
 1173 1397 1173 1397 1203 1371 c 257,57,-1
 1087 1252 l 257,0,1
EndSplineSet
PickledDataWithLists: "(dp0
Vcom.fontlab.ttprogram
p1
(c_codecs
encode
p2
(Vdata
p3
Vlatin1
p4
tp5
Rp6
g2
(V<data>\\u000a        <ttProgram>\\u000a          <ttc code=\"alignt\" point=\"at01\" zone=\"t: 1\"/>\\u000a          <ttc code=\"alignb\" point=\"ab01\" zone=\"b: 0\"/>\\u000a        </ttProgram>\\u000a      </data>
p7
g4
tp8
Rp9
Ntp10
s."
EndChar
StartChar: W
Encoding: 81 87 81
GlifName: W_
Width: 1300
VWidth: 0
Flags: W
LayerCount: 2
Fore
SplineSet
344 700 m 257,0,-1
 510 1100 l 257,1,-1
NamedP: "av01"
 650 1100 l 257,2,-1
NamedP: "sv01"
 666 700 l 257,3,-1
NamedP: "mh01"
 666 200 l 257,4,-1
 670 200 l 257,5,-1
 783 660 l 257,6,-1
 1084 1500 l 257,7,-1
 1261 1500 l 257,8,-1
NamedP: "sv02"
 724 0 l 257,9,-1
NamedP: "sv03"
 543 0 l 257,10,-1
 527 450 l 257,11,-1
 556 950 l 257,12,-1
 552 950 l 257,13,-1
 406 450 l 257,14,-1
 228 0 l 257,15,-1
 68 0 l 257,16,-1
NamedP: "ab01"
 70 1500 l 257,17,-1
NamedP: "at01"
 234 1520 l 257,18,-1
NamedP: "at02"
 233 660 l 257,19,-1
NamedP: "mh02"
 183 200 l 257,20,-1
 187 200 l 257,21,-1
 344 700 l 257,0,-1
EndSplineSet
PickledDataWithLists: "(dp0
Vcom.fontlab.ttprogram
p1
(c_codecs
encode
p2
(Vdata
p3
Vlatin1
p4
tp5
Rp6
g2
(V<data>\\u000a        <ttProgram>\\u000a          <ttc code=\"mdeltah\" delta=\"1\" point=\"mh01\" ppm1=\"14\" ppm2=\"14\"/>\\u000a          <ttc code=\"mdeltah\" delta=\"-2\" point=\"mh02\" ppm1=\"14\" ppm2=\"14\"/>\\u000a          <ttc code=\"mdeltah\" delta=\"-3\" point=\"mh02\" ppm1=\"13\" ppm2=\"13\"/>\\u000a          <ttc align=\"round\" code=\"alignv\" point=\"av01\"/>\\u000a          <ttc code=\"alignt\" point=\"at01\" zone=\"t: 1\"/>\\u000a          <ttc code=\"alignt\" point=\"at02\" zone=\"t: 1\"/>\\u000a          <ttc code=\"alignb\" point=\"ab01\" zone=\"b: 0\"/>\\u000a          <ttc code=\"singlev\" point1=\"av01\" point2=\"sv01\"/>\\u000a          <ttc code=\"singlev\" point1=\"at01\" point2=\"sv02\"/>\\u000a          <ttc code=\"singlev\" point1=\"ab01\" point2=\"sv03\"/>\\u000a        </ttProgram>\\u000a      </data>
p7
g4
tp8
Rp9
Ntp10
s."
EndChar
StartChar: Y
Encoding: 84 89 84
GlifName: Y_
Width: 1300
VWidth: 0
Flags: W
LayerCount: 2
Fore
SplineSet
619 935 m 257,0,-1
 1007 1500 l 257,1,-1
 1199 1500 l 257,2,-1
NamedP: "sv01"
 613 646 l 257,3,-1
 500 0 l 257,4,-1
NamedP: "sv02"
 300 0 l 257,5,-1
NamedP: "ab01"
 413 645 l 257,6,-1
 128 1500 l 257,7,-1
NamedP: "at01"
 336 1520 l 257,8,-1
NamedP: "at02"
 514 954 l 257,9,-1
 549 705 l 257,10,-1
 619 935 l 257,0,-1
EndSplineSet
PickledDataWithLists: "(dp0
Vcom.fontlab.ttprogram
p1
(c_codecs
encode
p2
(Vdata
p3
Vlatin1
p4
tp5
Rp6
g2
(V<data>\\u000a        <ttProgram>\\u000a          <ttc code=\"alignt\" point=\"at01\" zone=\"t: 1\"/>\\u000a          <ttc code=\"alignt\" point=\"at02\" zone=\"t: 1\"/>\\u000a          <ttc code=\"alignb\" point=\"ab01\" zone=\"b: 0\"/>\\u000a          <ttc code=\"singlev\" point1=\"at01\" point2=\"sv01\"/>\\u000a          <ttc code=\"singlev\" point1=\"ab01\" point2=\"sv02\"/>\\u000a        </ttProgram>\\u000a      </data>
p7
g4
tp8
Rp9
Ntp10
s."
EndChar
StartChar: backslash
Encoding: 132 92 132
GlifName: backslash
Width: 1300
VWidth: 0
Flags: W
LayerCount: 2
Fore
SplineSet
303 1600 m 257,0,-1
NamedP: "av01"
 497 1600 l 257,1,-1
NamedP: "sv01"
 907 -100 l 257,2,-1
NamedP: "sv02"
 703 -100 l 257,3,-1
NamedP: "av02"
 303 1600 l 257,0,-1
NamedP: "av01"
EndSplineSet
PickledDataWithLists: "(dp0
Vcom.fontlab.ttprogram
p1
(c_codecs
encode
p2
(Vdata
p3
Vlatin1
p4
tp5
Rp6
g2
(V<data>\\u000a        <ttProgram>\\u000a          <ttc align=\"round\" code=\"alignv\" point=\"av01\"/>\\u000a          <ttc align=\"round\" code=\"alignv\" point=\"av02\"/>\\u000a          <ttc code=\"singlev\" point1=\"av01\" point2=\"sv01\"/>\\u000a          <ttc code=\"singlev\" point1=\"av02\" point2=\"sv02\"/>\\u000a        </ttProgram>\\u000a      </data>
p7
g4
tp8
Rp9
Ntp10
s."
EndChar
StartChar: bracketright
Encoding: 159 93 159
GlifName: bracketright
Width: 1300
VWidth: 0
Flags: W
LayerCount: 2
Fore
SplineSet
633 -220 m 257,0,-1
 619 -420 l 257,1,-1
NamedP: "sv01"
 53 -420 l 257,2,-1
NamedP: "av01"
 80 -270 l 257,3,-1
 452 -270 l 257,4,-1
 467 -70 l 257,5,-1
 686 1170 l 257,6,-1
 741 1370 l 257,7,-1
 369 1370 l 257,8,-1
 396 1520 l 257,9,-1
NamedP: "at01"
 962 1520 l 257,10,-1
NamedP: "sv02"
 904 1320 l 257,11,-1
 633 -220 l 257,0,-1
EndSplineSet
PickledDataWithLists: "(dp0
Vcom.fontlab.ttprogram
p1
(c_codecs
encode
p2
(Vdata
p3
Vlatin1
p4
tp5
Rp6
g2
(V<data>\\u000a        <ttProgram>\\u000a          <ttc align=\"round\" code=\"alignv\" point=\"av01\"/>\\u000a          <ttc code=\"alignt\" point=\"at01\" zone=\"t: 1\"/>\\u000a          <ttc code=\"singlev\" point1=\"av01\" point2=\"sv01\"/>\\u000a          <ttc code=\"singlev\" point1=\"at01\" point2=\"sv02\"/>\\u000a        </ttProgram>\\u000a      </data>
p7
g4
tp8
Rp9
Ntp10
s."
EndChar
StartChar: asciicircum
Encoding: 123 94 123
GlifName: asciicircum
Width: 1300
VWidth: 0
Flags: W
LayerCount: 2
Fore
SplineSet
1273 912 m 257,0,-1
NamedP: "sv01"
 1072 912 l 257,1,-1
 752 1239 l 257,2,-1
 727 1350 l 257,3,-1
 663 1241 l 257,4,-1
 239 914 l 257,5,-1
 23 914 l 257,6,-1
NamedP: "av01"
 681 1500 l 257,7,-1
 813 1517 l 257,8,-1
 1273 912 l 257,0,-1
NamedP: "sv01"
EndSplineSet
PickledDataWithLists: "(dp0
Vcom.fontlab.ttprogram
p1
(c_codecs
encode
p2
(Vdata
p3
Vlatin1
p4
tp5
Rp6
g2
(V<data>\\u000a        <ttProgram>\\u000a          <ttc align=\"round\" code=\"alignv\" point=\"av01\"/>\\u000a          <ttc code=\"singlev\" point1=\"av01\" point2=\"sv01\"/>\\u000a        </ttProgram>\\u000a      </data>
p7
g4
tp8
Rp9
Ntp10
s."
EndChar
StartChar: b
Encoding: 130 98 130
GlifName: b
Width: 1300
VWidth: 0
Flags: W
LayerCount: 2
Fore
SplineSet
353 171 m 257,0,1
 388 158 388 158 439 150.5 c 128,-1,2
 490 143 490 143 565 143 c 257,3,4
 668 143 668 143 736.5 184.5 c 128,-1,5
 805 226 805 226 848.5 292 c 128,-1,6
 892 358 892 358 914.5 439.5 c 128,-1,7
 937 521 937 521 948 601 c 257,8,9
 954 646 954 646 954 686 c 257,10,11
 954 749 954 749 940.5 799 c 128,-1,12
 927 849 927 849 903.5 884.5 c 128,-1,13
 880 920 880 920 847.5 938.5 c 128,-1,14
 815 957 815 957 776 957 c 257,15,16
 733 957 733 957 695.5 952.5 c 128,-1,17
 658 948 658 948 622 935.5 c 128,-1,18
 586 923 586 923 549 901 c 128,-1,19
 512 879 512 879 471 845 c 257,20,-1
 353 171 l 257,0,1
391 1420 m 257,21,-1
 403 1600 l 257,22,-1
 608 1620 l 257,23,-1
NamedP: "av02"
 494 974 l 257,24,-1
 595 1065 l 257,25,26
 651 1089 651 1089 705 1103 c 128,-1,27
 759 1117 759 1117 815 1117 c 257,28,29
NamedP: "av01"
 890 1117 890 1117 949 1085 c 128,-1,30
 1008 1053 1008 1053 1049.5 995 c 128,-1,31
 1091 937 1091 937 1113 857.5 c 128,-1,32
 1135 778 1135 778 1135 684 c 257,33,34
 1135 663 1135 663 1133.5 641 c 128,-1,35
 1132 619 1132 619 1130 596 c 257,36,37
 1115 457 1115 457 1068.5 344 c 128,-1,38
 1022 231 1022 231 944.5 150.5 c 128,-1,39
 867 70 867 70 760 26.5 c 128,-1,40
 653 -17 653 -17 517 -17 c 257,41,42
NamedP: "ab01"
 492 -17 492 -17 459 -15 c 128,-1,43
 426 -13 426 -13 389.5 -9 c 128,-1,44
 353 -5 353 -5 315.5 0 c 128,-1,45
 278 5 278 5 245.5 10.5 c 128,-1,46
 213 16 213 16 187 22.5 c 128,-1,47
 161 29 161 29 147 35 c 257,48,-1
 391 1420 l 257,21,-1
EndSplineSet
PickledDataWithLists: "(dp0
Vcom.fontlab.ttprogram
p1
(c_codecs
encode
p2
(Vdata
p3
Vlatin1
p4
tp5
Rp6
g2
(V<data>\\u000a        <ttProgram>\\u000a          <ttc align=\"round\" code=\"alignv\" point=\"av01\"/>\\u000a          <ttc align=\"round\" code=\"alignv\" point=\"av02\"/>\\u000a          <ttc code=\"alignb\" point=\"ab01\" zone=\"b: 0\"/>\\u000a        </ttProgram>\\u000a      </data>
p7
g4
tp8
Rp9
Ntp10
s."
EndChar
StartChar: d
Encoding: 202 100 202
GlifName: d
Width: 1300
VWidth: 0
Flags: W
LayerCount: 2
Fore
SplineSet
715 940 m 257,0,1
 602 940 602 940 520 897.5 c 128,-1,2
 438 855 438 855 385 783.5 c 128,-1,3
 332 712 332 712 306 619.5 c 128,-1,4
 280 527 280 527 280 427 c 257,5,6
 280 355 280 355 294 302 c 128,-1,7
 308 249 308 249 333 213.5 c 128,-1,8
 358 178 358 178 392 161 c 128,-1,9
 426 144 426 144 466 144 c 257,10,11
 518 144 518 144 562 158 c 128,-1,12
 606 172 606 172 642.5 195 c 128,-1,13
 679 218 679 218 709.5 247 c 128,-1,14
 740 276 740 276 764 306 c 257,15,-1
 876 940 l 257,16,-1
 715 940 l 257,0,1
711 0 m 257,17,-1
NamedP: "ab02"
 739 162 l 257,18,-1
 624 49 l 257,19,20
 603 32 603 32 582.5 19.5 c 128,-1,21
 562 7 562 7 537.5 -1 c 128,-1,22
 513 -9 513 -9 481 -13 c 128,-1,23
 449 -17 449 -17 405 -17 c 257,24,25
NamedP: "ab01"
 332 -17 332 -17 275 15.5 c 128,-1,26
 218 48 218 48 179 107.5 c 128,-1,27
 140 167 140 167 120 249.5 c 128,-1,28
 100 332 100 332 100 431 c 257,29,30
 100 516 100 516 117.5 599 c 128,-1,31
 135 682 135 682 170 756 c 128,-1,32
 205 830 205 830 259 892.5 c 128,-1,33
 313 955 313 955 385.5 1001 c 128,-1,34
 458 1047 458 1047 550.5 1073 c 128,-1,35
 643 1099 643 1099 755 1100 c 257,36,-1
NamedP: "av02"
 904 1100 l 257,37,-1
NamedP: "sv01"
 996 1620 l 257,38,-1
NamedP: "av01"
 1175 1600 l 257,39,-1
 924 180 l 257,40,-1
 913 0 l 257,41,-1
NamedP: "sv02"
 711 0 l 257,17,-1
NamedP: "ab02"
EndSplineSet
PickledDataWithLists: "(dp0
Vcom.fontlab.ttprogram
p1
(c_codecs
encode
p2
(Vdata
p3
Vlatin1
p4
tp5
Rp6
g2
(V<data>\\u000a        <ttProgram>\\u000a          <ttc align=\"round\" code=\"alignv\" point=\"av01\"/>\\u000a          <ttc align=\"round\" code=\"alignv\" point=\"av02\"/>\\u000a          <ttc code=\"alignb\" point=\"ab01\" zone=\"b: 0\"/>\\u000a          <ttc code=\"alignb\" point=\"ab02\" zone=\"b: 0\"/>\\u000a          <ttc code=\"singlev\" point1=\"av02\" point2=\"sv01\"/>\\u000a          <ttc code=\"singlev\" point1=\"ab02\" point2=\"sv02\"/>\\u000a        </ttProgram>\\u000a      </data>
p7
g4
tp8
Rp9
Ntp10
s."
EndChar
StartChar: f
Encoding: 245 102 245
GlifName: f
Width: 1300
VWidth: 0
Flags: W
HStem: -421 161<124.347 311.729> 940 160<431 553 758 1000> 1465 153<862.224 1121>
DStem2: 313.766 -421 503.223 -421 0.173648 0.984808<191.893 1381.87 1575.03 1922.28>
LayerCount: 2
Fore
SplineSet
553 940 m 257,0,-1
 403 940 l 257,1,-1
NamedP: "av01"
 431 1100 l 257,2,-1
 581 1100 l 257,3,-1
 609 1255 l 257,4,5
 626 1348 626 1348 655 1416.5 c 128,-1,6
 684 1485 684 1485 728.5 1529.5 c 128,-1,7
 773 1574 773 1574 833 1596 c 128,-1,8
 893 1618 893 1618 973 1618 c 257,9,10
 981 1618 981 1618 988 1617.5 c 128,-1,11
NamedP: "av02"
 995 1617 995 1617 1003 1617 c 257,12,13
 1048 1615 1048 1615 1083 1607.5 c 128,-1,14
 1118 1600 1118 1600 1146 1588 c 128,-1,15
 1174 1576 1174 1576 1196 1561 c 128,-1,16
 1218 1546 1218 1546 1236 1529 c 257,17,-1
 1141 1406 l 257,18,19
 1112 1431 1112 1431 1074 1448 c 128,-1,20
 1036 1465 1036 1465 997 1465 c 257,21,-1
 986 1465 l 257,22,23
 948 1462 948 1462 916.5 1453 c 128,-1,24
 885 1444 885 1444 860 1420.5 c 128,-1,25
 835 1397 835 1397 816 1355 c 128,-1,26
 797 1313 797 1313 785 1245 c 257,27,-1
 758 1100 l 257,28,-1
 1048 1100 l 257,29,-1
 1000 940 l 257,30,-1
NamedP: "sv01"
 735 940 l 257,31,-1
 560 -99 l 257,32,33
 550 -156 550 -156 527.5 -213.5 c 128,-1,34
 505 -271 505 -271 466 -317 c 128,-1,35
 427 -363 427 -363 370 -392 c 128,-1,36
 313 -421 313 -421 234 -421 c 257,37,38
NamedP: "av03"
 225 -421 225 -421 215.5 -421 c 128,-1,39
 206 -421 206 -421 195 -420 c 257,40,41
 135 -415 135 -415 102.5 -401.5 c 128,-1,42
 70 -388 70 -388 59 -382 c 257,43,-1
 124 -238 l 257,44,45
 135 -242 135 -242 159 -250.5 c 128,-1,46
 183 -259 183 -259 213 -260 c 257,47,-1
 220 -260 l 257,48,49
 256 -260 256 -260 283 -242 c 128,-1,50
 310 -224 310 -224 330 -190.5 c 128,-1,51
 350 -157 350 -157 363.5 -108.5 c 128,-1,52
 377 -60 377 -60 388 0 c 257,53,-1
 553 940 l 257,0,-1
EndSplineSet
PickledDataWithLists: "(dp0
Vcom.fontlab.ttprogram
p1
(c_codecs
encode
p2
(Vdata
p3
Vlatin1
p4
tp5
Rp6
g2
(V<data>\\u000a        <ttProgram>\\u000a          <ttc align=\"round\" code=\"alignv\" point=\"av01\"/>\\u000a          <ttc align=\"round\" code=\"alignv\" point=\"av02\"/>\\u000a          <ttc align=\"round\" code=\"alignv\" point=\"av03\"/>\\u000a          <ttc code=\"singlev\" point1=\"av01\" point2=\"sv01\"/>\\u000a        </ttProgram>\\u000a      </data>
p7
g4
tp8
Rp9
Ntp10
sVcom.typemytype.robofont.guides
p11
(lp12
(dp13
Vangle
p14
I0
sVisGlobal
p15
I00
sVmagnetic
p16
I5
sVx
p17
I0
sVy
p18
I3258
sas."
EndChar
StartChar: g
Encoding: 264 103 264
GlifName: g
Width: 1300
VWidth: 0
Flags: W
LayerCount: 2
Fore
SplineSet
813 135 m 257,0,-1
 707 25 l 257,1,2
 698 20 698 20 683.5 12.5 c 128,-1,3
 669 5 669 5 648 -1.5 c 128,-1,4
 627 -8 627 -8 600 -12.5 c 128,-1,5
 573 -17 573 -17 540 -17 c 257,6,7
NamedP: "ab01"
 455 -17 455 -17 388 17.5 c 128,-1,8
 321 52 321 52 275 114.5 c 128,-1,9
 229 177 229 177 204.5 264.5 c 128,-1,10
 180 352 180 352 180 458 c 257,11,12
 180 543 180 543 196 625 c 128,-1,13
 212 707 212 707 243 780 c 128,-1,14
 274 853 274 853 320 915 c 128,-1,15
 366 977 366 977 426.5 1022 c 128,-1,16
 487 1067 487 1067 561.5 1092 c 128,-1,17
 636 1117 636 1117 724 1117 c 257,18,19
NamedP: "av01"
 745 1117 745 1117 769.5 1114 c 128,-1,20
 794 1111 794 1111 818 1105.5 c 128,-1,21
 842 1100 842 1100 864 1091 c 128,-1,22
 886 1082 886 1082 903 1070 c 257,23,-1
 958 958 l 257,24,-1
 988 1121 l 257,25,-1
NamedP: "av03"
 1165 1100 l 257,26,-1
 963 -46 l 257,27,28
 944 -151 944 -151 900.5 -237.5 c 128,-1,29
 857 -324 857 -324 791.5 -386.5 c 128,-1,30
 726 -449 726 -449 640.5 -483 c 128,-1,31
 555 -517 555 -517 453 -517 c 257,32,33
NamedP: "av02"
 376 -517 376 -517 315.5 -501 c 128,-1,34
 255 -485 255 -485 211.5 -463.5 c 128,-1,35
 168 -442 168 -442 140 -420 c 128,-1,36
 112 -398 112 -398 100 -386 c 257,37,-1
 217 -276 l 257,38,39
 224 -282 224 -282 246 -295.5 c 128,-1,40
 268 -309 268 -309 301.5 -322.5 c 128,-1,41
 335 -336 335 -336 377.5 -346.5 c 128,-1,42
 420 -357 420 -357 468 -357 c 257,43,44
 530 -357 530 -357 582.5 -333.5 c 128,-1,45
 635 -310 635 -310 675.5 -267 c 128,-1,46
 716 -224 716 -224 743.5 -164 c 128,-1,47
 771 -104 771 -104 784 -31 c 257,48,-1
 813 135 l 257,0,-1
937 834 m 257,49,50
 922 855 922 855 900 877 c 128,-1,51
 878 899 878 899 848.5 917 c 128,-1,52
 819 935 819 935 781 946.5 c 128,-1,53
 743 958 743 958 697 958 c 257,54,55
 634 958 634 958 584.5 935 c 128,-1,56
 535 912 535 912 497.5 873.5 c 128,-1,57
 460 835 460 835 433.5 783.5 c 128,-1,58
 407 732 407 732 390.5 675.5 c 128,-1,59
 374 619 374 619 366.5 560 c 128,-1,60
 359 501 359 501 359 448 c 257,61,62
 359 312 359 312 405 235 c 128,-1,63
 451 158 451 158 551 145 c 257,64,65
 572 142 572 142 592 142 c 257,66,67
 634 142 634 142 669.5 153 c 128,-1,68
 705 164 705 164 735 182.5 c 128,-1,69
 765 201 765 201 790.5 225 c 128,-1,70
 816 249 816 249 838 275 c 257,71,-1
 937 834 l 257,49,50
EndSplineSet
PickledDataWithLists: "(dp0
Vcom.fontlab.ttprogram
p1
(c_codecs
encode
p2
(Vdata
p3
Vlatin1
p4
tp5
Rp6
g2
(V<data>\\u000a        <ttProgram>\\u000a          <ttc align=\"round\" code=\"alignv\" point=\"av01\"/>\\u000a          <ttc align=\"round\" code=\"alignv\" point=\"av02\"/>\\u000a          <ttc align=\"round\" code=\"alignv\" point=\"av03\"/>\\u000a          <ttc code=\"alignb\" point=\"ab01\" zone=\"b: 0\"/>\\u000a        </ttProgram>\\u000a      </data>
p7
g4
tp8
Rp9
Ntp10
s."
EndChar
StartChar: j
Encoding: 298 106 298
GlifName: j
Width: 1300
VWidth: 0
Flags: W
LayerCount: 2
Fore
SplineSet
923 1500 m 257,0,-1
NamedP: "at01"
 1125 1500 l 257,1,-1
NamedP: "sv01"
 1090 1300 l 257,2,-1
 888 1300 l 257,3,-1
 923 1500 l 257,0,-1
NamedP: "at01"
873 995 m 257,4,-1
 753 955 l 257,5,-1
 524 955 l 257,6,-1
 550 1100 l 257,7,-1
NamedP: "av02"
 1049 1100 l 257,8,-1
NamedP: "sv02"
 838 -97 l 257,9,10
 822 -186 822 -186 797 -263 c 128,-1,11
 772 -340 772 -340 728.5 -396.5 c 128,-1,12
 685 -453 685 -453 618.5 -485 c 128,-1,13
 552 -517 552 -517 454 -517 c 257,14,15
NamedP: "av01"
 388 -517 388 -517 331.5 -506.5 c 128,-1,16
 275 -496 275 -496 233 -483.5 c 128,-1,17
 191 -471 191 -471 165 -459 c 128,-1,18
 139 -447 139 -447 134 -444 c 257,19,-1
 200 -290 l 257,20,21
 205 -294 205 -294 224 -304.5 c 128,-1,22
 243 -315 243 -315 273 -326.5 c 128,-1,23
 303 -338 303 -338 343 -346.5 c 128,-1,24
 383 -355 383 -355 431 -355 c 257,25,26
 478 -355 478 -355 513.5 -339 c 128,-1,27
 549 -323 549 -323 575 -292 c 128,-1,28
 601 -261 601 -261 618 -214.5 c 128,-1,29
 635 -168 635 -168 646 -107 c 257,30,-1
 830 934 l 257,31,-1
 873 995 l 257,4,-1
EndSplineSet
PickledDataWithLists: "(dp0
Vcom.fontlab.ttprogram
p1
(c_codecs
encode
p2
(Vdata
p3
Vlatin1
p4
tp5
Rp6
g2
(V<data>\\u000a        <ttProgram>\\u000a          <ttc align=\"round\" code=\"alignv\" point=\"av01\"/>\\u000a          <ttc align=\"round\" code=\"alignv\" point=\"av02\"/>\\u000a          <ttc code=\"alignt\" point=\"at01\" zone=\"t: 1\"/>\\u000a          <ttc code=\"singlev\" point1=\"at01\" point2=\"sv01\"/>\\u000a          <ttc code=\"singlev\" point1=\"av02\" point2=\"sv02\"/>\\u000a        </ttProgram>\\u000a      </data>
p7
g4
tp8
Rp9
Ntp10
s."
EndChar
StartChar: t
Encoding: 514 116 514
GlifName: t
Width: 1300
VWidth: 0
Flags: W
LayerCount: 2
Fore
SplineSet
533 376 m 257,0,1
 521 307 521 307 521 261 c 257,2,3
 521 195 521 195 543 169 c 128,-1,4
 565 143 565 143 607 143 c 257,5,6
 654 143 654 143 702 154 c 128,-1,7
 750 165 750 165 792.5 179.5 c 128,-1,8
 835 194 835 194 868.5 208.5 c 128,-1,9
 902 223 902 223 920 230 c 257,10,-1
 968 109 l 257,11,12
 957 101 957 101 919 80.5 c 128,-1,13
 881 60 881 60 824.5 38 c 128,-1,14
 768 16 768 16 699.5 -0.5 c 128,-1,15
 631 -17 631 -17 559 -17 c 257,16,17
NamedP: "ab01"
 493 -17 493 -17 448.5 1 c 128,-1,18
 404 19 404 19 377.5 52 c 128,-1,19
 351 85 351 85 340 130 c 128,-1,20
 329 175 329 175 329 229 c 257,21,22
 329 268 329 268 334 311 c 128,-1,23
 339 354 339 354 347 400 c 257,24,-1
 443 940 l 257,25,-1
 142 940 l 257,26,-1
 170 1100 l 257,27,-1
NamedP: "av01"
 471 1100 l 257,28,-1
 508 1309 l 257,29,-1
 712 1420 l 257,30,-1
NamedP: "av02"
 656 1100 l 257,31,-1
 1096 1100 l 257,32,-1
NamedP: "sv01"
 1048 940 l 257,33,-1
 633 940 l 257,34,-1
 533 376 l 257,0,1
EndSplineSet
PickledDataWithLists: "(dp0
Vcom.fontlab.ttprogram
p1
(c_codecs
encode
p2
(Vdata
p3
Vlatin1
p4
tp5
Rp6
g2
(V<data>\\u000a        <ttProgram>\\u000a          <ttc align=\"round\" code=\"alignv\" point=\"av01\"/>\\u000a          <ttc align=\"round\" code=\"alignv\" point=\"av02\"/>\\u000a          <ttc code=\"alignb\" point=\"ab01\" zone=\"b: 0\"/>\\u000a          <ttc code=\"singlev\" point1=\"av01\" point2=\"sv01\"/>\\u000a        </ttProgram>\\u000a      </data>
p7
g4
tp8
Rp9
Ntp10
s."
EndChar
StartChar: x
Encoding: 578 120 578
GlifName: x
Width: 1300
VWidth: 0
Flags: W
LayerCount: 2
Fore
SplineSet
851 0 m 257,0,-1
 650 382 l 257,1,-1
 626 500 l 257,2,-1
 560 382 l 257,3,-1
 225 0 l 257,4,-1
 26 0 l 257,5,-1
NamedP: "ab01"
 541 588 l 257,6,-1
 273 1100 l 257,7,-1
NamedP: "av01"
 487 1121 l 257,8,-1
NamedP: "av02"
 663 781 l 257,9,-1
 683 670 l 257,10,-1
 740 781 l 257,11,-1
 1021 1100 l 257,12,-1
NamedP: "sv01"
 1236 1121 l 257,13,-1
NamedP: "av03"
 767 583 l 257,14,-1
 1076 0 l 257,15,-1
NamedP: "sv02"
 851 0 l 257,0,-1
EndSplineSet
PickledDataWithLists: "(dp0
Vcom.fontlab.ttprogram
p1
(c_codecs
encode
p2
(Vdata
p3
Vlatin1
p4
tp5
Rp6
g2
(V<data>\\u000a        <ttProgram>\\u000a          <ttc align=\"round\" code=\"alignv\" point=\"av01\"/>\\u000a          <ttc align=\"round\" code=\"alignv\" point=\"av02\"/>\\u000a          <ttc align=\"round\" code=\"alignv\" point=\"av03\"/>\\u000a          <ttc code=\"alignb\" point=\"ab01\" zone=\"b: 0\"/>\\u000a          <ttc code=\"singlev\" point1=\"av01\" point2=\"sv01\"/>\\u000a          <ttc code=\"singlev\" point1=\"ab01\" point2=\"sv02\"/>\\u000a        </ttProgram>\\u000a      </data>
p7
g4
tp8
Rp9
Ntp10
sVcom.typemytype.robofont.guides
p11
(lp12
(dp13
Vangle
p14
I0
sVisGlobal
p15
I00
sVmagnetic
p16
I5
sVx
p17
I0
sVy
p18
I382
sa(dp19
g14
I0
sg15
I00
sg16
I5
sg17
I0
sg18
I583
sa(dp20
g14
I0
sg15
I00
sg16
I5
sg17
I0
sg18
I781
sa(dp21
g14
I90
sg15
I00
sg16
I5
sg17
I565
sg18
I0
sa(dp22
g14
I90
sg15
I00
sg16
I5
sg17
I538
sg18
I0
sas."
EndChar
StartChar: braceleft
Encoding: 156 123 156
GlifName: braceleft
Width: 1300
VWidth: 0
Flags: W
LayerCount: 2
Fore
SplineSet
148 625 m 257,0,-1
 270 625 l 257,1,2
 328 631 328 631 361.5 648.5 c 128,-1,3
 395 666 395 666 414.5 696.5 c 128,-1,4
 434 727 434 727 444 772.5 c 128,-1,5
 454 818 454 818 465 880 c 257,6,-1
 507 1119 l 257,7,8
 526 1227 526 1227 555 1304.5 c 128,-1,9
 584 1382 584 1382 629.5 1431.5 c 128,-1,10
 675 1481 675 1481 740 1502 c 128,-1,11
 805 1523 805 1523 897 1519 c 257,12,13
NamedP: "at01"
 942 1517 942 1517 973 1513 c 128,-1,14
 1004 1509 1004 1509 1027.5 1503.5 c 128,-1,15
 1051 1498 1051 1498 1071 1490 c 128,-1,16
 1091 1482 1091 1482 1113 1472 c 257,17,-1
 1028 1349 l 257,18,19
 999 1364 999 1364 961 1369.5 c 128,-1,20
 923 1375 923 1375 892 1374 c 257,21,22
 840 1372 840 1372 807.5 1356 c 128,-1,23
 775 1340 775 1340 754 1309 c 128,-1,24
 733 1278 733 1278 720.5 1230.5 c 128,-1,25
 708 1183 708 1183 697 1119 c 257,26,-1
 655 880 l 257,27,28
 643 809 643 809 631 759 c 128,-1,29
 619 709 619 709 601 671.5 c 128,-1,30
 583 634 583 634 556.5 605.5 c 128,-1,31
 530 577 530 577 489 550 c 257,32,33
NamedP: "iv01"
 507 529 507 529 520 490.5 c 128,-1,34
 533 452 533 452 539.5 406 c 128,-1,35
 546 360 546 360 545.5 311 c 128,-1,36
 545 262 545 262 538 220 c 257,37,-1
 496 -20 l 257,38,39
 485 -82 485 -82 479.5 -130 c 128,-1,40
 474 -178 474 -178 483 -210 c 128,-1,41
 492 -242 492 -242 519.5 -258.5 c 128,-1,42
 547 -275 547 -275 601 -275 c 257,43,44
 609 -277 609 -277 617 -277 c 128,-1,45
 625 -277 625 -277 633 -277 c 257,46,47
 645 -277 645 -277 660.5 -275 c 128,-1,48
 676 -273 676 -273 691.5 -269 c 128,-1,49
 707 -265 707 -265 721.5 -260.5 c 128,-1,50
 736 -256 736 -256 746 -250 c 257,51,-1
 788 -373 l 257,52,53
 765 -383 765 -383 743 -392.5 c 128,-1,54
 721 -402 721 -402 694.5 -408.5 c 128,-1,55
 668 -415 668 -415 634.5 -418.5 c 128,-1,56
 601 -422 601 -422 555 -420 c 257,57,58
NamedP: "av01"
 464 -417 464 -417 409 -380.5 c 128,-1,59
 354 -344 354 -344 327 -287.5 c 128,-1,60
 300 -231 300 -231 297 -161 c 128,-1,61
 294 -91 294 -91 306 -20 c 257,62,-1
 348 220 l 257,63,64
 359 284 359 284 363.5 332 c 128,-1,65
 368 380 368 380 358.5 411.5 c 128,-1,66
 349 443 349 443 322 459 c 128,-1,67
 295 475 295 475 243 475 c 257,68,-1
 121 475 l 257,69,-1
 148 625 l 257,0,-1
EndSplineSet
PickledDataWithLists: "(dp0
Vcom.fontlab.ttprogram
p1
(c_codecs
encode
p2
(Vdata
p3
Vlatin1
p4
tp5
Rp6
g2
(V<data>\\u000a        <ttProgram>\\u000a          <ttc align=\"round\" code=\"alignv\" point=\"av01\"/>\\u000a          <ttc code=\"alignt\" point=\"at01\" zone=\"t: 1\"/>\\u000a          <ttc code=\"interpolatev\" point=\"iv01\" point1=\"at01\" point2=\"av01\"/>\\u000a        </ttProgram>\\u000a      </data>
p7
g4
tp8
Rp9
Ntp10
sVcom.typemytype.robofont.guides
p11
(lp12
(dp13
Vangle
p14
I0
sVisGlobal
p15
I00
sVmagnetic
p16
I5
sVx
p17
I0
sVy
p18
I550
sa(dp19
g14
I0
sg15
I00
sg16
I5
sg17
I0
sg18
I475
sas."
EndChar
StartChar: sterling
Encoding: 480 163 480
GlifName: sterling
Width: 1300
VWidth: 0
Flags: W
LayerCount: 2
Fore
SplineSet
379 850 m 257,0,-1
NamedP: "av01"
 540 850 l 257,1,-1
 641 1165 l 257,2,3
 674 1267 674 1267 706.5 1334.5 c 128,-1,4
 739 1402 739 1402 781.5 1442 c 128,-1,5
 824 1482 824 1482 881 1499 c 128,-1,6
 938 1516 938 1516 1020 1517 c 257,7,8
NamedP: "at01"
 1071 1518 1071 1518 1112 1509.5 c 128,-1,9
 1153 1501 1153 1501 1186 1484 c 257,10,11
 1253 1451 1253 1451 1276 1425 c 257,12,-1
 1168 1324 l 257,13,14
 1160 1329 1160 1329 1145.5 1336.5 c 128,-1,15
 1131 1344 1131 1344 1113 1351 c 128,-1,16
 1095 1358 1095 1358 1076 1363 c 128,-1,17
 1057 1368 1057 1368 1040 1369 c 257,18,19
 995 1371 995 1371 963 1363.5 c 128,-1,20
 931 1356 931 1356 906 1331.5 c 128,-1,21
 881 1307 881 1307 860 1261.5 c 128,-1,22
 839 1216 839 1216 815 1141 c 257,23,-1
 722 850 l 257,24,-1
 929 850 l 257,25,-1
NamedP: "sv01"
 883 700 l 257,26,-1
 675 700 l 257,27,28
 543 263 543 263 507 224 c 257,29,-1
 398 104 l 257,30,-1
 567 147 l 257,31,-1
 1005 147 l 257,32,-1
 980 0 l 257,33,-1
NamedP: "sv02"
 34 0 l 257,34,-1
NamedP: "ab01"
 79 147 l 257,35,-1
 217 147 l 257,36,37
 252 147 252 147 300 197 c 257,38,39
 347 245 347 245 493 700 c 257,40,-1
 353 700 l 257,41,-1
 379 850 l 257,0,-1
NamedP: "av01"
EndSplineSet
PickledDataWithLists: "(dp0
Vcom.fontlab.ttprogram
p1
(c_codecs
encode
p2
(Vdata
p3
Vlatin1
p4
tp5
Rp6
g2
(V<data>\\u000a        <ttProgram>\\u000a          <ttc align=\"round\" code=\"alignv\" point=\"av01\"/>\\u000a          <ttc code=\"alignt\" point=\"at01\" zone=\"t: 1\"/>\\u000a          <ttc code=\"alignb\" point=\"ab01\" zone=\"b: 0\"/>\\u000a          <ttc code=\"singlev\" point1=\"av01\" point2=\"sv01\"/>\\u000a          <ttc code=\"singlev\" point1=\"ab01\" point2=\"sv02\"/>\\u000a        </ttProgram>\\u000a      </data>
p7
g4
tp8
Rp9
Ntp10
s."
EndChar
StartChar: section
Encoding: 437 167 437
GlifName: section
Width: 1300
VWidth: 0
Flags: W
LayerCount: 2
Fore
SplineSet
1010 1351 m 257,0,1
 966 1377 966 1377 915.5 1384 c 128,-1,2
 865 1391 865 1391 808 1393 c 257,3,4
 752 1395 752 1395 701.5 1383.5 c 128,-1,5
 651 1372 651 1372 613 1347.5 c 128,-1,6
 575 1323 575 1323 553 1285.5 c 128,-1,7
 531 1248 531 1248 531 1197 c 257,8,9
 531 1147 531 1147 551 1107 c 128,-1,10
 571 1067 571 1067 603 1032.5 c 128,-1,11
 635 998 635 998 675 967 c 128,-1,12
 715 936 715 936 756.5 903 c 128,-1,13
 798 870 798 870 837 833 c 128,-1,14
 876 796 876 796 905 750 c 128,-1,15
 934 704 934 704 949.5 646.5 c 128,-1,16
 965 589 965 589 960 515 c 257,17,18
NamedP: "sv01"
 956 462 956 462 940.5 420 c 128,-1,19
 925 378 925 378 900.5 346.5 c 128,-1,20
 876 315 876 315 845.5 293 c 128,-1,21
 815 271 815 271 781 257 c 257,22,23
 757 246 757 246 733.5 235 c 128,-1,24
 710 224 710 224 684 216 c 257,25,-1
 711 192 l 257,26,27
 774 138 774 138 806.5 69.5 c 128,-1,28
 839 1 839 1 834 -88 c 257,29,30
 830 -168 830 -168 794.5 -230.5 c 128,-1,31
 759 -293 759 -293 698.5 -336 c 128,-1,32
 638 -379 638 -379 555.5 -400.5 c 128,-1,33
 473 -422 473 -422 376 -420 c 257,34,35
NamedP: "av01"
 293 -418 293 -418 227 -403.5 c 128,-1,36
 161 -389 161 -389 102 -348 c 257,37,-1
 179 -251 l 257,38,39
 223 -277 223 -277 273.5 -285 c 128,-1,40
 324 -293 324 -293 381 -293 c 257,41,42
NamedP: "iv03"
 430 -293 430 -293 480 -282 c 128,-1,43
 530 -271 530 -271 569.5 -247.5 c 128,-1,44
 609 -224 609 -224 634 -187 c 128,-1,45
 659 -150 659 -150 658 -97 c 257,46,47
 657 -47 657 -47 637.5 -7.5 c 128,-1,48
 618 32 618 32 586 66 c 128,-1,49
 554 100 554 100 514 130 c 128,-1,50
 474 160 474 160 433 192.5 c 128,-1,51
 392 225 392 225 353 262 c 128,-1,52
 314 299 314 299 285 345 c 128,-1,53
 256 391 256 391 240 450 c 128,-1,54
 224 509 224 509 229 585 c 257,55,56
NamedP: "av03"
 232 632 232 632 247.5 671 c 128,-1,57
 263 710 263 710 287 741.5 c 128,-1,58
 311 773 311 773 342 798 c 128,-1,59
 373 823 373 823 407 842 c 257,60,61
 454 869 454 869 504 883 c 257,62,-1
 477 907 l 257,63,64
 446 935 446 935 421 965.5 c 128,-1,65
 396 996 396 996 380 1031 c 128,-1,66
 364 1066 364 1066 357 1105 c 128,-1,67
 350 1144 350 1144 355 1188 c 257,68,69
 365 1277 365 1277 405 1339.5 c 128,-1,70
 445 1402 445 1402 506.5 1441.5 c 128,-1,71
 568 1481 568 1481 647 1499 c 128,-1,72
 726 1517 726 1517 813 1517 c 257,73,74
NamedP: "at01"
 895 1517 895 1517 961.5 1503 c 128,-1,75
 1028 1489 1028 1489 1087 1448 c 257,76,-1
 1010 1351 l 257,0,1
520 767 m 257,77,78
 478 737 478 737 449 692 c 128,-1,79
 420 647 420 647 409 587 c 257,80,81
NamedP: "sv02"
 402 549 402 549 409.5 515 c 128,-1,82
 417 481 417 481 435 450 c 128,-1,83
 453 419 453 419 479 390.5 c 128,-1,84
 505 362 505 362 537 336 c 257,85,-1
 591 291 l 257,86,87
NamedP: "iv02"
 634 307 634 307 669 332 c 257,88,89
 711 363 711 363 740 408 c 128,-1,90
 769 453 769 453 780 513 c 257,91,92
NamedP: "av02"
 787 550 787 550 779.5 584.5 c 128,-1,93
 772 619 772 619 754 650 c 128,-1,94
 736 681 736 681 709.5 709 c 128,-1,95
 683 737 683 737 652 763 c 257,96,-1
 597 808 l 257,97,98
NamedP: "iv01"
 576 800 576 800 557 790 c 128,-1,99
 538 780 538 780 520 767 c 257,77,78
EndSplineSet
PickledDataWithLists: "(dp0
Vcom.fontlab.ttprogram
p1
(c_codecs
encode
p2
(Vdata
p3
Vlatin1
p4
tp5
Rp6
g2
(V<data>\\u000a        <ttProgram>\\u000a          <ttc align=\"round\" code=\"alignv\" point=\"av01\"/>\\u000a          <ttc align=\"round\" code=\"alignv\" point=\"av02\"/>\\u000a          <ttc align=\"round\" code=\"alignv\" point=\"av03\"/>\\u000a          <ttc code=\"alignt\" point=\"at01\" zone=\"t: 1\"/>\\u000a          <ttc code=\"singlev\" point1=\"av02\" point2=\"sv01\"/>\\u000a          <ttc code=\"singlev\" point1=\"av03\" point2=\"sv02\"/>\\u000a          <ttc code=\"interpolatev\" point=\"iv01\" point1=\"at01\" point2=\"iv02\"/>\\u000a          <ttc code=\"interpolatev\" point=\"iv02\" point1=\"iv03\" point2=\"iv01\"/>\\u000a        </ttProgram>\\u000a      </data>
p7
g4
tp8
Rp9
Ntp10
sVcom.typemytype.robofont.guides
p11
(lp12
(dp13
Vangle
p14
I90
sVisGlobal
p15
I00
sVmagnetic
p16
I5
sVx
p17
I850
sVy
p18
I0
sas."
EndChar
StartChar: dieresis
Encoding: 210 168 210
GlifName: dieresis
Width: 1300
VWidth: 0
Flags: W
LayerCount: 2
Fore
SplineSet
564 1500 m 257,0,-1
 764 1500 l 257,1,-1
 729 1300 l 257,2,-1
 529 1300 l 257,3,-1
 564 1500 l 257,0,-1
964 1500 m 257,4,-1
 1164 1500 l 257,5,-1
 1129 1300 l 257,6,-1
 929 1300 l 257,7,-1
 964 1500 l 257,4,-1
EndSplineSet
EndChar
StartChar: ordfeminine
Encoding: 356 170 356
GlifName: ordfeminine
Width: 1300
VWidth: 0
Flags: W
LayerCount: 2
Fore
SplineSet
241 800 m 257,0,-1
 641 800 l 257,1,-1
 623 700 l 257,2,-1
 223 700 l 257,3,-1
 241 800 l 257,0,-1
665 1427 m 257,4,5
 656 1431 656 1431 643.5 1434 c 128,-1,6
 631 1437 631 1437 619 1438 c 257,7,8
 606 1440 606 1440 591 1441 c 257,9,10
 540 1441 540 1441 502 1423.5 c 128,-1,11
 464 1406 464 1406 437.5 1375.5 c 128,-1,12
 411 1345 411 1345 395.5 1304.5 c 128,-1,13
 380 1264 380 1264 375 1218 c 257,14,15
 372 1193 372 1193 372 1172 c 257,16,17
 372 1138 372 1138 379 1112 c 128,-1,18
 386 1086 386 1086 398.5 1068.5 c 128,-1,19
 411 1051 411 1051 427.5 1042.5 c 128,-1,20
 444 1034 444 1034 463 1034 c 257,21,22
 489 1034 489 1034 511 1041 c 128,-1,23
 533 1048 533 1048 551.5 1059.5 c 128,-1,24
 570 1071 570 1071 585 1085.5 c 128,-1,25
 600 1100 600 1100 612 1115 c 257,26,-1
 665 1427 l 257,4,5
586 962 m 257,27,-1
 600 1043 l 257,28,-1
 542 986 l 257,29,30
 532 978 532 978 521.5 971.5 c 128,-1,31
 511 965 511 965 499 961 c 128,-1,32
 487 957 487 957 471 955 c 128,-1,33
 455 953 455 953 433 953 c 257,34,35
 397 953 397 953 369 969 c 128,-1,36
 341 985 341 985 321.5 1014 c 128,-1,37
 302 1043 302 1043 292 1083 c 128,-1,38
 282 1123 282 1123 282 1171 c 257,39,40
 282 1185 282 1185 282.5 1200 c 128,-1,41
 283 1215 283 1215 285 1230 c 257,42,43
 292 1285 292 1285 314.5 1337.5 c 128,-1,44
 337 1390 337 1390 376 1430.5 c 128,-1,45
 415 1471 415 1471 471.5 1495.5 c 128,-1,46
 528 1520 528 1520 602 1520 c 257,47,48
 644 1520 644 1520 687 1513 c 128,-1,49
 730 1506 730 1506 768 1493 c 257,50,-1
 692 1052 l 257,51,-1
 687 962 l 257,52,-1
 586 962 l 257,27,-1
EndSplineSet
EndChar
StartChar: registered
Encoding: 411 174 411
GlifName: registered
Width: 1300
VWidth: 0
Flags: W
LayerCount: 2
Fore
SplineSet
717 1517 m 256,0,1
 579 1527 579 1527 454.5 1465 c 0,2,3
 330 1403 330 1403 252 1291 c 0,4,5
 174 1179 174 1179 164 1047 c 256,6,7
 154 916 154 916 198.5 810.5 c 0,8,9
 243 705 243 705 336.5 642.5 c 0,10,11
 430 580 430 580 557 577 c 256,12,13
 769 572 769 572 923.5 708 c 0,14,15
 1078 844 1078 844 1104 1047 c 256,16,17
 1130 1252 1130 1252 1023 1377 c 0,18,19
 916 1502 916 1502 717 1517 c 256,0,1
571 663 m 256,20,21
 466 663 466 663 390 715.5 c 0,22,23
 314 768 314 768 279 854.5 c 0,24,25
 244 941 244 941 250 1047 c 256,26,27
 259 1214 259 1214 390 1326.5 c 0,28,29
 521 1439 521 1439 696 1439 c 256,30,31
 763 1439 763 1439 827 1411 c 0,32,33
 891 1383 891 1383 939.5 1334 c 0,34,35
 988 1285 988 1285 1009.5 1209.5 c 0,36,37
 1031 1134 1031 1134 1013 1047 c 256,38,39
 993 949 993 949 948 873.5 c 0,40,41
 903 798 903 798 842.5 753 c 0,42,43
 782 708 782 708 713.5 685.5 c 0,44,45
 645 663 645 663 571 663 c 256,20,21
541 1006 m 257,46,-1
 505 802 l 257,47,-1
 439 802 l 257,48,-1
 514 1228 l 257,49,-1
 514 1294 l 257,50,51
 525 1295 525 1295 539.5 1296.5 c 128,-1,52
 554 1298 554 1298 570 1299.5 c 128,-1,53
 586 1301 586 1301 602.5 1302 c 128,-1,54
 619 1303 619 1303 635 1303 c 257,55,56
 676 1303 676 1303 706.5 1293.5 c 128,-1,57
 737 1284 737 1284 756.5 1267.5 c 128,-1,58
 776 1251 776 1251 785.5 1228 c 128,-1,59
 795 1205 795 1205 795 1178 c 257,60,61
 795 1135 795 1135 780.5 1104 c 128,-1,62
 766 1073 766 1073 742 1052.5 c 128,-1,63
 718 1032 718 1032 687.5 1021.5 c 128,-1,64
 657 1011 657 1011 626 1010 c 257,65,-1
 668 998 l 257,66,-1
 780 802 l 257,67,-1
 706 802 l 257,68,-1
 594 1000 l 257,69,70
 592 1005 592 1005 587.5 1005.5 c 128,-1,71
 583 1006 583 1006 580 1006 c 257,72,-1
 541 1006 l 257,46,-1
572 1181 m 257,73,-1
 549 1054 l 257,74,-1
 598 1054 l 257,75,76
 628 1054 628 1054 653.5 1061.5 c 128,-1,77
 679 1069 679 1069 697 1084 c 128,-1,78
 715 1099 715 1099 725 1121 c 128,-1,79
 735 1143 735 1143 735 1171 c 257,80,81
 735 1190 735 1190 726.5 1206 c 128,-1,82
 718 1222 718 1222 704 1233 c 128,-1,83
 690 1244 690 1244 672 1250 c 128,-1,84
 654 1256 654 1256 635 1256 c 257,85,86
 621 1256 621 1256 605 1255 c 128,-1,87
 589 1254 589 1254 578 1252 c 257,88,-1
 572 1181 l 257,73,-1
EndSplineSet
EndChar
StartChar: degree
Encoding: 206 176 206
GlifName: degree
Width: 1300
VWidth: 0
Flags: W
LayerCount: 2
Fore
SplineSet
568 1520 m 257,0,1
 679 1505 679 1505 737.5 1434.5 c 128,-1,2
 796 1364 796 1364 789 1250 c 257,3,4
 786 1194 786 1194 756.5 1142.5 c 128,-1,5
 727 1091 727 1091 682.5 1052.5 c 128,-1,6
 638 1014 638 1014 582.5 994 c 128,-1,7
 527 974 527 974 472 980 c 257,8,9
 362 993 362 993 305.5 1065 c 128,-1,10
 249 1137 249 1137 251 1250 c 257,11,12
 252 1288 252 1288 265.5 1324 c 128,-1,13
 279 1360 279 1360 302 1391.5 c 128,-1,14
 325 1423 325 1423 355.5 1449 c 128,-1,15
 386 1475 386 1475 421 1492.5 c 128,-1,16
 456 1510 456 1510 493.5 1517.5 c 128,-1,17
 531 1525 531 1525 568 1520 c 257,0,1
492 1091 m 257,18,19
 523 1088 523 1088 555.5 1097.5 c 128,-1,20
 588 1107 588 1107 615 1127.5 c 128,-1,21
 642 1148 642 1148 659.5 1179 c 128,-1,22
 677 1210 677 1210 679 1250 c 257,23,24
 682 1317 682 1317 648 1357 c 128,-1,25
 614 1397 614 1397 548 1409 c 257,26,27
 514 1415 514 1415 480.5 1406 c 128,-1,28
 447 1397 447 1397 420.5 1376 c 128,-1,29
 394 1355 394 1355 377.5 1322.5 c 128,-1,30
 361 1290 361 1290 361 1250 c 257,31,32
 362 1184 362 1184 396.5 1141 c 128,-1,33
 431 1098 431 1098 492 1091 c 257,18,19
EndSplineSet
EndChar
StartChar: threesuperior
Encoding: 526 179 526
GlifName: threesuperior
Width: 1300
VWidth: 0
Flags: W
LayerCount: 2
Fore
SplineSet
285 1390 m 257,0,-1
 307 1470 l 257,1,-1
 672 1470 l 257,2,-1
 659 1400 l 257,3,4
 650 1380 650 1380 632 1358 c 128,-1,5
 614 1336 614 1336 590.5 1314 c 128,-1,6
 567 1292 567 1292 540.5 1270.5 c 128,-1,7
 514 1249 514 1249 488 1229 c 257,8,-1
 415 1194 l 257,9,-1
 451 1194 l 257,10,11
 484 1194 484 1194 517 1181.5 c 128,-1,12
 550 1169 550 1169 576 1146 c 128,-1,13
 602 1123 602 1123 618 1090.5 c 128,-1,14
 634 1058 634 1058 634 1018 c 257,15,16
 634 962 634 962 613.5 918 c 128,-1,17
 593 874 593 874 558.5 841 c 128,-1,18
 524 808 524 808 477.5 785 c 128,-1,19
 431 762 431 762 378.5 747.5 c 128,-1,20
 326 733 326 733 269.5 726.5 c 128,-1,21
 213 720 213 720 160 720 c 257,22,-1
 174 800 l 257,23,24
 213 800 213 800 255 806 c 128,-1,25
 297 812 297 812 336.5 823.5 c 128,-1,26
 376 835 376 835 411.5 851 c 128,-1,27
 447 867 447 867 473.5 888 c 128,-1,28
 500 909 500 909 515.5 935 c 128,-1,29
 531 961 531 961 531 991 c 257,30,31
 531 1023 531 1023 519.5 1046.5 c 128,-1,32
 508 1070 508 1070 487 1085 c 128,-1,33
 466 1100 466 1100 437 1107.5 c 128,-1,34
 408 1115 408 1115 373 1115 c 257,35,36
 350 1115 350 1115 328.5 1114.5 c 128,-1,37
 307 1114 307 1114 286 1113 c 257,38,-1
 300 1190 l 257,39,40
 323 1205 323 1205 350.5 1224 c 128,-1,41
 378 1243 378 1243 406.5 1263.5 c 128,-1,42
 435 1284 435 1284 462 1305.5 c 128,-1,43
 489 1327 489 1327 512 1346 c 128,-1,44
 535 1365 535 1365 551 1382 c 128,-1,45
 567 1399 567 1399 573 1410 c 257,46,-1
 493 1390 l 257,47,-1
 285 1390 l 257,0,-1
EndSplineSet
EndChar
StartChar: acute
Encoding: 92 180 92
GlifName: acute
Width: 1300
VWidth: 0
Flags: W
LayerCount: 2
Fore
SplineSet
864 1500 m 257,0,-1
NamedP: "at01"
 1098 1520 l 257,1,-1
 801 1200 l 257,2,-1
 651 1200 l 257,3,-1
NamedP: "av01"
 864 1500 l 257,0,-1
NamedP: "at01"
EndSplineSet
PickledDataWithLists: "(dp0
Vcom.fontlab.ttprogram
p1
(c_codecs
encode
p2
(Vdata
p3
Vlatin1
p4
tp5
Rp6
g2
(V<data>\\u000a        <ttProgram>\\u000a          <ttc align=\"round\" code=\"alignv\" point=\"av01\"/>\\u000a          <ttc code=\"alignt\" point=\"at01\" zone=\"t: 1\"/>\\u000a        </ttProgram>\\u000a      </data>
p7
g4
tp8
Rp9
Ntp10
s."
EndChar
StartChar: mu
Encoding: 324 181 324
GlifName: mu
Width: 1300
VWidth: 0
Flags: W
LayerCount: 2
Fore
SplineSet
1237 36 m 257,0,1
 1226 27 1226 27 1206 18 c 128,-1,2
 1186 9 1186 9 1160.5 1 c 128,-1,3
 1135 -7 1135 -7 1107 -12 c 128,-1,4
 1079 -17 1079 -17 1054 -17 c 257,5,6
NamedP: "ab02"
 1021 -17 1021 -17 987 -5.5 c 128,-1,7
 953 6 953 6 923.5 28 c 128,-1,8
 894 50 894 50 872 82 c 128,-1,9
 850 114 850 114 841 155 c 257,10,-1
 804 86 l 257,11,12
 783 61 783 61 751 39.5 c 128,-1,13
 719 18 719 18 679.5 4 c 128,-1,14
 640 -10 640 -10 595 -16 c 128,-1,15
 550 -22 550 -22 504 -17 c 257,16,17
NamedP: "ab01"
 485 -15 485 -15 460 -13 c 128,-1,18
 435 -11 435 -11 410 -7 c 128,-1,19
 385 -3 385 -3 363 4.5 c 128,-1,20
 341 12 341 12 328 25 c 257,21,-1
 339 -166 l 257,22,-1
 280 -500 l 257,23,-1
NamedP: "sv01"
 100 -500 l 257,24,-1
NamedP: "av04"
 382 1100 l 257,25,-1
NamedP: "av01"
 567 1121 l 257,26,-1
NamedP: "av02"
 430 348 l 257,27,28
 421 298 421 298 423.5 256.5 c 128,-1,29
 426 215 426 215 443.5 186 c 128,-1,30
 461 157 461 157 494.5 143 c 128,-1,31
 528 129 528 129 581 133 c 257,32,33
 613 136 613 136 642.5 144.5 c 128,-1,34
 672 153 672 153 701.5 166.5 c 128,-1,35
 731 180 731 180 762.5 199 c 128,-1,36
 794 218 794 218 831 241 c 257,37,-1
 982 1100 l 257,38,-1
NamedP: "sv02"
 1165 1121 l 257,39,-1
NamedP: "av03"
 1029 352 l 257,40,41
 1015 276 1015 276 1014 232.5 c 128,-1,42
 1013 189 1013 189 1022 166.5 c 128,-1,43
 1031 144 1031 144 1050.5 138.5 c 128,-1,44
 1070 133 1070 133 1098 133 c 257,45,46
 1122 133 1122 133 1145.5 137.5 c 128,-1,47
 1169 142 1169 142 1192 150 c 257,48,-1
 1237 36 l 257,0,1
EndSplineSet
PickledDataWithLists: "(dp0
Vcom.fontlab.ttprogram
p1
(c_codecs
encode
p2
(Vdata
p3
Vlatin1
p4
tp5
Rp6
g2
(V<data>\\u000a        <ttProgram>\\u000a          <ttc align=\"round\" code=\"alignv\" point=\"av01\"/>\\u000a          <ttc align=\"round\" code=\"alignv\" point=\"av02\"/>\\u000a          <ttc align=\"round\" code=\"alignv\" point=\"av03\"/>\\u000a          <ttc align=\"round\" code=\"alignv\" point=\"av04\"/>\\u000a          <ttc code=\"alignb\" point=\"ab01\" zone=\"b: 0\"/>\\u000a          <ttc code=\"alignb\" point=\"ab02\" zone=\"b: 0\"/>\\u000a          <ttc code=\"singlev\" point1=\"av04\" point2=\"sv01\"/>\\u000a          <ttc code=\"singlev\" point1=\"av01\" point2=\"sv02\"/>\\u000a        </ttProgram>\\u000a      </data>
p7
g4
tp8
Rp9
Ntp10
s."
EndChar
StartChar: periodcentered
Encoding: 372 183 372
GlifName: periodcentered
Width: 1300
VWidth: 0
Flags: W
LayerCount: 2
Fore
SplineSet
307 650 m 257,0,1
 313 684 313 684 331 714 c 128,-1,2
 349 744 349 744 375.5 766.5 c 128,-1,3
 402 789 402 789 434 802 c 128,-1,4
 466 815 466 815 500 815 c 257,5,6
NamedP: "av01"
 534 815 534 815 561.5 802 c 128,-1,7
 589 789 589 789 607.5 766.5 c 128,-1,8
 626 744 626 744 634 714 c 128,-1,9
 642 684 642 684 636 650 c 257,10,11
 630 616 630 616 611.5 585.5 c 128,-1,12
 593 555 593 555 567 532.5 c 128,-1,13
 541 510 541 510 509 496.5 c 128,-1,14
 477 483 477 483 443 483 c 257,15,16
NamedP: "av02"
 409 483 409 483 381 496.5 c 128,-1,17
 353 510 353 510 334.5 532.5 c 128,-1,18
 316 555 316 555 308.5 585.5 c 128,-1,19
 301 616 301 616 307 650 c 257,0,1
EndSplineSet
PickledDataWithLists: "(dp0
Vcom.fontlab.ttprogram
p1
(c_codecs
encode
p2
(Vdata
p3
Vlatin1
p4
tp5
Rp6
g2
(V<data>\\u000a        <ttProgram>\\u000a          <ttc align=\"round\" code=\"alignv\" point=\"av01\"/>\\u000a          <ttc align=\"round\" code=\"alignv\" point=\"av02\"/>\\u000a        </ttProgram>\\u000a      </data>
p7
g4
tp8
Rp9
Ntp10
s."
EndChar
StartChar: onesuperior
Encoding: 354 185 354
GlifName: onesuperior
Width: 1300
VWidth: 0
Flags: W
LayerCount: 2
Fore
SplineSet
148 720 m 257,0,-1
 162 800 l 257,1,-1
 284 800 l 257,2,-1
 369 1283 l 257,3,-1
 418 1396 l 257,4,-1
 334 1303 l 257,5,-1
 211 1209 l 257,6,-1
 168 1270 l 257,7,-1
 434 1480 l 257,8,-1
 502 1470 l 257,9,-1
 384 800 l 257,10,-1
 507 800 l 257,11,-1
 493 720 l 257,12,-1
 148 720 l 257,0,-1
EndSplineSet
EndChar
StartChar: ordmasculine
Encoding: 357 186 357
GlifName: ordmasculine
Width: 1300
VWidth: 0
Flags: W
LayerCount: 2
Fore
SplineSet
241 800 m 257,0,-1
 641 800 l 257,1,-1
 623 700 l 257,2,-1
 223 700 l 257,3,-1
 241 800 l 257,0,-1
426 950 m 257,4,5
 377 950 377 950 336 967.5 c 128,-1,6
 295 985 295 985 266 1017 c 128,-1,7
 237 1049 237 1049 221 1094.5 c 128,-1,8
 205 1140 205 1140 205 1195 c 257,9,10
 205 1267 205 1267 227 1326 c 128,-1,11
 249 1385 249 1385 289 1427.5 c 128,-1,12
 329 1470 329 1470 384 1493.5 c 128,-1,13
 439 1517 439 1517 506 1517 c 257,14,15
 557 1517 557 1517 598.5 1500.5 c 128,-1,16
 640 1484 640 1484 669.5 1453 c 128,-1,17
 699 1422 699 1422 715 1376.5 c 128,-1,18
 731 1331 731 1331 731 1274 c 257,19,20
 731 1200 731 1200 709.5 1140 c 128,-1,21
 688 1080 688 1080 648.5 1038 c 128,-1,22
 609 996 609 996 553 973 c 128,-1,23
 497 950 497 950 426 950 c 257,4,5
639 1270 m 257,24,25
 639 1307 639 1307 630 1338.5 c 128,-1,26
 621 1370 621 1370 603 1392.5 c 128,-1,27
 585 1415 585 1415 558.5 1427.5 c 128,-1,28
 532 1440 532 1440 496 1440 c 257,29,30
 463 1440 463 1440 435.5 1430.5 c 128,-1,31
 408 1421 408 1421 386 1404 c 128,-1,32
 364 1387 364 1387 347 1363.5 c 128,-1,33
 330 1340 330 1340 319 1313.5 c 128,-1,34
 308 1287 308 1287 302 1257.5 c 128,-1,35
 296 1228 296 1228 296 1199 c 257,36,37
 296 1161 296 1161 304.5 1129.5 c 128,-1,38
 313 1098 313 1098 330.5 1075.5 c 128,-1,39
 348 1053 348 1053 374 1040.5 c 128,-1,40
 400 1028 400 1028 436 1028 c 257,41,42
 468 1028 468 1028 495.5 1037.5 c 128,-1,43
 523 1047 523 1047 545.5 1064.5 c 128,-1,44
 568 1082 568 1082 585.5 1105 c 128,-1,45
 603 1128 603 1128 615 1155 c 128,-1,46
 627 1182 627 1182 633 1211.5 c 128,-1,47
 639 1241 639 1241 639 1270 c 257,24,25
EndSplineSet
EndChar
StartChar: guillemotright
Encoding: 272 187 272
GlifName: guillemotright
Width: 1300
VWidth: 0
Flags: W
LayerCount: 2
Fore
SplineSet
708 617 m 257,0,-1
 684 478 l 257,1,-1
 143 66 l 257,2,-1
NamedP: "av01"
 113 201 l 257,3,-1
 492 490 l 257,4,-1
 639 550 l 257,5,-1
NamedP: "iv01"
 512 610 l 257,6,-1
 238 901 l 257,7,-1
 310 1026 l 257,8,-1
NamedP: "at01"
 708 617 l 257,0,-1
1208 617 m 257,9,-1
 1184 478 l 257,10,-1
 643 66 l 257,11,-1
NamedP: "av02"
 613 201 l 257,12,-1
 992 490 l 257,13,-1
 1139 550 l 257,14,-1
NamedP: "iv02"
 1012 610 l 257,15,-1
 738 901 l 257,16,-1
 810 1026 l 257,17,-1
NamedP: "at02"
 1208 617 l 257,9,-1
EndSplineSet
PickledDataWithLists: "(dp0
Vcom.fontlab.ttprogram
p1
(c_codecs
encode
p2
(Vdata
p3
Vlatin1
p4
tp5
Rp6
g2
(V<data>\\u000a        <ttProgram>\\u000a          <ttc align=\"round\" code=\"alignv\" point=\"av01\"/>\\u000a          <ttc code=\"alignt\" point=\"at01\" zone=\"t: x\"/>\\u000a          <ttc code=\"interpolatev\" point=\"iv01\" point1=\"av01\" point2=\"at01\"/>\\u000a          <ttc align=\"round\" code=\"alignv\" point=\"av02\"/>\\u000a          <ttc code=\"alignt\" point=\"at02\" zone=\"t: x\"/>\\u000a          <ttc code=\"interpolatev\" point=\"iv02\" point1=\"av02\" point2=\"at02\"/>\\u000a        </ttProgram>\\u000a      </data>
p7
g4
tp8
Rp9
Ntp10
s."
EndChar
StartChar: onehalf
Encoding: 351 189 351
GlifName: onehalf
Width: 1300
VWidth: 0
Flags: W
LayerCount: 2
Fore
SplineSet
354 0 m 257,0,-1
 219 0 l 257,1,-1
 994 1500 l 257,2,-1
 1120 1500 l 257,3,-1
 354 0 l 257,0,-1
46 720 m 257,4,-1
 60 800 l 257,5,-1
 182 800 l 257,6,-1
 267 1283 l 257,7,-1
 316 1396 l 257,8,-1
 232 1303 l 257,9,-1
 109 1209 l 257,10,-1
 66 1270 l 257,11,-1
 332 1480 l 257,12,-1
 400 1470 l 257,13,-1
 282 800 l 257,14,-1
 405 800 l 257,15,-1
 391 720 l 257,16,-1
 46 720 l 257,4,-1
708 0 m 257,17,-1
 723 84 l 257,18,19
 757 133 757 133 793 173.5 c 128,-1,20
 829 214 829 214 865 248.5 c 128,-1,21
 901 283 901 283 936.5 312.5 c 128,-1,22
 972 342 972 342 1005 369 c 257,23,24
 1035 393 1035 393 1062 416.5 c 128,-1,25
 1089 440 1089 440 1109.5 463 c 128,-1,26
 1130 486 1130 486 1142 510.5 c 128,-1,27
 1154 535 1154 535 1154 561 c 257,28,29
 1154 588 1154 588 1147 609.5 c 128,-1,30
 1140 631 1140 631 1124.5 645.5 c 128,-1,31
 1109 660 1109 660 1084 668 c 128,-1,32
 1059 676 1059 676 1022 676 c 257,33,34
 998 676 998 676 978 667.5 c 128,-1,35
 958 659 958 659 941 645.5 c 128,-1,36
 924 632 924 632 910 615 c 128,-1,37
 896 598 896 598 886 580 c 257,38,-1
 821 610 l 257,39,40
 854 681 854 681 913 719.5 c 128,-1,41
 972 758 972 758 1049 758 c 257,42,43
 1054 758 1054 758 1058.5 758 c 128,-1,44
 1063 758 1063 758 1068 758 c 257,45,46
 1114 755 1114 755 1147 737.5 c 128,-1,47
 1180 720 1180 720 1202 693 c 128,-1,48
 1224 666 1224 666 1234.5 632.5 c 128,-1,49
 1245 599 1245 599 1245 564 c 257,50,51
 1245 561 1245 561 1244.5 558 c 128,-1,52
 1244 555 1244 555 1244 552 c 257,53,54
 1242 512 1242 512 1223.5 478 c 128,-1,55
 1205 444 1205 444 1178 413.5 c 128,-1,56
 1151 383 1151 383 1119 356 c 128,-1,57
 1087 329 1087 329 1059 303 c 257,58,59
 1023 271 1023 271 990.5 242.5 c 128,-1,60
 958 214 958 214 930.5 187 c 128,-1,61
 903 160 903 160 880 133.5 c 128,-1,62
 857 107 857 107 839 80 c 257,63,-1
 1174 80 l 257,64,-1
 1160 0 l 257,65,-1
 708 0 l 257,17,-1
EndSplineSet
EndChar
StartChar: threequarters
Encoding: 525 190 525
GlifName: threequarters
Width: 1300
VWidth: 0
Flags: W
LayerCount: 2
Fore
SplineSet
354 0 m 257,0,-1
 219 0 l 257,1,-1
 994 1500 l 257,2,-1
 1120 1500 l 257,3,-1
 354 0 l 257,0,-1
1206 150 m 257,4,-1
 1116 150 l 257,5,-1
 1090 0 l 257,6,-1
 990 0 l 257,7,-1
 1016 150 l 257,8,-1
 719 150 l 257,9,-1
 734 235 l 257,10,-1
 1069 760 l 257,11,-1
 1161 750 l 257,12,-1
 874 300 l 257,13,-1
 816 230 l 257,14,-1
 1031 230 l 257,15,-1
 1066 433 l 257,16,-1
 1165 425 l 257,17,-1
 1131 230 l 257,18,-1
 1228 230 l 257,19,-1
 1206 150 l 257,4,-1
185 1390 m 257,20,-1
 207 1470 l 257,21,-1
 572 1470 l 257,22,-1
 559 1400 l 257,23,24
 550 1380 550 1380 532 1358 c 128,-1,25
 514 1336 514 1336 490.5 1314 c 128,-1,26
 467 1292 467 1292 440.5 1270.5 c 128,-1,27
 414 1249 414 1249 388 1229 c 257,28,-1
 315 1194 l 257,29,-1
 351 1194 l 257,30,31
 384 1194 384 1194 417 1181.5 c 128,-1,32
 450 1169 450 1169 476 1146 c 128,-1,33
 502 1123 502 1123 518 1090.5 c 128,-1,34
 534 1058 534 1058 534 1018 c 257,35,36
 534 962 534 962 513.5 918 c 128,-1,37
 493 874 493 874 458.5 841 c 128,-1,38
 424 808 424 808 377.5 785 c 128,-1,39
 331 762 331 762 278.5 747.5 c 128,-1,40
 226 733 226 733 169.5 726.5 c 128,-1,41
 113 720 113 720 60 720 c 257,42,-1
 74 800 l 257,43,44
 113 800 113 800 155 806 c 128,-1,45
 197 812 197 812 236.5 823.5 c 128,-1,46
 276 835 276 835 311.5 851 c 128,-1,47
 347 867 347 867 373.5 888 c 128,-1,48
 400 909 400 909 415.5 935 c 128,-1,49
 431 961 431 961 431 991 c 257,50,51
 431 1023 431 1023 419.5 1046.5 c 128,-1,52
 408 1070 408 1070 387 1085 c 128,-1,53
 366 1100 366 1100 337 1107.5 c 128,-1,54
 308 1115 308 1115 273 1115 c 257,55,56
 250 1115 250 1115 228.5 1114.5 c 128,-1,57
 207 1114 207 1114 186 1113 c 257,58,-1
 200 1190 l 257,59,60
 223 1205 223 1205 250.5 1224 c 128,-1,61
 278 1243 278 1243 306.5 1263.5 c 128,-1,62
 335 1284 335 1284 362 1305.5 c 128,-1,63
 389 1327 389 1327 412 1346 c 128,-1,64
 435 1365 435 1365 451 1382 c 128,-1,65
 467 1399 467 1399 473 1410 c 257,66,-1
 393 1390 l 257,67,-1
 185 1390 l 257,20,-1
EndSplineSet
EndChar
StartChar: questiondown
Encoding: 394 191 394
GlifName: questiondown
Width: 1300
VWidth: 0
Flags: W
LayerCount: 2
Fore
SplineSet
573 -16 m 257,0,1
 485 -16 485 -16 414.5 8 c 128,-1,2
 344 32 344 32 295 76 c 128,-1,3
 246 120 246 120 220 183.5 c 128,-1,4
 194 247 194 247 194 325 c 257,5,6
 194 396 194 396 214.5 449.5 c 128,-1,7
 235 503 235 503 269.5 546 c 128,-1,8
 304 589 304 589 348 624 c 128,-1,9
 392 659 392 659 439 692.5 c 128,-1,10
 486 726 486 726 532.5 761 c 128,-1,11
 579 796 579 796 617 837.5 c 128,-1,12
 655 879 655 879 681.5 931 c 128,-1,13
 708 983 708 983 716 1051 c 257,14,-1
 930 1072 l 257,15,16
 921 981 921 981 893 913 c 128,-1,17
 865 845 865 845 826.5 792.5 c 128,-1,18
 788 740 788 740 741.5 700 c 128,-1,19
 695 660 695 660 648 626.5 c 128,-1,20
 601 593 601 593 556.5 562.5 c 128,-1,21
 512 532 512 532 478 498 c 128,-1,22
 444 464 444 464 423.5 423 c 128,-1,23
 403 382 403 382 403 328 c 257,24,25
 403 282 403 282 419.5 248 c 128,-1,26
 436 214 436 214 466 192.5 c 128,-1,27
 496 171 496 171 537 160.5 c 128,-1,28
 578 150 578 150 627 150 c 257,29,30
 676 150 676 150 717.5 158 c 128,-1,31
 759 166 759 166 797 184.5 c 128,-1,32
 835 203 835 203 872.5 234 c 128,-1,33
 910 265 910 265 951 311 c 257,34,-1
 1064 201 l 257,35,36
 1015 138 1015 138 957 96.5 c 128,-1,37
 899 55 899 55 836 30 c 128,-1,38
 773 5 773 5 706.5 -5.5 c 128,-1,39
 640 -16 640 -16 573 -16 c 257,0,1
1003 1396 m 257,40,41
 1003 1373 1003 1373 992.5 1351.5 c 128,-1,42
 982 1330 982 1330 965 1313 c 128,-1,43
 948 1296 948 1296 925 1286 c 128,-1,44
 902 1276 902 1276 878 1276 c 257,45,46
 824 1276 824 1276 794.5 1309.5 c 128,-1,47
 765 1343 765 1343 765 1396 c 257,48,49
 765 1419 765 1419 774 1440.5 c 128,-1,50
 783 1462 783 1462 799 1479.5 c 128,-1,51
 815 1497 815 1497 837 1507.5 c 128,-1,52
 859 1518 859 1518 884 1518 c 257,53,54
 940 1518 940 1518 971.5 1484 c 128,-1,55
 1003 1450 1003 1450 1003 1396 c 257,40,41
EndSplineSet
EndChar
StartChar: Igrave
Encoding: 35 204 35
GlifName: I_grave
Width: 1300
VWidth: 0
Flags: W
LayerCount: 2
Fore
SplineSet
338 1500 m 257,0,-1
NamedP: "at01"
 1238 1500 l 257,1,-1
NamedP: "sv01"
 1210 1340 l 257,2,-1
 852 1340 l 257,3,-1
 643 160 l 257,4,-1
 1021 160 l 257,5,-1
 973 0 l 257,6,-1
NamedP: "sv02"
 73 0 l 257,7,-1
NamedP: "ab01"
 101 160 l 257,8,-1
 457 160 l 257,9,-1
 666 1340 l 257,10,-1
 290 1340 l 257,11,-1
 338 1500 l 257,0,-1
NamedP: "at01"
929 1600 m 257,12,-1
NamedP: "ah01"
 779 1600 l 257,13,-1
NamedP: "sh01"
 607 1900 l 257,14,-1
 815 1920 l 257,15,-1
NamedP: "at02"
 929 1600 l 257,12,-1
NamedP: "ah01"
EndSplineSet
PickledDataWithLists: "(dp0
Vcom.fontlab.ttprogram
p1
(c_codecs
encode
p2
(Vdata
p3
Vlatin1
p4
tp5
Rp6
g2
(V<data>\\u000a        <ttProgram>\\u000a          <ttc code=\"alignt\" point=\"at01\" zone=\"t: 1\"/>\\u000a          <ttc code=\"alignb\" point=\"ab01\" zone=\"b: 0\"/>\\u000a          <ttc code=\"singlev\" point1=\"at01\" point2=\"sv01\"/>\\u000a          <ttc code=\"singlev\" point1=\"ab01\" point2=\"sv02\"/>\\u000a          <ttc align=\"round\" code=\"alignh\" point=\"ah01\"/>\\u000a          <ttc code=\"singleh\" point1=\"ah01\" point2=\"sh01\" stem=\"X: ecart du B\"/>\\u000a          <ttc align=\"round\" code=\"alignv\" point=\"ah01\"/>\\u000a          <ttc code=\"alignt\" point=\"at02\" zone=\"t: 1\"/>\\u000a        </ttProgram>\\u000a      </data>
p7
g4
tp8
Rp9
Ntp10
s."
EndChar
StartChar: Eth
Encoding: 24 208 24
GlifName: E_th
Width: 1300
VWidth: 0
Flags: W
LayerCount: 2
Fore
SplineSet
50 856 m 257,0,-1
 649 856 l 257,1,-1
 622 701 l 257,2,-1
 23 701 l 257,3,-1
 50 856 l 257,0,-1
294 1500 m 257,4,5
 325 1503 325 1503 366 1505 c 128,-1,6
 407 1507 407 1507 450.5 1508.5 c 128,-1,7
 494 1510 494 1510 536 1510.5 c 128,-1,8
 578 1511 578 1511 611 1511 c 257,9,10
 756 1511 756 1511 870.5 1479 c 128,-1,11
 985 1447 985 1447 1064.5 1377.5 c 128,-1,12
 1144 1308 1144 1308 1186 1198.5 c 128,-1,13
 1228 1089 1228 1089 1228 933 c 257,14,15
 1228 772 1228 772 1194.5 640.5 c 128,-1,16
 1161 509 1161 509 1100.5 405.5 c 128,-1,17
 1040 302 1040 302 956.5 225.5 c 128,-1,18
 873 149 873 149 774 99 c 128,-1,19
 675 49 675 49 563.5 24.5 c 128,-1,20
 452 0 452 0 336 0 c 257,21,-1
 60 0 l 257,22,-1
 287 1290 l 257,23,-1
 294 1500 l 257,4,5
462 1150 m 257,24,25
 450 1083 450 1083 427 953 c 257,26,27
 417 897 417 897 404 822 c 128,-1,28
 391 747 391 747 374 649.5 c 128,-1,29
 357 552 357 552 335.5 430.5 c 128,-1,30
 314 309 314 309 288 160 c 257,31,-1
 308 160 l 257,32,33
 451 160 451 160 561 193 c 128,-1,34
 671 226 671 226 752.5 283 c 128,-1,35
 834 340 834 340 889 416.5 c 128,-1,36
 944 493 944 493 977 580 c 128,-1,37
 1010 667 1010 667 1024.5 761 c 128,-1,38
 1039 855 1039 855 1039 946 c 257,39,40
 1039 1036 1039 1036 1016.5 1112 c 128,-1,41
 994 1188 994 1188 940.5 1242.5 c 128,-1,42
 887 1297 887 1297 799 1327.5 c 128,-1,43
 711 1358 711 1358 580 1358 c 257,44,45
 564 1358 564 1358 546 1357 c 128,-1,46
 528 1356 528 1356 511 1354 c 257,47,48
 492 1352 492 1352 473 1350 c 257,49,-1
 462 1150 l 257,24,25
EndSplineSet
EndChar
StartChar: Ntilde
Encoding: 46 209 46
GlifName: N_tilde
Width: 1300
VWidth: 0
Flags: W
LayerCount: 2
Fore
SplineSet
817 0 m 257,0,-1
 490 948 l 257,1,-1
 403 1361 l 257,2,-1
 397 1360 l 257,3,-1
 385 920 l 257,4,-1
 222 0 l 257,5,-1
 42 0 l 257,6,-1
NamedP: "ab01"
 270 1290 l 257,7,-1
 277 1500 l 257,8,-1
NamedP: "at01"
 482 1520 l 257,9,-1
NamedP: "at02"
 808 557 l 257,10,-1
 900 140 l 257,11,-1
 906 141 l 257,12,-1
 905 580 l 257,13,-1
 1067 1500 l 257,14,-1
NamedP: "sv01"
 1251 1520 l 257,15,-1
NamedP: "at03"
 982 0 l 257,16,-1
NamedP: "sv02"
 817 0 l 257,0,-1
535 1655 m 257,17,18
 547 1710 547 1710 571 1751 c 128,-1,19
 595 1792 595 1792 625 1818.5 c 128,-1,20
 655 1845 655 1845 688.5 1856.5 c 128,-1,21
 722 1868 722 1868 754 1864 c 257,22,23
 793 1858 793 1858 824 1843.5 c 128,-1,24
 855 1829 855 1829 883.5 1813.5 c 128,-1,25
 912 1798 912 1798 939.5 1786 c 128,-1,26
 967 1774 967 1774 998 1774 c 257,27,28
 1026 1774 1026 1774 1045.5 1784.5 c 128,-1,29
 1065 1795 1065 1795 1078 1811 c 128,-1,30
 1091 1827 1091 1827 1098 1845.5 c 128,-1,31
 1105 1864 1105 1864 1109 1881 c 257,32,-1
 1204 1878 l 257,33,34
 1198 1830 1198 1830 1175 1785.5 c 128,-1,35
 1152 1741 1152 1741 1119.5 1709 c 128,-1,36
 1087 1677 1087 1677 1047.5 1660.5 c 128,-1,37
 1008 1644 1008 1644 969 1651 c 257,38,39
 941 1656 941 1656 913 1672.5 c 128,-1,40
 885 1689 885 1689 855.5 1706 c 128,-1,41
 826 1723 826 1723 794 1734 c 128,-1,42
 762 1745 762 1745 726 1740 c 257,43,44
 688 1735 688 1735 661.5 1716 c 128,-1,45
 635 1697 635 1697 620 1652 c 257,46,-1
 535 1655 l 257,17,18
EndSplineSet
PickledDataWithLists: "(dp0
Vcom.fontlab.ttprogram
p1
(c_codecs
encode
p2
(Vdata
p3
Vlatin1
p4
tp5
Rp6
g2
(V<data>\\u000a        <ttProgram>\\u000a          <ttc code=\"alignt\" point=\"at01\" zone=\"t: 1\"/>\\u000a          <ttc code=\"alignt\" point=\"at02\" zone=\"t: 1\"/>\\u000a          <ttc code=\"alignt\" point=\"at03\" zone=\"t: 1\"/>\\u000a          <ttc code=\"alignb\" point=\"ab01\" zone=\"b: 0\"/>\\u000a          <ttc code=\"singlev\" point1=\"at01\" point2=\"sv01\"/>\\u000a          <ttc code=\"singlev\" point1=\"ab01\" point2=\"sv02\"/>\\u000a        </ttProgram>\\u000a      </data>
p7
g4
tp8
Rp9
Ntp10
s."
EndChar
StartChar: Otilde
Encoding: 58 213 58
GlifName: O_tilde
Width: 1300
VWidth: 0
Flags: W
LayerCount: 2
Fore
SplineSet
488 -17 m 257,0,1
NamedP: "ab01"
 398 -17 398 -17 327 10.5 c 128,-1,2
 256 38 256 38 204 88.5 c 128,-1,3
 152 139 152 139 118 209 c 128,-1,4
 84 279 84 279 68 364.5 c 128,-1,5
 52 450 52 450 53.5 547.5 c 128,-1,6
 55 645 55 645 74 750 c 257,7,8
 92 855 92 855 124.5 952.5 c 128,-1,9
 157 1050 157 1050 202.5 1135.5 c 128,-1,10
 248 1221 248 1221 305.5 1291 c 128,-1,11
 363 1361 363 1361 433 1411.5 c 128,-1,12
 503 1462 503 1462 585 1489.5 c 128,-1,13
 667 1517 667 1517 759 1517 c 257,14,15
NamedP: "at01"
 849 1517 849 1517 920 1489.5 c 128,-1,16
 991 1462 991 1462 1043 1411.5 c 128,-1,17
 1095 1361 1095 1361 1129 1291 c 128,-1,18
 1163 1221 1163 1221 1179 1135.5 c 128,-1,19
 1195 1050 1195 1050 1193.5 952.5 c 128,-1,20
 1192 855 1192 855 1174 750 c 257,21,22
 1155 645 1155 645 1122.5 547.5 c 128,-1,23
 1090 450 1090 450 1045 364.5 c 128,-1,24
 1000 279 1000 279 942 209 c 128,-1,25
 884 139 884 139 814 88.5 c 128,-1,26
 744 38 744 38 662 10.5 c 128,-1,27
 580 -17 580 -17 488 -17 c 257,0,1
NamedP: "ab01"
960 719 m 257,28,29
 972 789 972 789 980.5 862 c 128,-1,30
 989 935 989 935 988 1004.5 c 128,-1,31
 987 1074 987 1074 973.5 1135.5 c 128,-1,32
 960 1197 960 1197 929.5 1242.5 c 128,-1,33
 899 1288 899 1288 848.5 1315 c 128,-1,34
 798 1342 798 1342 722 1342 c 257,35,36
 650 1342 650 1342 593 1318 c 128,-1,37
 536 1294 536 1294 491 1252.5 c 128,-1,38
 446 1211 446 1211 413 1155.5 c 128,-1,39
 380 1100 380 1100 355.5 1038 c 128,-1,40
 331 976 331 976 315 911 c 128,-1,41
 299 846 299 846 288 785 c 257,42,43
 275 714 275 714 267 640 c 128,-1,44
 259 566 259 566 260 496.5 c 128,-1,45
 261 427 261 427 274 365.5 c 128,-1,46
 287 304 287 304 317.5 258 c 128,-1,47
 348 212 348 212 398.5 185 c 128,-1,48
 449 158 449 158 525 158 c 257,49,50
 596 158 596 158 653 182.5 c 128,-1,51
 710 207 710 207 755 249.5 c 128,-1,52
 800 292 800 292 833.5 347.5 c 128,-1,53
 867 403 867 403 891.5 465.5 c 128,-1,54
 916 528 916 528 932.5 593 c 128,-1,55
 949 658 949 658 960 719 c 257,28,29
516 1655 m 257,56,57
 528 1710 528 1710 552 1751 c 128,-1,58
 576 1792 576 1792 606 1818.5 c 128,-1,59
 636 1845 636 1845 669.5 1856.5 c 128,-1,60
 703 1868 703 1868 735 1864 c 257,61,62
 774 1858 774 1858 805 1843.5 c 128,-1,63
 836 1829 836 1829 864.5 1813.5 c 128,-1,64
 893 1798 893 1798 920.5 1786 c 128,-1,65
 948 1774 948 1774 979 1774 c 257,66,67
 1007 1774 1007 1774 1026.5 1784.5 c 128,-1,68
 1046 1795 1046 1795 1059 1811 c 128,-1,69
 1072 1827 1072 1827 1079 1845.5 c 128,-1,70
 1086 1864 1086 1864 1090 1881 c 257,71,-1
 1185 1878 l 257,72,73
 1179 1830 1179 1830 1156 1785.5 c 128,-1,74
 1133 1741 1133 1741 1100.5 1709 c 128,-1,75
 1068 1677 1068 1677 1028.5 1660.5 c 128,-1,76
 989 1644 989 1644 950 1651 c 257,77,78
 922 1656 922 1656 894 1672.5 c 128,-1,79
 866 1689 866 1689 836.5 1706 c 128,-1,80
 807 1723 807 1723 775 1734 c 128,-1,81
 743 1745 743 1745 707 1740 c 257,82,83
 669 1735 669 1735 642.5 1716 c 128,-1,84
 616 1697 616 1697 601 1652 c 257,85,-1
 516 1655 l 257,56,57
EndSplineSet
PickledDataWithLists: "(dp0
Vcom.fontlab.ttprogram
p1
(c_codecs
encode
p2
(Vdata
p3
Vlatin1
p4
tp5
Rp6
g2
(V<data>\\u000a        <ttProgram>\\u000a          <ttc code=\"alignt\" point=\"at01\" zone=\"t: 1\"/>\\u000a          <ttc code=\"alignb\" point=\"ab01\" zone=\"b: 0\"/>\\u000a        </ttProgram>\\u000a      </data>
p7
g4
tp8
Rp9
Ntp10
s."
EndChar
StartChar: Oslash
Encoding: 57 216 57
GlifName: O_slash
Width: 1300
VWidth: 0
Flags: W
LayerCount: 2
Fore
SplineSet
153 -100 m 257,0,-1
 -57 -100 l 257,1,-1
 1100 1600 l 257,2,-1
 1300 1600 l 257,3,-1
 153 -100 l 257,0,-1
488 -17 m 257,4,5
 398 -17 398 -17 327 10.5 c 128,-1,6
 256 38 256 38 204 88.5 c 128,-1,7
 152 139 152 139 118 209 c 128,-1,8
 84 279 84 279 68 364.5 c 128,-1,9
 52 450 52 450 53.5 547.5 c 128,-1,10
 55 645 55 645 74 750 c 257,11,12
 92 855 92 855 124.5 952.5 c 128,-1,13
 157 1050 157 1050 202.5 1135.5 c 128,-1,14
 248 1221 248 1221 305.5 1291 c 128,-1,15
 363 1361 363 1361 433 1411.5 c 128,-1,16
 503 1462 503 1462 585 1489.5 c 128,-1,17
 667 1517 667 1517 759 1517 c 257,18,19
 849 1517 849 1517 920 1489.5 c 128,-1,20
 991 1462 991 1462 1043 1411.5 c 128,-1,21
 1095 1361 1095 1361 1129 1291 c 128,-1,22
 1163 1221 1163 1221 1179 1135.5 c 128,-1,23
 1195 1050 1195 1050 1193.5 952.5 c 128,-1,24
 1192 855 1192 855 1174 750 c 257,25,26
 1155 645 1155 645 1122.5 547.5 c 128,-1,27
 1090 450 1090 450 1045 364.5 c 128,-1,28
 1000 279 1000 279 942 209 c 128,-1,29
 884 139 884 139 814 88.5 c 128,-1,30
 744 38 744 38 662 10.5 c 128,-1,31
 580 -17 580 -17 488 -17 c 257,4,5
960 719 m 257,32,33
 972 789 972 789 980.5 862 c 128,-1,34
 989 935 989 935 988 1004.5 c 128,-1,35
 987 1074 987 1074 973.5 1135.5 c 128,-1,36
 960 1197 960 1197 929.5 1242.5 c 128,-1,37
 899 1288 899 1288 848.5 1315 c 128,-1,38
 798 1342 798 1342 722 1342 c 257,39,40
 650 1342 650 1342 593 1318 c 128,-1,41
 536 1294 536 1294 491 1252.5 c 128,-1,42
 446 1211 446 1211 413 1155.5 c 128,-1,43
 380 1100 380 1100 355.5 1038 c 128,-1,44
 331 976 331 976 315 911 c 128,-1,45
 299 846 299 846 288 785 c 257,46,47
 275 714 275 714 267 640 c 128,-1,48
 259 566 259 566 260 496.5 c 128,-1,49
 261 427 261 427 274 365.5 c 128,-1,50
 287 304 287 304 317.5 258 c 128,-1,51
 348 212 348 212 398.5 185 c 128,-1,52
 449 158 449 158 525 158 c 257,53,54
 596 158 596 158 653 182.5 c 128,-1,55
 710 207 710 207 755 249.5 c 128,-1,56
 800 292 800 292 833.5 347.5 c 128,-1,57
 867 403 867 403 891.5 465.5 c 128,-1,58
 916 528 916 528 932.5 593 c 128,-1,59
 949 658 949 658 960 719 c 257,32,33
EndSplineSet
EndChar
StartChar: Udieresis
Encoding: 76 220 76
GlifName: U_dieresis
Width: 1300
VWidth: 0
Flags: W
LayerCount: 2
Fore
SplineSet
1226 1500 m 257,0,-1
NamedP: "sv01"
 1054 523 l 257,1,2
 1030 387 1030 387 980 285.5 c 128,-1,3
 930 184 930 184 856.5 117 c 128,-1,4
 783 50 783 50 688 16.5 c 128,-1,5
 593 -17 593 -17 479 -17 c 257,6,7
NamedP: "ab01"
 357 -17 357 -17 279.5 25.5 c 128,-1,8
 202 68 202 68 161.5 145.5 c 128,-1,9
 121 223 121 223 115.5 332 c 128,-1,10
 110 441 110 441 133 573 c 257,11,-1
 259 1290 l 257,12,-1
 266 1500 l 257,13,-1
NamedP: "at01"
 490 1520 l 257,14,-1
NamedP: "at02"
 320 554 l 257,15,16
 303 459 303 459 308.5 384.5 c 128,-1,17
 314 310 314 310 340 258.5 c 128,-1,18
 366 207 366 207 411 180 c 128,-1,19
 456 153 456 153 519 153 c 257,20,21
 666 153 666 153 748 240.5 c 128,-1,22
 830 328 830 328 861 504 c 257,23,-1
 1036 1500 l 257,24,-1
 1226 1500 l 257,0,-1
NamedP: "sv01"
495 1800 m 257,25,-1
 695 1800 l 257,26,-1
 660 1600 l 257,27,-1
 460 1600 l 257,28,-1
 495 1800 l 257,25,-1
895 1800 m 257,29,-1
 1095 1800 l 257,30,-1
 1060 1600 l 257,31,-1
 860 1600 l 257,32,-1
 895 1800 l 257,29,-1
EndSplineSet
PickledDataWithLists: "(dp0
Vcom.fontlab.ttprogram
p1
(c_codecs
encode
p2
(Vdata
p3
Vlatin1
p4
tp5
Rp6
g2
(V<data>\\u000a        <ttProgram>\\u000a          <ttc code=\"alignt\" point=\"at01\" zone=\"t: 1\"/>\\u000a          <ttc code=\"alignt\" point=\"at02\" zone=\"t: 1\"/>\\u000a          <ttc code=\"alignb\" point=\"ab01\" zone=\"b: 0\"/>\\u000a          <ttc code=\"singlev\" point1=\"at01\" point2=\"sv01\"/>\\u000a        </ttProgram>\\u000a      </data>
p7
g4
tp8
Rp9
Ntp10
s."
EndChar
StartChar: germandbls
Encoding: 266 223 266
GlifName: germandbls
Width: 1300
VWidth: 0
Flags: W
LayerCount: 2
Fore
SplineSet
950 1148 m 257,0,1
 956 1196 956 1196 942 1235.5 c 128,-1,2
 928 1275 928 1275 901.5 1304.5 c 128,-1,3
 875 1334 875 1334 840 1350.5 c 128,-1,4
 805 1367 805 1367 769 1369 c 257,5,6
 691 1372 691 1372 645 1356 c 128,-1,7
 599 1340 599 1340 567 1304 c 257,8,9
 539 1273 539 1273 524.5 1239 c 128,-1,10
 510 1205 510 1205 502 1160 c 257,11,-1
 295 -17 l 257,12,-1
NamedP: "ab01"
 100 0 l 257,13,-1
 295 1111 l 257,14,15
 329 1306 329 1306 453 1418 c 257,16,17
 481 1443 481 1443 510.5 1461.5 c 128,-1,18
 540 1480 540 1480 579.5 1492.5 c 128,-1,19
 619 1505 619 1505 671.5 1511 c 128,-1,20
 724 1517 724 1517 798 1517 c 257,21,22
NamedP: "at01"
 880 1517 880 1517 945.5 1490.5 c 128,-1,23
 1011 1464 1011 1464 1055.5 1417.5 c 128,-1,24
 1100 1371 1100 1371 1121 1307.5 c 128,-1,25
 1142 1244 1142 1244 1135 1169 c 257,26,27
NamedP: "iv02"
 1129 1106 1129 1106 1110.5 1058 c 128,-1,28
 1092 1010 1092 1010 1061.5 972.5 c 128,-1,29
 1031 935 1031 935 990 908 c 128,-1,30
 949 881 949 881 899 860 c 257,31,-1
 737 816 l 257,32,-1
NamedP: "iv01"
 882 802 l 257,33,34
 940 784 940 784 987.5 753.5 c 128,-1,35
 1035 723 1035 723 1066 680.5 c 128,-1,36
 1097 638 1097 638 1109.5 582.5 c 128,-1,37
 1122 527 1122 527 1111 460 c 257,38,39
NamedP: "iv03"
 1102 366 1102 366 1070 295.5 c 128,-1,40
 1038 225 1038 225 991 174 c 128,-1,41
 944 123 944 123 884.5 89.5 c 128,-1,42
 825 56 825 56 760 36 c 128,-1,43
 695 16 695 16 627.5 8 c 128,-1,44
 560 0 560 0 498 0 c 257,45,-1
NamedP: "ab02"
 466 160 l 257,46,47
 565 160 565 160 644 171.5 c 128,-1,48
 723 183 723 183 780.5 215 c 128,-1,49
 838 247 838 247 873 303.5 c 128,-1,50
 908 360 908 360 919 450 c 257,51,52
 936 591 936 591 852.5 660.5 c 128,-1,53
 769 730 769 730 606 730 c 257,54,-1
 564 885 l 257,55,56
 628 885 628 885 693 897.5 c 128,-1,57
 758 910 758 910 812 940.5 c 128,-1,58
 866 971 866 971 903.5 1021.5 c 128,-1,59
 941 1072 941 1072 950 1148 c 257,0,1
EndSplineSet
PickledDataWithLists: "(dp0
Vcom.fontlab.ttprogram
p1
(c_codecs
encode
p2
(Vdata
p3
Vlatin1
p4
tp5
Rp6
g2
(V<data>\\u000a        <ttProgram>\\u000a          <ttc code=\"alignt\" point=\"at01\" zone=\"t: 1\"/>\\u000a          <ttc code=\"alignb\" point=\"ab01\" zone=\"b: 0\"/>\\u000a          <ttc code=\"alignb\" point=\"ab02\" zone=\"b: 0\"/>\\u000a          <ttc code=\"interpolatev\" point=\"iv01\" point1=\"iv02\" point2=\"iv03\"/>\\u000a        </ttProgram>\\u000a      </data>
p7
g4
tp8
Rp9
Ntp10
s."
EndChar
StartChar: atilde
Encoding: 129 227 129
GlifName: atilde
Width: 1300
VWidth: 0
Flags: W
LayerCount: 2
Fore
SplineSet
927 930 m 257,0,1
 909 938 909 938 883.5 944 c 128,-1,2
 858 950 858 950 835 953 c 257,3,4
 808 957 808 957 779 958 c 257,5,6
 677 958 677 958 601 923 c 128,-1,7
 525 888 525 888 472 827 c 128,-1,8
 419 766 419 766 388 685 c 128,-1,9
 357 604 357 604 346 512 c 257,10,11
 340 462 340 462 340 421 c 257,12,13
 340 352 340 352 354 300 c 128,-1,14
 368 248 368 248 393 213.5 c 128,-1,15
 418 179 418 179 451 161.5 c 128,-1,16
 484 144 484 144 523 144 c 257,17,18
 575 144 575 144 619 158 c 128,-1,19
 663 172 663 172 699.5 195 c 128,-1,20
 736 218 736 218 766.5 247 c 128,-1,21
 797 276 797 276 821 306 c 257,22,-1
 927 930 l 257,0,1
768 0 m 257,23,-1
NamedP: "ab02"
 796 162 l 257,24,-1
 681 49 l 257,25,26
 660 32 660 32 639.5 19.5 c 128,-1,27
 619 7 619 7 594.5 -1 c 128,-1,28
 570 -9 570 -9 538 -13 c 128,-1,29
 506 -17 506 -17 462 -17 c 257,30,31
NamedP: "ab01"
 391 -17 391 -17 335 15 c 128,-1,32
 279 47 279 47 240 104.5 c 128,-1,33
 201 162 201 162 180.5 242 c 128,-1,34
 160 322 160 322 160 419 c 257,35,36
 160 447 160 447 161.5 476.5 c 128,-1,37
 163 506 163 506 167 536 c 257,38,39
 180 647 180 647 225 751.5 c 128,-1,40
 270 856 270 856 348.5 937 c 128,-1,41
 427 1018 427 1018 539.5 1067.5 c 128,-1,42
 652 1117 652 1117 800 1117 c 257,43,44
NamedP: "av01"
 884 1117 884 1117 970 1103 c 128,-1,45
 1056 1089 1056 1089 1133 1063 c 257,46,-1
 981 180 l 257,47,-1
 970 0 l 257,48,-1
NamedP: "sv01"
 768 0 l 257,23,-1
NamedP: "ab02"
528 1275 m 257,49,50
 540 1330 540 1330 564 1371 c 128,-1,51
 588 1412 588 1412 618 1438.5 c 128,-1,52
 648 1465 648 1465 681.5 1476.5 c 128,-1,53
 715 1488 715 1488 747 1484 c 257,54,55
 786 1478 786 1478 817 1463.5 c 128,-1,56
 848 1449 848 1449 876.5 1433.5 c 128,-1,57
 905 1418 905 1418 932.5 1406 c 128,-1,58
 960 1394 960 1394 991 1394 c 257,59,60
 1019 1394 1019 1394 1038.5 1404.5 c 128,-1,61
 1058 1415 1058 1415 1071 1431 c 128,-1,62
 1084 1447 1084 1447 1091 1465.5 c 128,-1,63
 1098 1484 1098 1484 1102 1501 c 257,64,-1
 1197 1498 l 257,65,66
 1191 1450 1191 1450 1168 1405.5 c 128,-1,67
 1145 1361 1145 1361 1112.5 1329 c 128,-1,68
 1080 1297 1080 1297 1040.5 1280.5 c 128,-1,69
 1001 1264 1001 1264 962 1271 c 257,70,71
 934 1276 934 1276 906 1292.5 c 128,-1,72
 878 1309 878 1309 848.5 1326 c 128,-1,73
 819 1343 819 1343 787 1354 c 128,-1,74
 755 1365 755 1365 719 1360 c 257,75,76
 681 1355 681 1355 654.5 1336 c 128,-1,77
 628 1317 628 1317 613 1272 c 257,78,-1
 528 1275 l 257,49,50
EndSplineSet
PickledDataWithLists: "(dp0
Vcom.fontlab.ttprogram
p1
(c_codecs
encode
p2
(Vdata
p3
Vlatin1
p4
tp5
Rp6
g2
(V<data>\\u000a        <ttProgram>\\u000a          <ttc align=\"round\" code=\"alignv\" point=\"av01\"/>\\u000a          <ttc code=\"alignb\" point=\"ab01\" zone=\"b: 0\"/>\\u000a          <ttc code=\"alignb\" point=\"ab02\" zone=\"b: 0\"/>\\u000a          <ttc code=\"singlev\" point1=\"ab02\" point2=\"sv01\"/>\\u000a        </ttProgram>\\u000a      </data>
p7
g4
tp8
Rp9
Ntp10
s."
EndChar
StartChar: aring
Encoding: 102 229 102
GlifName: aring
Width: 1300
VWidth: 0
Flags: W
LayerCount: 2
Fore
SplineSet
927 930 m 257,0,1
 909 938 909 938 883.5 944 c 128,-1,2
 858 950 858 950 835 953 c 257,3,4
 808 957 808 957 779 958 c 257,5,6
 677 958 677 958 601 923 c 128,-1,7
 525 888 525 888 472 827 c 128,-1,8
 419 766 419 766 388 685 c 128,-1,9
 357 604 357 604 346 512 c 257,10,11
 340 462 340 462 340 421 c 257,12,13
 340 352 340 352 354 300 c 128,-1,14
 368 248 368 248 393 213.5 c 128,-1,15
 418 179 418 179 451 161.5 c 128,-1,16
 484 144 484 144 523 144 c 257,17,18
 575 144 575 144 619 158 c 128,-1,19
 663 172 663 172 699.5 195 c 128,-1,20
 736 218 736 218 766.5 247 c 128,-1,21
 797 276 797 276 821 306 c 257,22,-1
 927 930 l 257,0,1
768 0 m 257,23,-1
NamedP: "ab02"
 796 162 l 257,24,-1
 681 49 l 257,25,26
 660 32 660 32 639.5 19.5 c 128,-1,27
 619 7 619 7 594.5 -1 c 128,-1,28
 570 -9 570 -9 538 -13 c 128,-1,29
 506 -17 506 -17 462 -17 c 257,30,31
NamedP: "ab01"
 391 -17 391 -17 335 15 c 128,-1,32
 279 47 279 47 240 104.5 c 128,-1,33
 201 162 201 162 180.5 242 c 128,-1,34
 160 322 160 322 160 419 c 257,35,36
 160 447 160 447 161.5 476.5 c 128,-1,37
 163 506 163 506 167 536 c 257,38,39
 180 647 180 647 225 751.5 c 128,-1,40
 270 856 270 856 348.5 937 c 128,-1,41
 427 1018 427 1018 539.5 1067.5 c 128,-1,42
 652 1117 652 1117 800 1117 c 257,43,44
NamedP: "av01"
 884 1117 884 1117 970 1103 c 128,-1,45
 1056 1089 1056 1089 1133 1063 c 257,46,-1
 981 180 l 257,47,-1
 970 0 l 257,48,-1
NamedP: "sv01"
 768 0 l 257,23,-1
NamedP: "ab02"
944 1636 m 257,49,50
NamedP: "av02"
 992 1628 992 1628 1029.5 1606.5 c 128,-1,51
 1067 1585 1067 1585 1092 1553.5 c 128,-1,52
 1117 1522 1117 1522 1129 1482.5 c 128,-1,53
 1141 1443 1141 1443 1139 1399 c 257,54,55
 1136 1342 1136 1342 1111.5 1296.5 c 128,-1,56
 1087 1251 1087 1251 1048.5 1219.5 c 128,-1,57
 1010 1188 1010 1188 961.5 1172 c 128,-1,58
 913 1156 913 1156 862 1158 c 257,59,60
NamedP: "av03"
 818 1159 818 1159 780.5 1179.5 c 128,-1,61
 743 1200 743 1200 716 1233 c 128,-1,62
 689 1266 689 1266 675 1309 c 128,-1,63
 661 1352 661 1352 664 1399 c 257,64,65
 667 1449 667 1449 691.5 1495.5 c 128,-1,66
 716 1542 716 1542 755 1576 c 128,-1,67
 794 1610 794 1610 843.5 1627 c 128,-1,68
 893 1644 893 1644 944 1636 c 257,49,50
NamedP: "av02"
881 1275 m 257,69,70
 905 1270 905 1270 930.5 1277 c 128,-1,71
 956 1284 956 1284 977.5 1300.5 c 128,-1,72
 999 1317 999 1317 1012 1342 c 128,-1,73
 1025 1367 1025 1367 1023 1398 c 257,74,75
 1020 1450 1020 1450 996.5 1479.5 c 128,-1,76
 973 1509 973 1509 923 1519 c 257,77,78
 897 1524 897 1524 871.5 1515.5 c 128,-1,79
 846 1507 846 1507 825.5 1489.5 c 128,-1,80
 805 1472 805 1472 792.5 1448 c 128,-1,81
 780 1424 780 1424 781 1398 c 257,82,83
 784 1296 784 1296 881 1275 c 257,69,70
EndSplineSet
PickledDataWithLists: "(dp0
Vcom.fontlab.ttprogram
p1
(c_codecs
encode
p2
(Vdata
p3
Vlatin1
p4
tp5
Rp6
g2
(V<data>\\u000a        <ttProgram>\\u000a          <ttc align=\"round\" code=\"alignv\" point=\"av01\"/>\\u000a          <ttc code=\"alignb\" point=\"ab01\" zone=\"b: 0\"/>\\u000a          <ttc code=\"alignb\" point=\"ab02\" zone=\"b: 0\"/>\\u000a          <ttc code=\"singlev\" point1=\"ab02\" point2=\"sv01\"/>\\u000a          <ttc align=\"round\" code=\"alignv\" point=\"av02\"/>\\u000a          <ttc align=\"round\" code=\"alignv\" point=\"av03\"/>\\u000a        </ttProgram>\\u000a      </data>
p7
g4
tp8
Rp9
Ntp10
s."
EndChar
StartChar: ae
Encoding: 95 230 95
GlifName: ae
Width: 1300
VWidth: 0
Flags: W
LayerCount: 2
Fore
SplineSet
1262 650 m 257,0,1
 1259 631 1259 631 1253.5 609.5 c 128,-1,2
 1248 588 1248 588 1241.5 567 c 128,-1,3
 1235 546 1235 546 1228.5 528 c 128,-1,4
 1222 510 1222 510 1216 500 c 257,5,-1
 736 500 l 257,6,7
 722 425 722 425 722 360 c 128,-1,8
 722 295 722 295 736 246.5 c 128,-1,9
 750 198 750 198 779 170.5 c 128,-1,10
 808 143 808 143 853 143 c 257,11,12
 891 143 891 143 923.5 152.5 c 128,-1,13
 956 162 956 162 981.5 175 c 128,-1,14
 1007 188 1007 188 1024 202 c 128,-1,15
 1041 216 1041 216 1049 225 c 257,16,-1
 1161 129 l 257,17,18
 1131 99 1131 99 1099.5 72.5 c 128,-1,19
 1068 46 1068 46 1029 26 c 128,-1,20
 990 6 990 6 940 -5.5 c 128,-1,21
 890 -17 890 -17 823 -17 c 257,22,23
 770 -17 770 -17 726.5 -0.5 c 128,-1,24
 683 16 683 16 650.5 44 c 128,-1,25
 618 72 618 72 598.5 109.5 c 128,-1,26
 579 147 579 147 574 189 c 257,27,28
 550 147 550 147 523.5 109.5 c 128,-1,29
 497 72 497 72 462.5 44 c 128,-1,30
 428 16 428 16 384 -0.5 c 128,-1,31
 340 -17 340 -17 281 -17 c 257,32,33
 213 -17 213 -17 158 6.5 c 128,-1,34
 103 30 103 30 67 75.5 c 128,-1,35
 31 121 31 121 17 188.5 c 128,-1,36
 3 256 3 256 18 344 c 257,37,38
 34 437 34 437 68 505.5 c 128,-1,39
 102 574 102 574 150 619.5 c 128,-1,40
 198 665 198 665 258.5 687.5 c 128,-1,41
 319 710 319 710 388 710 c 257,42,43
 426 710 426 710 454.5 704 c 128,-1,44
 483 698 483 698 501 690 c 257,45,46
 522 681 522 681 536 670 c 257,47,-1
 542 705 l 257,48,49
 552 764 552 764 558.5 811 c 128,-1,50
 565 858 565 858 559 890.5 c 128,-1,51
 553 923 553 923 530.5 940 c 128,-1,52
 508 957 508 957 461 957 c 257,53,54
 428 957 428 957 395.5 948 c 128,-1,55
 363 939 363 939 337 928 c 257,56,57
 306 916 306 916 279 900 c 257,58,-1
 227 1044 l 257,59,60
 272 1064 272 1064 324 1080 c 257,61,62
 369 1094 369 1094 426.5 1105.5 c 128,-1,63
 484 1117 484 1117 549 1117 c 257,64,65
 591 1117 591 1117 622 1104.5 c 128,-1,66
 653 1092 653 1092 673.5 1070.5 c 128,-1,67
 694 1049 694 1049 705 1021 c 128,-1,68
 716 993 716 993 720 962 c 257,69,70
 735 993 735 993 760.5 1021 c 128,-1,71
 786 1049 786 1049 822 1070.5 c 128,-1,72
 858 1092 858 1092 904 1104.5 c 128,-1,73
 950 1117 950 1117 1004 1117 c 257,74,75
 1101 1117 1101 1117 1161 1087 c 128,-1,76
 1221 1057 1221 1057 1250 998 c 128,-1,77
 1279 939 1279 939 1280.5 851.5 c 128,-1,78
 1282 764 1282 764 1262 650 c 257,0,1
512 533 m 257,79,80
 505 537 505 537 493 541 c 257,81,82
 482 544 482 544 465.5 547 c 128,-1,83
 449 550 449 550 426 550 c 257,84,85
 333 550 333 550 275.5 503.5 c 128,-1,86
 218 457 218 457 198 345 c 257,87,88
 190 300 190 300 192 263 c 128,-1,89
 194 226 194 226 208 199 c 128,-1,90
 222 172 222 172 249 157.5 c 128,-1,91
 276 143 276 143 317 143 c 257,92,93
 357 143 357 143 385 163 c 128,-1,94
 413 183 413 183 431 208 c 257,95,96
 452 237 452 237 466 274 c 257,97,-1
 512 533 l 257,79,80
1098 730 m 257,98,99
 1106 776 1106 776 1109 817.5 c 128,-1,100
 1112 859 1112 859 1103 890 c 128,-1,101
 1094 921 1094 921 1070.5 939 c 128,-1,102
 1047 957 1047 957 1002 957 c 257,103,104
 953 957 953 957 914.5 937.5 c 128,-1,105
 876 918 876 918 847.5 886.5 c 128,-1,106
 819 855 819 855 801 814.5 c 128,-1,107
 783 774 783 774 776 732 c 257,108,-1
 687 623 l 257,109,-1
 814 650 l 257,110,-1
 1084 650 l 257,111,-1
 1098 730 l 257,98,99
EndSplineSet
EndChar
StartChar: eth
Encoding: 240 240 240
GlifName: eth
Width: 1300
VWidth: 0
Flags: W
LayerCount: 2
Fore
SplineSet
545 1168 m 257,0,-1
 789 1347 l 257,1,-1
 666 1326 l 257,2,3
NamedP: "ih01"
 621 1352 621 1352 574.5 1365 c 128,-1,4
 528 1378 528 1378 474 1378 c 257,5,6
 461 1378 461 1378 451.5 1377 c 128,-1,7
 442 1376 442 1376 439 1375 c 257,8,-1
 439 1518 l 257,9,10
 456 1520 456 1520 471 1520 c 128,-1,11
 486 1520 486 1520 501 1520 c 257,12,13
NamedP: "at01"
 611 1520 611 1520 702.5 1490 c 128,-1,14
 794 1460 794 1460 868 1405 c 257,15,-1
 1027 1522 l 257,16,-1
 1104 1407 l 257,17,-1
 892 1252 l 257,18,-1
NamedP: "av02"
 1010 1255 l 257,19,20
NamedP: "sv01"
 1083 1124 1083 1124 1107 963 c 128,-1,21
 1131 802 1131 802 1119 620 c 257,22,23
 1115 563 1115 563 1094 490.5 c 128,-1,24
 1073 418 1073 418 1035.5 343.5 c 128,-1,25
 998 269 998 269 945.5 199 c 128,-1,26
 893 129 893 129 826 76.5 c 128,-1,27
 759 24 759 24 678.5 -3 c 128,-1,28
 598 -30 598 -30 506 -20 c 257,29,30
NamedP: "ab01"
 398 -8 398 -8 325 27 c 128,-1,31
 252 62 252 62 208 122 c 128,-1,32
 164 182 164 182 145.5 268 c 128,-1,33
 127 354 127 354 128 469 c 257,34,35
 128 544 128 544 150 609.5 c 128,-1,36
 172 675 172 675 209 728 c 128,-1,37
 246 781 246 781 296.5 821.5 c 128,-1,38
 347 862 347 862 404.5 888 c 128,-1,39
 462 914 462 914 525 924 c 128,-1,40
 588 934 588 934 650 927 c 257,41,42
NamedP: "av01"
 717 919 717 919 778.5 902 c 128,-1,43
 840 885 840 885 902 847 c 257,44,-1
 964 730 l 257,45,46
 965 804 965 804 956.5 872.5 c 128,-1,47
 948 941 948 941 930 1001 c 128,-1,48
 912 1061 912 1061 883 1110 c 128,-1,49
 854 1159 854 1159 814 1194 c 257,50,-1
 622 1053 l 257,51,-1
 545 1168 l 257,0,-1
921 607 m 257,52,53
NamedP: "ih03"
 902 630 902 630 872.5 655.5 c 128,-1,54
 843 681 843 681 806 703.5 c 128,-1,55
 769 726 769 726 726 743.5 c 128,-1,56
 683 761 683 761 637 767 c 257,57,58
NamedP: "ih04"
 565 777 565 777 505 754 c 128,-1,59
 445 731 445 731 401.5 686.5 c 128,-1,60
 358 642 358 642 333 580.5 c 128,-1,61
 308 519 308 519 305 451 c 257,62,63
NamedP: "ih02"
 300 314 300 314 359 237 c 128,-1,64
 418 160 418 160 533 140 c 257,65,66
 593 130 593 130 646 148.5 c 128,-1,67
 699 167 699 167 742.5 205.5 c 128,-1,68
 786 244 786 244 818.5 298 c 128,-1,69
 851 352 851 352 871 412 c 257,70,71
 889 468 889 468 900.5 513 c 128,-1,72
 912 558 912 558 921 607 c 257,52,53
NamedP: "ih03"
EndSplineSet
PickledDataWithLists: "(dp0
Vcom.fontlab.ttprogram
p1
(c_codecs
encode
p2
(Vdata
p3
Vlatin1
p4
tp5
Rp6
g2
(V<data>\\u000a        <ttProgram>\\u000a          <ttc code=\"interpolateh\" point=\"ih01\" point1=\"ih02\" point2=\"ih03\"/>\\u000a          <ttc code=\"interpolateh\" point=\"ih04\" point1=\"ih02\" point2=\"ih03\"/>\\u000a          <ttc align=\"round\" code=\"alignv\" point=\"av01\"/>\\u000a          <ttc align=\"round\" code=\"alignv\" point=\"av02\"/>\\u000a          <ttc code=\"alignt\" point=\"at01\" zone=\"t: 1\"/>\\u000a          <ttc code=\"alignb\" point=\"ab01\" zone=\"b: 0\"/>\\u000a          <ttc code=\"singlev\" point1=\"av02\" point2=\"sv01\"/>\\u000a        </ttProgram>\\u000a      </data>
p7
g4
tp8
Rp9
Ntp10
s."
EndChar
StartChar: otilde
Encoding: 359 245 359
GlifName: otilde
Width: 1300
VWidth: 0
Flags: W
LayerCount: 2
Fore
SplineSet
567 -17 m 257,0,1
NamedP: "ab01"
 468 -17 468 -17 386.5 18 c 128,-1,2
 305 53 305 53 246.5 117 c 128,-1,3
 188 181 188 181 156 271.5 c 128,-1,4
 124 362 124 362 124 473 c 257,5,6
 124 616 124 616 168.5 734.5 c 128,-1,7
 213 853 213 853 292.5 938 c 128,-1,8
 372 1023 372 1023 482.5 1070 c 128,-1,9
 593 1117 593 1117 726 1117 c 257,10,11
NamedP: "av01"
 828 1117 828 1117 911 1084 c 128,-1,12
 994 1051 994 1051 1053 988.5 c 128,-1,13
 1112 926 1112 926 1144 835.5 c 128,-1,14
 1176 745 1176 745 1176 631 c 257,15,16
 1176 482 1176 482 1133.5 362 c 128,-1,17
 1091 242 1091 242 1012 158 c 128,-1,18
 933 74 933 74 820.5 28.5 c 128,-1,19
 708 -17 708 -17 567 -17 c 257,0,1
NamedP: "ab01"
993 622 m 257,20,21
 993 697 993 697 975 759.5 c 128,-1,22
 957 822 957 822 921 867.5 c 128,-1,23
 885 913 885 913 831.5 938 c 128,-1,24
 778 963 778 963 706 963 c 257,25,26
 641 963 641 963 586 943.5 c 128,-1,27
 531 924 531 924 487 890 c 128,-1,28
 443 856 443 856 409 809.5 c 128,-1,29
 375 763 375 763 352.5 709.5 c 128,-1,30
 330 656 330 656 318.5 597 c 128,-1,31
 307 538 307 538 307 480 c 257,32,33
 307 405 307 405 324 342 c 128,-1,34
 341 279 341 279 375.5 233.5 c 128,-1,35
 410 188 410 188 462.5 163 c 128,-1,36
 515 138 515 138 586 138 c 257,37,38
 650 138 650 138 705 157.5 c 128,-1,39
 760 177 760 177 805 211.5 c 128,-1,40
 850 246 850 246 885 292.5 c 128,-1,41
 920 339 920 339 944 393 c 128,-1,42
 968 447 968 447 980.5 505.5 c 128,-1,43
 993 564 993 564 993 622 c 257,20,21
410 1275 m 257,44,45
 422 1330 422 1330 446 1371 c 128,-1,46
 470 1412 470 1412 500 1438.5 c 128,-1,47
 530 1465 530 1465 563.5 1476.5 c 128,-1,48
 597 1488 597 1488 629 1484 c 257,49,50
 668 1478 668 1478 699 1463.5 c 128,-1,51
 730 1449 730 1449 758.5 1433.5 c 128,-1,52
 787 1418 787 1418 814.5 1406 c 128,-1,53
 842 1394 842 1394 873 1394 c 257,54,55
 901 1394 901 1394 920.5 1404.5 c 128,-1,56
 940 1415 940 1415 953 1431 c 128,-1,57
 966 1447 966 1447 973 1465.5 c 128,-1,58
 980 1484 980 1484 984 1501 c 257,59,-1
 1079 1498 l 257,60,61
 1073 1450 1073 1450 1050 1405.5 c 128,-1,62
 1027 1361 1027 1361 994.5 1329 c 128,-1,63
 962 1297 962 1297 922.5 1280.5 c 128,-1,64
 883 1264 883 1264 844 1271 c 257,65,66
 816 1276 816 1276 788 1292.5 c 128,-1,67
 760 1309 760 1309 730.5 1326 c 128,-1,68
 701 1343 701 1343 669 1354 c 128,-1,69
 637 1365 637 1365 601 1360 c 257,70,71
 563 1355 563 1355 536.5 1336 c 128,-1,72
 510 1317 510 1317 495 1272 c 257,73,-1
 410 1275 l 257,44,45
EndSplineSet
PickledDataWithLists: "(dp0
Vcom.fontlab.ttprogram
p1
(c_codecs
encode
p2
(Vdata
p3
Vlatin1
p4
tp5
Rp6
g2
(V<data>\\u000a        <ttProgram>\\u000a          <ttc align=\"round\" code=\"alignv\" point=\"av01\"/>\\u000a          <ttc code=\"alignb\" point=\"ab01\" zone=\"b: 0\"/>\\u000a        </ttProgram>\\u000a      </data>
p7
g4
tp8
Rp9
Ntp10
s."
EndChar
StartChar: oslash
Encoding: 358 248 358
GlifName: oslash
Width: 1300
VWidth: 0
Flags: W
LayerCount: 2
Fore
SplineSet
358 -100 m 257,0,-1
 148 -100 l 257,1,-1
 948 1209 l 257,2,-1
 1148 1209 l 257,3,-1
 358 -100 l 257,0,-1
567 -17 m 257,4,5
 468 -17 468 -17 386.5 18 c 128,-1,6
 305 53 305 53 246.5 117 c 128,-1,7
 188 181 188 181 156 271.5 c 128,-1,8
 124 362 124 362 124 473 c 257,9,10
 124 616 124 616 168.5 734.5 c 128,-1,11
 213 853 213 853 292.5 938 c 128,-1,12
 372 1023 372 1023 482.5 1070 c 128,-1,13
 593 1117 593 1117 726 1117 c 257,14,15
 828 1117 828 1117 911 1084 c 128,-1,16
 994 1051 994 1051 1053 988.5 c 128,-1,17
 1112 926 1112 926 1144 835.5 c 128,-1,18
 1176 745 1176 745 1176 631 c 257,19,20
 1176 482 1176 482 1133.5 362 c 128,-1,21
 1091 242 1091 242 1012 158 c 128,-1,22
 933 74 933 74 820.5 28.5 c 128,-1,23
 708 -17 708 -17 567 -17 c 257,4,5
993 622 m 257,24,25
 993 697 993 697 975 759.5 c 128,-1,26
 957 822 957 822 921 867.5 c 128,-1,27
 885 913 885 913 831.5 938 c 128,-1,28
 778 963 778 963 706 963 c 257,29,30
 641 963 641 963 586 943.5 c 128,-1,31
 531 924 531 924 487 890 c 128,-1,32
 443 856 443 856 409 809.5 c 128,-1,33
 375 763 375 763 352.5 709.5 c 128,-1,34
 330 656 330 656 318.5 597 c 128,-1,35
 307 538 307 538 307 480 c 257,36,37
 307 405 307 405 324 342 c 128,-1,38
 341 279 341 279 375.5 233.5 c 128,-1,39
 410 188 410 188 462.5 163 c 128,-1,40
 515 138 515 138 586 138 c 257,41,42
 650 138 650 138 705 157.5 c 128,-1,43
 760 177 760 177 805 211.5 c 128,-1,44
 850 246 850 246 885 292.5 c 128,-1,45
 920 339 920 339 944 393 c 128,-1,46
 968 447 968 447 980.5 505.5 c 128,-1,47
 993 564 993 564 993 622 c 257,24,25
EndSplineSet
EndChar
StartChar: uacute
Encoding: 540 250 540
GlifName: uacute
Width: 1300
VWidth: 0
Flags: W
LayerCount: 2
Fore
SplineSet
967 1100 m 257,0,-1
 1161 1121 l 257,1,-1
NamedP: "av02"
 963 0 l 257,2,-1
NamedP: "sv01"
 773 0 l 257,3,-1
NamedP: "ab02"
 802 163 l 257,4,-1
 722 56 l 257,5,6
 698 42 698 42 675 29 c 128,-1,7
 652 16 652 16 620.5 6 c 128,-1,8
 589 -4 589 -4 542.5 -10.5 c 128,-1,9
 496 -17 496 -17 425 -17 c 257,10,11
NamedP: "ab01"
 356 -17 356 -17 300 9 c 128,-1,12
 244 35 244 35 204.5 80.5 c 128,-1,13
 165 126 165 126 143.5 187 c 128,-1,14
 122 248 122 248 122 318 c 257,15,16
 122 338 122 338 123.5 359 c 128,-1,17
 125 380 125 380 129 401 c 257,18,-1
 257 1100 l 257,19,-1
 451 1121 l 257,20,-1
NamedP: "av01"
 319 401 l 257,21,22
 315 381 315 381 313.5 362.5 c 128,-1,23
 312 344 312 344 312 326 c 257,24,25
 312 286 312 286 322 252.5 c 128,-1,26
 332 219 332 219 354.5 194.5 c 128,-1,27
 377 170 377 170 412.5 156.5 c 128,-1,28
 448 143 448 143 498 143 c 257,29,30
 564 143 564 143 612.5 153 c 128,-1,31
 661 163 661 163 698 179.5 c 128,-1,32
 735 196 735 196 763.5 216.5 c 128,-1,33
 792 237 792 237 819 258 c 257,34,-1
 967 1100 l 257,0,-1
836 1500 m 257,35,-1
NamedP: "at01"
 1070 1520 l 257,36,-1
 773 1200 l 257,37,-1
 623 1200 l 257,38,-1
NamedP: "av03"
 836 1500 l 257,35,-1
NamedP: "at01"
EndSplineSet
PickledDataWithLists: "(dp0
Vcom.fontlab.ttprogram
p1
(c_codecs
encode
p2
(Vdata
p3
Vlatin1
p4
tp5
Rp6
g2
(V<data>\\u000a        <ttProgram>\\u000a          <ttc align=\"round\" code=\"alignv\" point=\"av01\"/>\\u000a          <ttc align=\"round\" code=\"alignv\" point=\"av02\"/>\\u000a          <ttc code=\"alignb\" point=\"ab01\" zone=\"b: 0\"/>\\u000a          <ttc code=\"alignb\" point=\"ab02\" zone=\"b: 0\"/>\\u000a          <ttc code=\"singlev\" point1=\"ab02\" point2=\"sv01\"/>\\u000a          <ttc align=\"round\" code=\"alignv\" point=\"av03\"/>\\u000a          <ttc code=\"alignt\" point=\"at01\" zone=\"t: 1\"/>\\u000a        </ttProgram>\\u000a      </data>
p7
g4
tp8
Rp9
Ntp10
s."
EndChar
StartChar: ydieresis
Encoding: 582 255 582
GlifName: ydieresis
Width: 1300
VWidth: 0
Flags: W
LayerCount: 2
Fore
SplineSet
666 364 m 257,0,-1
 1064 1100 l 257,1,-1
NamedP: "sv01"
 1257 1121 l 257,2,-1
NamedP: "av02"
 644 -17 l 257,3,4
 580 -136 580 -136 529.5 -223 c 128,-1,5
 479 -310 479 -310 430 -367 c 128,-1,6
 381 -424 381 -424 327.5 -452 c 128,-1,7
 274 -480 274 -480 204 -480 c 257,8,-1
NamedP: "av03"
 200 -480 l 257,9,10
 135 -480 135 -480 89 -459.5 c 128,-1,11
 43 -439 43 -439 8 -403 c 257,12,-1
 100 -296 l 257,13,14
 114 -308 114 -308 141 -317.5 c 128,-1,15
 168 -327 168 -327 192 -328 c 257,16,-1
 196 -328 l 257,17,18
 232 -328 232 -328 260 -314 c 128,-1,19
 288 -300 288 -300 317 -267.5 c 128,-1,20
 346 -235 346 -235 380 -181 c 128,-1,21
 414 -127 414 -127 462 -47 c 257,22,-1
 247 1100 l 257,23,-1
NamedP: "av04"
 420 1121 l 257,24,25
NamedP: "av01"
 431 1064 431 1064 442 1002 c 257,26,27
 452 948 452 948 464.5 880.5 c 128,-1,28
 477 813 477 813 491 742 c 257,29,30
 522 576 522 576 562 364 c 257,31,-1
 573 132 l 257,32,-1
 666 364 l 257,0,-1
535 1500 m 257,33,-1
 735 1500 l 257,34,-1
 700 1300 l 257,35,-1
 500 1300 l 257,36,-1
 535 1500 l 257,33,-1
935 1500 m 257,37,-1
 1135 1500 l 257,38,-1
 1100 1300 l 257,39,-1
 900 1300 l 257,40,-1
 935 1500 l 257,37,-1
EndSplineSet
PickledDataWithLists: "(dp0
Vcom.fontlab.ttprogram
p1
(c_codecs
encode
p2
(Vdata
p3
Vlatin1
p4
tp5
Rp6
g2
(V<data>\\u000a        <ttProgram>\\u000a          <ttc align=\"round\" code=\"alignv\" point=\"av01\"/>\\u000a          <ttc align=\"round\" code=\"alignv\" point=\"av02\"/>\\u000a          <ttc align=\"round\" code=\"alignv\" point=\"av03\"/>\\u000a          <ttc align=\"round\" code=\"alignv\" point=\"av04\"/>\\u000a          <ttc code=\"singlev\" point1=\"av04\" point2=\"sv01\"/>\\u000a        </ttProgram>\\u000a      </data>
p7
g4
tp8
Rp9
Ntp10
s."
EndChar
StartChar: OE
Encoding: 49 338 49
GlifName: O_E_
Width: 1300
VWidth: 0
Flags: W
LayerCount: 2
Fore
SplineSet
419 -17 m 257,0,1
NamedP: "ab02"
 305 -17 305 -17 216 25.5 c 128,-1,2
 127 68 127 68 73.5 160 c 128,-1,3
 20 252 20 252 6.5 398 c 128,-1,4
 -7 544 -7 544 29 750 c 257,5,6
 65 956 65 956 130 1101.5 c 128,-1,7
 195 1247 195 1247 281 1339.5 c 128,-1,8
 367 1432 367 1432 471.5 1474.5 c 128,-1,9
 576 1517 576 1517 690 1517 c 257,10,-1
NamedP: "at02"
 804 1430 l 257,11,-1
 807 1500 l 257,12,-1
NamedP: "at01"
 1432 1500 l 257,13,-1
NamedP: "sv01"
 1404 1340 l 257,14,-1
 989 1340 l 257,15,-1
 975 1150 l 257,16,-1
 928 885 l 257,17,-1
NamedP: "av01"
 1253 885 l 257,18,-1
NamedP: "sv02"
 1228 740 l 257,19,-1
 903 740 l 257,20,-1
 832 340 l 257,21,-1
 790 160 l 257,22,-1
 1230 160 l 257,23,-1
 1182 0 l 257,24,-1
NamedP: "sv03"
 542 0 l 257,25,-1
NamedP: "ab01"
 565 70 l 257,26,-1
 419 -17 l 257,0,1
NamedP: "ab02"
792 1305 m 257,27,28
 769 1325 769 1325 732.5 1336 c 128,-1,29
 696 1347 696 1347 654 1347 c 257,30,31
 504 1347 504 1347 397.5 1203.5 c 128,-1,32
 291 1060 291 1060 243 785 c 257,33,34
 214 622 214 622 214 503 c 128,-1,35
 214 384 214 384 241 306 c 128,-1,36
 268 228 268 228 322 190.5 c 128,-1,37
 376 153 376 153 455 153 c 257,38,39
 475 153 475 153 492 154.5 c 128,-1,40
 509 156 509 156 525.5 159.5 c 128,-1,41
 542 163 542 163 559 170.5 c 128,-1,42
 576 178 576 178 596 190 c 257,43,-1
 792 1305 l 257,27,28
EndSplineSet
PickledDataWithLists: "(dp0
Vcom.fontlab.ttprogram
p1
(c_codecs
encode
p2
(Vdata
p3
Vlatin1
p4
tp5
Rp6
g2
(V<data>\\u000a        <ttProgram>\\u000a          <ttc align=\"round\" code=\"alignv\" point=\"av01\"/>\\u000a          <ttc code=\"alignt\" point=\"at01\" zone=\"t: 1\"/>\\u000a          <ttc code=\"alignt\" point=\"at02\" zone=\"t: 1\"/>\\u000a          <ttc code=\"alignb\" point=\"ab01\" zone=\"b: 0\"/>\\u000a          <ttc code=\"alignb\" point=\"ab02\" zone=\"b: 0\"/>\\u000a          <ttc code=\"singlev\" point1=\"at01\" point2=\"sv01\"/>\\u000a          <ttc code=\"singlev\" point1=\"av01\" point2=\"sv02\"/>\\u000a          <ttc code=\"singlev\" point1=\"ab01\" point2=\"sv03\"/>\\u000a        </ttProgram>\\u000a      </data>
p7
g4
tp8
Rp9
Ntp10
s."
EndChar
StartChar: Scaron
Encoding: 67 352 67
GlifName: S_caron
Width: 1300
VWidth: 0
Flags: W
LayerCount: 2
Fore
SplineSet
1086 1252 m 257,0,1
 1055 1277 1055 1277 1025.5 1295.5 c 128,-1,2
 996 1314 996 1314 965 1326 c 128,-1,3
 934 1338 934 1338 899.5 1344 c 128,-1,4
 865 1350 865 1350 824 1350 c 257,5,6
 762 1350 762 1350 704 1332 c 128,-1,7
 646 1314 646 1314 601 1281 c 128,-1,8
 556 1248 556 1248 529 1202 c 128,-1,9
 502 1156 502 1156 502 1101 c 257,10,11
 502 1049 502 1049 526.5 1011.5 c 128,-1,12
 551 974 551 974 590.5 943.5 c 128,-1,13
 630 913 630 913 681 887 c 128,-1,14
 732 861 732 861 785.5 832.5 c 128,-1,15
 839 804 839 804 890 769.5 c 128,-1,16
 941 735 941 735 980.5 688.5 c 128,-1,17
 1020 642 1020 642 1044.5 579.5 c 128,-1,18
 1069 517 1069 517 1069 432 c 257,19,20
 1069 327 1069 327 1024.5 243.5 c 128,-1,21
 980 160 980 160 904.5 102.5 c 128,-1,22
 829 45 829 45 730 14 c 128,-1,23
 631 -17 631 -17 523 -17 c 257,24,25
NamedP: "ab01"
 407 -17 407 -17 299.5 19.5 c 128,-1,26
 192 56 192 56 96 134 c 257,27,-1
 214 284 l 257,28,29
 240 258 240 258 274.5 234.5 c 128,-1,30
 309 211 309 211 350 193.5 c 128,-1,31
 391 176 391 176 437 165.5 c 128,-1,32
 483 155 483 155 531 155 c 257,33,34
 587 155 587 155 646 169.5 c 128,-1,35
 705 184 705 184 754 217 c 128,-1,36
 803 250 803 250 834 303 c 128,-1,37
 865 356 865 356 865 433 c 257,38,39
 865 488 865 488 840.5 529.5 c 128,-1,40
 816 571 816 571 776 604.5 c 128,-1,41
 736 638 736 638 685.5 666.5 c 128,-1,42
 635 695 635 695 582 725 c 128,-1,43
 529 755 529 755 478 789.5 c 128,-1,44
 427 824 427 824 387.5 870 c 128,-1,45
 348 916 348 916 323.5 976 c 128,-1,46
 299 1036 299 1036 299 1116 c 257,47,48
 299 1216 299 1216 343.5 1291.5 c 128,-1,49
 388 1367 388 1367 461.5 1417 c 128,-1,50
 535 1467 535 1467 631 1492 c 128,-1,51
 727 1517 727 1517 829 1517 c 257,52,53
NamedP: "at01"
 891 1517 891 1517 946 1504 c 128,-1,54
 1001 1491 1001 1491 1048 1470 c 128,-1,55
 1095 1449 1095 1449 1133.5 1423 c 128,-1,56
 1172 1397 1172 1397 1202 1371 c 257,57,-1
 1086 1252 l 257,0,1
978 1600 m 257,58,-1
NamedP: "av01"
 781 1620 l 257,59,-1
 655 1900 l 257,60,-1
NamedP: "ih02"
 805 1900 l 257,61,-1
 892 1767 l 257,62,-1
 898 1690 l 257,63,-1
NamedP: "ih01"
 932 1768 l 257,64,-1
 1066 1900 l 257,65,-1
 1216 1900 l 257,66,-1
NamedP: "ih03"
 978 1600 l 257,58,-1
NamedP: "av01"
EndSplineSet
PickledDataWithLists: "(dp0
Vcom.fontlab.ttprogram
p1
(c_codecs
encode
p2
(Vdata
p3
Vlatin1
p4
tp5
Rp6
g2
(V<data>\\u000a        <ttProgram>\\u000a          <ttc code=\"alignt\" point=\"at01\" zone=\"t: 1\"/>\\u000a          <ttc code=\"alignb\" point=\"ab01\" zone=\"b: 0\"/>\\u000a          <ttc code=\"interpolateh\" point=\"ih01\" point1=\"ih02\" point2=\"ih03\"/>\\u000a          <ttc align=\"round\" code=\"alignv\" point=\"av01\"/>\\u000a          <ttc code=\"alignt\" point=\"ih02\" zone=\"t: 1\"/>\\u000a          <ttc code=\"singlev\" point1=\"ih02\" point2=\"ih03\"/>\\u000a        </ttProgram>\\u000a      </data>
p7
g4
tp8
Rp9
Ntp10
s."
EndChar
StartChar: scaron
Encoding: 435 353 435
GlifName: scaron
Width: 1300
VWidth: 0
Flags: W
LayerCount: 2
Fore
SplineSet
1065 909 m 257,0,1
 1048 918 1048 918 1015.5 928.5 c 128,-1,2
 983 939 983 939 946.5 948 c 128,-1,3
 910 957 910 957 874 962.5 c 128,-1,4
 838 968 838 968 813 968 c 257,5,6
 760 968 760 968 700.5 962.5 c 128,-1,7
 641 957 641 957 590.5 940.5 c 128,-1,8
 540 924 540 924 507 894.5 c 128,-1,9
 474 865 474 865 474 817 c 257,10,11
 474 784 474 784 498.5 760 c 128,-1,12
 523 736 523 736 562.5 718 c 128,-1,13
 602 700 602 700 652.5 686 c 128,-1,14
 703 672 703 672 754 660 c 128,-1,15
 805 648 805 648 852 636 c 128,-1,16
 899 624 899 624 933 610 c 257,17,18
 970 595 970 595 1003 573 c 128,-1,19
 1036 551 1036 551 1060 522.5 c 128,-1,20
 1084 494 1084 494 1098 459 c 128,-1,21
 1112 424 1112 424 1112 383 c 257,22,23
 1112 305 1112 305 1081.5 245 c 128,-1,24
 1051 185 1051 185 999.5 140.5 c 128,-1,25
 948 96 948 96 882 66 c 128,-1,26
 816 36 816 36 745.5 17.5 c 128,-1,27
 675 -1 675 -1 604.5 -9 c 128,-1,28
 534 -17 534 -17 475 -17 c 257,29,30
NamedP: "ab01"
 441 -17 441 -17 391.5 -10.5 c 128,-1,31
 342 -4 342 -4 291.5 7.5 c 128,-1,32
 241 19 241 19 197 35 c 128,-1,33
 153 51 153 51 130 69 c 257,34,-1
 221 211 l 257,35,36
 243 199 243 199 280 187 c 128,-1,37
 317 175 317 175 358 165 c 128,-1,38
 399 155 399 155 438.5 149 c 128,-1,39
 478 143 478 143 505 143 c 257,40,41
 535 143 535 143 575 147 c 128,-1,42
 615 151 615 151 657 160.5 c 128,-1,43
 699 170 699 170 740.5 185.5 c 128,-1,44
 782 201 782 201 814 225 c 128,-1,45
 846 249 846 249 866 282 c 128,-1,46
 886 315 886 315 886 359 c 257,47,48
 886 394 886 394 863.5 418.5 c 128,-1,49
 841 443 841 443 804.5 460.5 c 128,-1,50
 768 478 768 478 721 491 c 128,-1,51
 674 504 674 504 624.5 515.5 c 128,-1,52
 575 527 575 527 527.5 538.5 c 128,-1,53
 480 550 480 550 442 566 c 257,54,55
 397 585 397 585 366 608.5 c 128,-1,56
 335 632 335 632 316 659 c 128,-1,57
 297 686 297 686 288.5 716.5 c 128,-1,58
 280 747 280 747 280 779 c 257,59,60
 280 875 280 875 326 939.5 c 128,-1,61
 372 1004 372 1004 448.5 1043.5 c 128,-1,62
 525 1083 525 1083 625 1100 c 128,-1,63
 725 1117 725 1117 833 1117 c 257,64,65
NamedP: "av01"
 871 1117 871 1117 918 1111 c 128,-1,66
 965 1105 965 1105 1010 1095 c 128,-1,67
 1055 1085 1055 1085 1092 1072.5 c 128,-1,68
 1129 1060 1129 1060 1147 1047 c 257,69,-1
 1065 909 l 257,0,1
864 1220 m 257,70,-1
NamedP: "av02"
 667 1240 l 257,71,-1
 541 1520 l 257,72,-1
NamedP: "ih02"
 691 1520 l 257,73,-1
 778 1387 l 257,74,-1
 784 1310 l 257,75,-1
NamedP: "ih01"
 818 1388 l 257,76,-1
 952 1520 l 257,77,-1
 1102 1520 l 257,78,-1
NamedP: "ih03"
 864 1220 l 257,70,-1
NamedP: "av02"
EndSplineSet
PickledDataWithLists: "(dp0
Vcom.fontlab.ttprogram
p1
(c_codecs
encode
p2
(Vdata
p3
Vlatin1
p4
tp5
Rp6
g2
(V<data>\\u000a        <ttProgram>\\u000a          <ttc align=\"round\" code=\"alignv\" point=\"av01\"/>\\u000a          <ttc code=\"alignb\" point=\"ab01\" zone=\"b: 0\"/>\\u000a          <ttc code=\"interpolateh\" point=\"ih01\" point1=\"ih02\" point2=\"ih03\"/>\\u000a          <ttc align=\"round\" code=\"alignv\" point=\"av02\"/>\\u000a          <ttc code=\"alignt\" point=\"ih02\" zone=\"t: 1\"/>\\u000a          <ttc code=\"singlev\" point1=\"ih02\" point2=\"ih03\"/>\\u000a        </ttProgram>\\u000a      </data>
p7
g4
tp8
Rp9
Ntp10
s."
EndChar
StartChar: Ydieresis
Encoding: 86 376 86
GlifName: Y_dieresis
Width: 1300
VWidth: 0
Flags: W
LayerCount: 2
Fore
SplineSet
608 935 m 257,0,-1
 996 1500 l 257,1,-1
 1188 1500 l 257,2,-1
NamedP: "sv01"
 602 646 l 257,3,-1
 489 0 l 257,4,-1
NamedP: "sv02"
 289 0 l 257,5,-1
NamedP: "ab01"
 402 645 l 257,6,-1
 117 1500 l 257,7,-1
NamedP: "at01"
 325 1520 l 257,8,-1
NamedP: "at02"
 503 954 l 257,9,-1
 538 705 l 257,10,-1
 608 935 l 257,0,-1
462 1898 m 257,11,-1
 662 1898 l 257,12,-1
 627 1698 l 257,13,-1
 427 1698 l 257,14,-1
 462 1898 l 257,11,-1
862 1898 m 257,15,-1
 1062 1898 l 257,16,-1
 1027 1698 l 257,17,-1
 827 1698 l 257,18,-1
 862 1898 l 257,15,-1
EndSplineSet
PickledDataWithLists: "(dp0
Vcom.fontlab.ttprogram
p1
(c_codecs
encode
p2
(Vdata
p3
Vlatin1
p4
tp5
Rp6
g2
(V<data>\\u000a        <ttProgram>\\u000a          <ttc code=\"alignt\" point=\"at01\" zone=\"t: 1\"/>\\u000a          <ttc code=\"alignt\" point=\"at02\" zone=\"t: 1\"/>\\u000a          <ttc code=\"alignb\" point=\"ab01\" zone=\"b: 0\"/>\\u000a          <ttc code=\"singlev\" point1=\"at01\" point2=\"sv01\"/>\\u000a          <ttc code=\"singlev\" point1=\"ab01\" point2=\"sv02\"/>\\u000a        </ttProgram>\\u000a      </data>
p7
g4
tp8
Rp9
Ntp10
s."
EndChar
StartChar: ogonek
Encoding: 343 731 343
GlifName: ogonek
Width: 1300
VWidth: 0
Flags: W
LayerCount: 2
Fore
SplineSet
552 0 m 257,0,1
NamedP: "sv02"
 528 -29 528 -29 510 -61 c 257,2,3
 495 -88 495 -88 485 -122 c 128,-1,4
 475 -156 475 -156 480 -189 c 257,5,6
 488 -238 488 -238 518 -259 c 128,-1,7
 548 -280 548 -280 591 -279 c 257,8,9
NamedP: "sv01"
 620 -279 620 -279 647.5 -269 c 128,-1,10
 675 -259 675 -259 697 -248 c 257,11,12
 723 -235 723 -235 746 -218 c 257,13,-1
NamedP: "mh01"
 835 -318 l 257,14,15
NamedP: "mv01"
 796 -344 796 -344 754 -363 c 257,16,17
 718 -380 718 -380 674.5 -393.5 c 128,-1,18
 631 -407 631 -407 589 -407 c 257,19,20
NamedP: "av01"
 539 -407 539 -407 494.5 -393 c 128,-1,21
 450 -379 450 -379 415.5 -352.5 c 128,-1,22
 381 -326 381 -326 358 -287 c 128,-1,23
 335 -248 335 -248 328 -198 c 257,24,25
 323 -158 323 -158 329 -122 c 128,-1,26
 335 -86 335 -86 346 -59 c 257,27,28
 358 -27 358 -27 376 0 c 257,29,-1
NamedP: "ab01"
 552 0 l 257,0,1
NamedP: "sv02"
EndSplineSet
PickledDataWithLists: "(dp0
Vcom.fontlab.ttprogram
p1
(c_codecs
encode
p2
(Vdata
p3
Vlatin1
p4
tp5
Rp6
g2
(V<data>\\u000a        <ttProgram>\\u000a          <ttc code=\"mdeltah\" delta=\"3\" point=\"mh01\" ppm1=\"18\" ppm2=\"19\"/>\\u000a          <ttc code=\"mdeltah\" delta=\"2\" point=\"mh01\" ppm1=\"17\" ppm2=\"17\"/>\\u000a          <ttc align=\"round\" code=\"alignv\" point=\"av01\"/>\\u000a          <ttc code=\"alignb\" point=\"ab01\" zone=\"b: 0\"/>\\u000a          <ttc code=\"mdeltav\" delta=\"8\" point=\"mv01\" ppm1=\"18\" ppm2=\"18\"/>\\u000a          <ttc code=\"mdeltav\" delta=\"1\" point=\"mh01\" ppm1=\"19\" ppm2=\"19\"/>\\u000a          <ttc code=\"singlev\" point1=\"av01\" point2=\"sv01\" stem=\"Y: 144\"/>\\u000a          <ttc code=\"singlev\" point1=\"ab01\" point2=\"sv02\"/>\\u000a        </ttProgram>\\u000a      </data>
p7
g4
tp8
Rp9
Ntp10
s."
EndChar
StartChar: hungarumlaut
Encoding: 282 733 282
GlifName: hungarumlaut
Width: 1300
VWidth: 0
Flags: W
LayerCount: 2
Fore
SplineSet
542 1500 m 257,0,-1
 776 1520 l 257,1,-1
NamedP: "at01"
 402 1117 l 257,2,-1
NamedP: "sv01"
 252 1117 l 257,3,-1
NamedP: "av01"
 542 1500 l 257,0,-1
905 1500 m 257,4,-1
 1139 1520 l 257,5,-1
NamedP: "at02"
 765 1117 l 257,6,-1
NamedP: "sv02"
 615 1117 l 257,7,-1
NamedP: "av02"
 905 1500 l 257,4,-1
EndSplineSet
PickledDataWithLists: "(dp0
Vcom.fontlab.ttprogram
p1
(c_codecs
encode
p2
(Vdata
p3
Vlatin1
p4
tp5
Rp6
g2
(V<data>\\u000a        <ttProgram>\\u000a          <ttc align=\"round\" code=\"alignv\" point=\"av01\"/>\\u000a          <ttc align=\"round\" code=\"alignv\" point=\"av02\"/>\\u000a          <ttc code=\"alignt\" point=\"at01\" zone=\"t: 1\"/>\\u000a          <ttc code=\"alignt\" point=\"at02\" zone=\"t: 1\"/>\\u000a          <ttc code=\"singlev\" point1=\"av01\" point2=\"sv01\"/>\\u000a          <ttc code=\"singlev\" point1=\"av02\" point2=\"sv02\"/>\\u000a        </ttProgram>\\u000a      </data>
p7
g4
tp8
Rp9
Ntp10
s."
EndChar
StartChar: Eta
Encoding: 23 919 23
GlifName: E_ta
Width: 1300
VWidth: 0
Flags: W
LayerCount: 2
Fore
SplineSet
786 0 m 257,0,-1
 913 725 l 257,1,-1
NamedP: "sv01"
 371 725 l 257,2,-1
NamedP: "av01"
 244 0 l 257,3,-1
 49 0 l 257,4,-1
NamedP: "ab01"
 276 1290 l 257,5,-1
 284 1500 l 257,6,-1
NamedP: "at01"
 512 1520 l 257,7,-1
NamedP: "at02"
 400 885 l 257,8,-1
 942 885 l 257,9,-1
 1050 1500 l 257,10,-1
NamedP: "sv02"
 1249 1520 l 257,11,-1
NamedP: "at03"
 981 0 l 257,12,-1
NamedP: "sv03"
 786 0 l 257,0,-1
EndSplineSet
PickledDataWithLists: "(dp0
Vcom.fontlab.ttprogram
p1
(c_codecs
encode
p2
(Vdata
p3
Vlatin1
p4
tp5
Rp6
g2
(V<data>\\u000a        <ttProgram>\\u000a          <ttc align=\"round\" code=\"alignv\" point=\"av01\"/>\\u000a          <ttc code=\"alignt\" point=\"at01\" zone=\"t: 1\"/>\\u000a          <ttc code=\"alignt\" point=\"at02\" zone=\"t: 1\"/>\\u000a          <ttc code=\"alignt\" point=\"at03\" zone=\"t: 1\"/>\\u000a          <ttc code=\"alignb\" point=\"ab01\" zone=\"b: 0\"/>\\u000a          <ttc code=\"singlev\" point1=\"av01\" point2=\"sv01\"/>\\u000a          <ttc code=\"singlev\" point1=\"at01\" point2=\"sv02\"/>\\u000a          <ttc code=\"singlev\" point1=\"ab01\" point2=\"sv03\"/>\\u000a        </ttProgram>\\u000a      </data>
p7
g4
tp8
Rp9
Ntp10
s."
EndChar
StartChar: Theta
Encoding: 71 920 71
GlifName: T_heta
Width: 1300
VWidth: 0
Flags: W
LayerCount: 2
Fore
SplineSet
396 835 m 257,0,-1
 946 835 l 257,1,-1
 896 665 l 257,2,-1
 346 665 l 257,3,-1
 396 835 l 257,0,-1
514 -17 m 257,4,5
 424 -17 424 -17 353 10.5 c 128,-1,6
 282 38 282 38 230 88.5 c 128,-1,7
 178 139 178 139 144 209 c 128,-1,8
 110 279 110 279 94 364.5 c 128,-1,9
 78 450 78 450 79.5 547.5 c 128,-1,10
 81 645 81 645 100 750 c 257,11,12
 118 855 118 855 150.5 952.5 c 128,-1,13
 183 1050 183 1050 228.5 1135.5 c 128,-1,14
 274 1221 274 1221 331.5 1291 c 128,-1,15
 389 1361 389 1361 459 1411.5 c 128,-1,16
 529 1462 529 1462 611 1489.5 c 128,-1,17
 693 1517 693 1517 785 1517 c 257,18,19
 875 1517 875 1517 946 1489.5 c 128,-1,20
 1017 1462 1017 1462 1069 1411.5 c 128,-1,21
 1121 1361 1121 1361 1155 1291 c 128,-1,22
 1189 1221 1189 1221 1205 1135.5 c 128,-1,23
 1221 1050 1221 1050 1219.5 952.5 c 128,-1,24
 1218 855 1218 855 1200 750 c 257,25,26
 1181 645 1181 645 1148.5 547.5 c 128,-1,27
 1116 450 1116 450 1071 364.5 c 128,-1,28
 1026 279 1026 279 968 209 c 128,-1,29
 910 139 910 139 840 88.5 c 128,-1,30
 770 38 770 38 688 10.5 c 128,-1,31
 606 -17 606 -17 514 -17 c 257,4,5
986 719 m 257,32,33
 998 789 998 789 1006.5 862 c 128,-1,34
 1015 935 1015 935 1014 1004.5 c 128,-1,35
 1013 1074 1013 1074 999.5 1135.5 c 128,-1,36
 986 1197 986 1197 955.5 1242.5 c 128,-1,37
 925 1288 925 1288 874.5 1315 c 128,-1,38
 824 1342 824 1342 748 1342 c 257,39,40
 676 1342 676 1342 619 1318 c 128,-1,41
 562 1294 562 1294 517 1252.5 c 128,-1,42
 472 1211 472 1211 439 1155.5 c 128,-1,43
 406 1100 406 1100 381.5 1038 c 128,-1,44
 357 976 357 976 341 911 c 128,-1,45
 325 846 325 846 314 785 c 257,46,47
 301 714 301 714 293 640 c 128,-1,48
 285 566 285 566 286 496.5 c 128,-1,49
 287 427 287 427 300 365.5 c 128,-1,50
 313 304 313 304 343.5 258 c 128,-1,51
 374 212 374 212 424.5 185 c 128,-1,52
 475 158 475 158 551 158 c 257,53,54
 622 158 622 158 679 182.5 c 128,-1,55
 736 207 736 207 781 249.5 c 128,-1,56
 826 292 826 292 859.5 347.5 c 128,-1,57
 893 403 893 403 917.5 465.5 c 128,-1,58
 942 528 942 528 958.5 593 c 128,-1,59
 975 658 975 658 986 719 c 257,32,33
EndSplineSet
EndChar
StartChar: Mu
Encoding: 43 924 43
GlifName: M_u
Width: 1300
VWidth: 0
Flags: W
LayerCount: 2
Fore
SplineSet
837 0 m 257,0,-1
 996 901 l 257,1,-1
 1153 1399 l 257,2,-1
 1148 1400 l 257,3,-1
 900 921 l 257,4,-1
 653 500 l 257,5,-1
 553 500 l 257,6,-1
 455 920 l 257,7,-1
 370 1400 l 257,8,-1
 364 1399 l 257,9,-1
 351 901 l 257,10,-1
 192 0 l 257,11,-1
 12 0 l 257,12,-1
NamedP: "ab01"
 240 1290 l 257,13,-1
 249 1500 l 257,14,-1
NamedP: "at01"
 467 1520 l 257,15,-1
NamedP: "at02"
 599 950 l 257,16,-1
 631 700 l 257,17,-1
 749 950 l 257,18,-1
 1075 1500 l 257,19,-1
NamedP: "sv01"
 1286 1520 l 257,20,-1
NamedP: "at03"
 1017 0 l 257,21,-1
NamedP: "sv02"
 837 0 l 257,0,-1
EndSplineSet
PickledDataWithLists: "(dp0
Vcom.fontlab.ttprogram
p1
(c_codecs
encode
p2
(Vdata
p3
Vlatin1
p4
tp5
Rp6
g2
(V<data>\\u000a        <ttProgram>\\u000a          <ttc code=\"alignt\" point=\"at01\" zone=\"t: 1\"/>\\u000a          <ttc code=\"alignt\" point=\"at02\" zone=\"t: 1\"/>\\u000a          <ttc code=\"alignt\" point=\"at03\" zone=\"t: 1\"/>\\u000a          <ttc code=\"alignb\" point=\"ab01\" zone=\"b: 0\"/>\\u000a          <ttc code=\"singlev\" point1=\"at01\" point2=\"sv01\"/>\\u000a          <ttc code=\"singlev\" point1=\"ab01\" point2=\"sv02\"/>\\u000a        </ttProgram>\\u000a      </data>
p7
g4
tp8
Rp9
Ntp10
s."
EndChar
StartChar: Xi
Encoding: 83 926 83
GlifName: X_i
Width: 1300
VWidth: 0
Flags: W
LayerCount: 2
Fore
SplineSet
356 885 m 257,0,-1
NamedP: "av01"
 1006 885 l 257,1,-1
NamedP: "sv01"
 975 711 l 257,2,-1
NamedP: "sv02"
 325 711 l 257,3,-1
NamedP: "mh01"
 356 885 l 257,0,-1
NamedP: "av01"
130 174 m 257,4,-1
NamedP: "av02"
 980 174 l 257,5,-1
NamedP: "sv03"
 950 0 l 257,6,-1
NamedP: "sv04"
 100 0 l 257,7,-1
 130 174 l 257,4,-1
NamedP: "av02"
364 1500 m 257,8,-1
NamedP: "at01"
 1214 1500 l 257,9,-1
NamedP: "sv05"
 1183 1326 l 257,10,-1
NamedP: "sv06"
 333 1326 l 257,11,-1
NamedP: "mh02"
 364 1500 l 257,8,-1
NamedP: "at01"
EndSplineSet
PickledDataWithLists: "(dp0
Vcom.fontlab.ttprogram
p1
(c_codecs
encode
p2
(Vdata
p3
Vlatin1
p4
tp5
Rp6
g2
(V<data>\\u000a        <ttProgram>\\u000a          <ttc code=\"mdeltah\" delta=\"2\" point=\"mh01\" ppm1=\"15\" ppm2=\"15\"/>\\u000a          <ttc code=\"mdeltah\" delta=\"1\" point=\"mh01\" ppm1=\"40\" ppm2=\"40\"/>\\u000a          <ttc code=\"mdeltah\" delta=\"1\" point=\"mh02\" ppm1=\"27\" ppm2=\"27\"/>\\u000a          <ttc code=\"mdeltah\" delta=\"4\" point=\"mh02\" ppm1=\"15\" ppm2=\"15\"/>\\u000a          <ttc code=\"mdeltah\" delta=\"1\" point=\"mh02\" ppm1=\"21\" ppm2=\"21\"/>\\u000a          <ttc code=\"mdeltah\" delta=\"-2\" point=\"mh02\" ppm1=\"33\" ppm2=\"33\"/>\\u000a          <ttc align=\"round\" code=\"alignv\" point=\"av01\"/>\\u000a          <ttc align=\"round\" code=\"alignv\" point=\"av02\"/>\\u000a          <ttc code=\"alignt\" point=\"at01\" zone=\"t: 1\"/>\\u000a          <ttc code=\"singlev\" point1=\"av01\" point2=\"sv01\"/>\\u000a          <ttc code=\"singlev\" point1=\"sv01\" point2=\"sv02\" stem=\"Y: 153\"/>\\u000a          <ttc code=\"mdeltav\" delta=\"8\" point=\"mh01\" ppm1=\"40\" ppm2=\"40\"/>\\u000a          <ttc code=\"mdeltav\" delta=\"8\" point=\"mh01\" ppm1=\"15\" ppm2=\"15\"/>\\u000a          <ttc code=\"singlev\" point1=\"av02\" point2=\"sv03\"/>\\u000a          <ttc code=\"singlev\" point1=\"sv03\" point2=\"sv04\" stem=\"Y: 153\"/>\\u000a          <ttc code=\"singlev\" point1=\"at01\" point2=\"sv05\"/>\\u000a          <ttc code=\"singlev\" point1=\"sv05\" point2=\"sv06\" stem=\"Y: 153\"/>\\u000a          <ttc code=\"mdeltav\" delta=\"5\" point=\"mh02\" ppm1=\"21\" ppm2=\"21\"/>\\u000a          <ttc code=\"mdeltav\" delta=\"6\" point=\"mh02\" ppm1=\"15\" ppm2=\"15\"/>\\u000a          <ttc code=\"mdeltav\" delta=\"4\" point=\"mh02\" ppm1=\"27\" ppm2=\"27\"/>\\u000a          <ttc code=\"mdeltav\" delta=\"3\" point=\"mh02\" ppm1=\"33\" ppm2=\"33\"/>\\u000a        </ttProgram>\\u000a      </data>
p7
g4
tp8
Rp9
Ntp10
s."
EndChar
StartChar: Omicron
Encoding: 56 927 56
GlifName: O_micron
Width: 1300
VWidth: 0
Flags: W
LayerCount: 2
Fore
SplineSet
488 -17 m 257,0,1
NamedP: "ab01"
 398 -17 398 -17 327 10.5 c 128,-1,2
 256 38 256 38 204 88.5 c 128,-1,3
 152 139 152 139 118 209 c 128,-1,4
 84 279 84 279 68 364.5 c 128,-1,5
 52 450 52 450 53.5 547.5 c 128,-1,6
 55 645 55 645 74 750 c 257,7,8
 92 855 92 855 124.5 952.5 c 128,-1,9
 157 1050 157 1050 202.5 1135.5 c 128,-1,10
 248 1221 248 1221 305.5 1291 c 128,-1,11
 363 1361 363 1361 433 1411.5 c 128,-1,12
 503 1462 503 1462 585 1489.5 c 128,-1,13
 667 1517 667 1517 759 1517 c 257,14,15
NamedP: "at01"
 849 1517 849 1517 920 1489.5 c 128,-1,16
 991 1462 991 1462 1043 1411.5 c 128,-1,17
 1095 1361 1095 1361 1129 1291 c 128,-1,18
 1163 1221 1163 1221 1179 1135.5 c 128,-1,19
 1195 1050 1195 1050 1193.5 952.5 c 128,-1,20
 1192 855 1192 855 1174 750 c 257,21,22
 1155 645 1155 645 1122.5 547.5 c 128,-1,23
 1090 450 1090 450 1045 364.5 c 128,-1,24
 1000 279 1000 279 942 209 c 128,-1,25
 884 139 884 139 814 88.5 c 128,-1,26
 744 38 744 38 662 10.5 c 128,-1,27
 580 -17 580 -17 488 -17 c 257,0,1
NamedP: "ab01"
960 719 m 257,28,29
 972 789 972 789 980.5 862 c 128,-1,30
 989 935 989 935 988 1004.5 c 128,-1,31
 987 1074 987 1074 973.5 1135.5 c 128,-1,32
 960 1197 960 1197 929.5 1242.5 c 128,-1,33
 899 1288 899 1288 848.5 1315 c 128,-1,34
 798 1342 798 1342 722 1342 c 257,35,36
 650 1342 650 1342 593 1318 c 128,-1,37
 536 1294 536 1294 491 1252.5 c 128,-1,38
 446 1211 446 1211 413 1155.5 c 128,-1,39
 380 1100 380 1100 355.5 1038 c 128,-1,40
 331 976 331 976 315 911 c 128,-1,41
 299 846 299 846 288 785 c 257,42,43
 275 714 275 714 267 640 c 128,-1,44
 259 566 259 566 260 496.5 c 128,-1,45
 261 427 261 427 274 365.5 c 128,-1,46
 287 304 287 304 317.5 258 c 128,-1,47
 348 212 348 212 398.5 185 c 128,-1,48
 449 158 449 158 525 158 c 257,49,50
 596 158 596 158 653 182.5 c 128,-1,51
 710 207 710 207 755 249.5 c 128,-1,52
 800 292 800 292 833.5 347.5 c 128,-1,53
 867 403 867 403 891.5 465.5 c 128,-1,54
 916 528 916 528 932.5 593 c 128,-1,55
 949 658 949 658 960 719 c 257,28,29
EndSplineSet
PickledDataWithLists: "(dp0
Vcom.fontlab.ttprogram
p1
(c_codecs
encode
p2
(Vdata
p3
Vlatin1
p4
tp5
Rp6
g2
(V<data>\\u000a        <ttProgram>\\u000a          <ttc code=\"alignt\" point=\"at01\" zone=\"t: 1\"/>\\u000a          <ttc code=\"alignb\" point=\"ab01\" zone=\"b: 0\"/>\\u000a        </ttProgram>\\u000a      </data>
p7
g4
tp8
Rp9
Ntp10
s."
EndChar
StartChar: Sigma
Encoding: 68 931 68
GlifName: S_igma
Width: 1300
VWidth: 0
Flags: W
LayerCount: 2
Fore
SplineSet
953 700 m 257,0,-1
 528 317 l 257,1,-1
 268 125 l 257,2,-1
 524 170 l 257,3,-1
 1130 170 l 257,4,-1
 1101 0 l 257,5,-1
NamedP: "sv01"
 80 0 l 257,6,-1
NamedP: "ab01"
 132 183 l 257,7,-1
 723 700 l 257,8,-1
 885 750 l 257,9,-1
NamedP: "iv01"
 741 800 l 257,10,-1
 332 1317 l 257,11,-1
 344 1500 l 257,12,-1
NamedP: "at01"
 1330 1500 l 257,13,-1
NamedP: "sv02"
 1300 1330 l 257,14,-1
 729 1330 l 257,15,-1
 488 1375 l 257,16,-1
 681 1183 l 257,17,-1
 971 800 l 257,18,-1
 953 700 l 257,0,-1
EndSplineSet
PickledDataWithLists: "(dp0
Vcom.fontlab.ttprogram
p1
(c_codecs
encode
p2
(Vdata
p3
Vlatin1
p4
tp5
Rp6
g2
(V<data>\\u000a        <ttProgram>\\u000a          <ttc code=\"alignt\" point=\"at01\" zone=\"t: 1\"/>\\u000a          <ttc code=\"alignb\" point=\"ab01\" zone=\"b: 0\"/>\\u000a          <ttc code=\"singlev\" point1=\"ab01\" point2=\"sv01\"/>\\u000a          <ttc code=\"interpolatev\" point=\"iv01\" point1=\"at01\" point2=\"ab01\"/>\\u000a          <ttc code=\"singlev\" point1=\"at01\" point2=\"sv02\"/>\\u000a        </ttProgram>\\u000a      </data>
p7
g4
tp8
Rp9
Ntp10
s."
EndChar
StartChar: gamma
Encoding: 265 947 265
GlifName: gamma
Width: 1300
VWidth: 0
Flags: W
LayerCount: 2
Fore
SplineSet
146 1117 m 257,0,1
NamedP: "ih02"
 181 1120 181 1120 220.5 1118 c 128,-1,2
 260 1116 260 1116 296 1098.5 c 128,-1,3
 332 1081 332 1081 360.5 1043.5 c 128,-1,4
 389 1006 389 1006 402 940 c 257,5,-1
 512 364 l 257,6,-1
 523 132 l 257,7,-1
NamedP: "ih01"
 616 364 l 257,8,-1
 1014 1100 l 257,9,-1
 1200 1121 l 257,10,-1
NamedP: "ih03"
 590 -17 l 257,11,-1
 504 -500 l 257,12,-1
NamedP: "sv01"
 312 -500 l 257,13,-1
NamedP: "av01"
 392 -47 l 257,14,-1
 221 869 l 257,15,16
 211 919 211 919 195 943.5 c 128,-1,17
 179 968 179 968 163 978 c 257,18,19
 145 989 145 989 124 987 c 257,20,-1
 146 1117 l 257,0,1
NamedP: "ih02"
EndSplineSet
PickledDataWithLists: "(dp0
Vcom.fontlab.ttprogram
p1
(c_codecs
encode
p2
(Vdata
p3
Vlatin1
p4
tp5
Rp6
g2
(V<data>\\u000a        <ttProgram>\\u000a          <ttc code=\"interpolateh\" point=\"ih01\" point1=\"ih02\" point2=\"ih03\"/>\\u000a          <ttc align=\"round\" code=\"alignv\" point=\"av01\"/>\\u000a          <ttc align=\"round\" code=\"alignv\" point=\"ih03\"/>\\u000a          <ttc align=\"round\" code=\"alignv\" point=\"ih02\"/>\\u000a          <ttc code=\"singlev\" point1=\"av01\" point2=\"sv01\"/>\\u000a        </ttProgram>\\u000a      </data>
p7
g4
tp8
Rp9
Ntp10
s."
EndChar
StartChar: delta
Encoding: 207 948 207
GlifName: delta
Width: 1300
VWidth: 0
Flags: W
LayerCount: 2
Fore
SplineSet
572 127 m 257,0,1
 635 117 635 117 697 147.5 c 128,-1,2
 759 178 759 178 809.5 234.5 c 128,-1,3
 860 291 860 291 892.5 367 c 128,-1,4
 925 443 925 443 928 526 c 257,5,6
 930 592 930 592 924 656.5 c 128,-1,7
 918 721 918 721 895 775 c 128,-1,8
 872 829 872 829 829 868 c 128,-1,9
 786 907 786 907 715 921 c 257,10,11
 646 935 646 935 581 910.5 c 128,-1,12
 516 886 516 886 466 832.5 c 128,-1,13
 416 779 416 779 385.5 700 c 128,-1,14
 355 621 355 621 354 526 c 257,15,16
 353 449 353 449 361 381 c 128,-1,17
 369 313 369 313 392.5 260.5 c 128,-1,18
 416 208 416 208 459 173 c 128,-1,19
 502 138 502 138 572 127 c 257,0,1
1174 1500 m 257,20,-1
NamedP: "sv01"
 1103 1342 l 257,21,-1
NamedP: "sv02"
 751 1342 l 257,22,23
 716 1342 716 1342 686.5 1339.5 c 128,-1,24
 657 1337 657 1337 635 1331 c 128,-1,25
 613 1325 613 1325 599 1313.5 c 128,-1,26
 585 1302 585 1302 582 1284 c 257,27,28
 579 1267 579 1267 594 1249.5 c 128,-1,29
 609 1232 609 1232 635 1215 c 128,-1,30
 661 1198 661 1198 694 1181 c 128,-1,31
 727 1164 727 1164 759.5 1148.5 c 128,-1,32
 792 1133 792 1133 820 1118.5 c 128,-1,33
 848 1104 848 1104 865 1091 c 257,34,35
 930 1041 930 1041 982.5 987 c 128,-1,36
 1035 933 1035 933 1071 866 c 128,-1,37
 1107 799 1107 799 1125.5 716 c 128,-1,38
 1144 633 1144 633 1142 526 c 257,39,40
 1141 454 1141 454 1117 384 c 128,-1,41
 1093 314 1093 314 1052 251 c 128,-1,42
 1011 188 1011 188 955.5 135 c 128,-1,43
 900 82 900 82 834.5 45.5 c 128,-1,44
 769 9 769 9 697 -8 c 128,-1,45
 625 -25 625 -25 551 -17 c 257,46,47
NamedP: "ab01"
 434 -4 434 -4 357.5 45.5 c 128,-1,48
 281 95 281 95 235.5 170 c 128,-1,49
 190 245 190 245 171.5 340 c 128,-1,50
 153 435 153 435 154 539 c 257,51,52
 156 708 156 708 249.5 831.5 c 128,-1,53
 343 955 343 955 525 1015 c 257,54,-1
NamedP: "av01"
 728 1015 l 257,55,-1
NamedP: "sv03"
 635 1059 l 257,56,57
 574 1080 574 1080 530 1102 c 128,-1,58
 486 1124 486 1124 458 1150.5 c 128,-1,59
 430 1177 430 1177 417 1210.5 c 128,-1,60
 404 1244 404 1244 404 1289 c 257,61,62
 404 1346 404 1346 423 1384 c 128,-1,63
 442 1422 442 1422 473.5 1445 c 128,-1,64
 505 1468 505 1468 545.5 1480 c 128,-1,65
 586 1492 586 1492 629.5 1496 c 128,-1,66
 673 1500 673 1500 716.5 1500 c 128,-1,67
 760 1500 760 1500 797 1500 c 257,68,-1
NamedP: "at01"
 1174 1500 l 257,20,-1
NamedP: "sv01"
EndSplineSet
PickledDataWithLists: "(dp0
Vcom.fontlab.ttprogram
p1
(c_codecs
encode
p2
(Vdata
p3
Vlatin1
p4
tp5
Rp6
g2
(V<data>\\u000a        <ttProgram>\\u000a          <ttc align=\"round\" code=\"alignv\" point=\"av01\"/>\\u000a          <ttc code=\"alignt\" point=\"at01\" zone=\"t: 1\"/>\\u000a          <ttc code=\"alignb\" point=\"ab01\" zone=\"b: 0\"/>\\u000a          <ttc code=\"singlev\" point1=\"at01\" point2=\"sv01\"/>\\u000a          <ttc code=\"singlev\" point1=\"sv01\" point2=\"sv02\" stem=\"Y: 153\"/>\\u000a          <ttc code=\"singlev\" point1=\"av01\" point2=\"sv03\"/>\\u000a        </ttProgram>\\u000a      </data>
p7
g4
tp8
Rp9
Ntp10
s."
EndChar
StartChar: uni03BC
Encoding: 547 956 547
GlifName: uni03B_C_
Width: 1300
VWidth: 0
Flags: W
LayerCount: 2
Fore
SplineSet
393 1100 m 257,0,-1
NamedP: "av01"
 587 1121 l 257,1,-1
NamedP: "av03"
 461 406 l 257,2,3
 455 358 455 358 452 310 c 128,-1,4
 449 262 449 262 462 222.5 c 128,-1,5
 475 183 475 183 511 157 c 128,-1,6
 547 131 547 131 618 127 c 257,7,8
 653 125 653 125 679 127.5 c 128,-1,9
 705 130 705 130 729.5 140 c 128,-1,10
 754 150 754 150 782 169.5 c 128,-1,11
 810 189 810 189 849 222 c 257,12,-1
 1003 1100 l 257,13,-1
NamedP: "sv01"
 1197 1121 l 257,14,-1
NamedP: "av04"
 1000 0 l 257,15,-1
NamedP: "sv02"
 810 0 l 257,16,-1
NamedP: "mh01"
 832 129 l 257,17,18
 790 80 790 80 747 51.5 c 128,-1,19
 704 23 704 23 662 8.5 c 128,-1,20
 620 -6 620 -6 581 -10 c 128,-1,21
 542 -14 542 -14 507 -15 c 257,22,23
NamedP: "ab01"
 470 -15 470 -15 434 -8.5 c 128,-1,24
 398 -2 398 -2 371 11 c 257,25,-1
 363 -150 l 257,26,-1
 301 -500 l 257,27,-1
NamedP: "sv03"
 111 -500 l 257,28,-1
NamedP: "av02"
 393 1100 l 257,0,-1
NamedP: "av01"
EndSplineSet
PickledDataWithLists: "(dp0
Vcom.fontlab.ttprogram
p1
(c_codecs
encode
p2
(Vdata
p3
Vlatin1
p4
tp5
Rp6
g2
(V<data>\\u000a        <ttProgram>\\u000a          <ttc code=\"mdeltah\" delta=\"2\" point=\"mh01\" ppm1=\"21\" ppm2=\"21\"/>\\u000a          <ttc code=\"mdeltah\" delta=\"1\" point=\"mh01\" ppm1=\"16\" ppm2=\"16\"/>\\u000a          <ttc align=\"round\" code=\"alignv\" point=\"av01\"/>\\u000a          <ttc align=\"round\" code=\"alignv\" point=\"av02\"/>\\u000a          <ttc align=\"round\" code=\"alignv\" point=\"av03\"/>\\u000a          <ttc align=\"round\" code=\"alignv\" point=\"av04\"/>\\u000a          <ttc code=\"alignb\" point=\"mh01\" zone=\"b: 0\"/>\\u000a          <ttc code=\"alignb\" point=\"ab01\" zone=\"b: 0\"/>\\u000a          <ttc code=\"singlev\" point1=\"av01\" point2=\"sv01\"/>\\u000a          <ttc code=\"singlev\" point1=\"mh01\" point2=\"sv02\"/>\\u000a          <ttc code=\"singlev\" point1=\"av02\" point2=\"sv03\"/>\\u000a        </ttProgram>\\u000a      </data>
p7
g4
tp8
Rp9
Ntp10
s."
EndChar
StartChar: nu
Encoding: 336 957 336
GlifName: nu
Width: 1300
VWidth: 0
Flags: W
LayerCount: 2
Fore
SplineSet
327 0 m 257,0,-1
NamedP: "ab01"
 137 1100 l 257,1,-1
NamedP: "ih02"
 330 1100 l 257,2,-1
NamedP: "sv01"
 466 295 l 257,3,-1
 473 75 l 257,4,-1
NamedP: "ih01"
 560 295 l 257,5,-1
 978 1100 l 257,6,-1
NamedP: "av01"
 1169 1100 l 257,7,-1
NamedP: "ih03"
 594 0 l 257,8,-1
NamedP: "sv02"
 327 0 l 257,0,-1
NamedP: "ab01"
EndSplineSet
PickledDataWithLists: "(dp0
Vcom.fontlab.ttprogram
p1
(c_codecs
encode
p2
(Vdata
p3
Vlatin1
p4
tp5
Rp6
g2
(V<data>\\u000a        <ttProgram>\\u000a          <ttc code=\"interpolateh\" point=\"ih01\" point1=\"ih02\" point2=\"ih03\"/>\\u000a          <ttc align=\"round\" code=\"alignv\" point=\"ih02\"/>\\u000a          <ttc align=\"round\" code=\"alignv\" point=\"av01\"/>\\u000a          <ttc code=\"alignb\" point=\"ab01\" zone=\"b: 0\"/>\\u000a          <ttc code=\"singlev\" point1=\"ih02\" point2=\"sv01\"/>\\u000a          <ttc code=\"singlev\" point1=\"av01\" point2=\"ih03\"/>\\u000a          <ttc code=\"singlev\" point1=\"ab01\" point2=\"sv02\"/>\\u000a        </ttProgram>\\u000a      </data>
p7
g4
tp8
Rp9
Ntp10
s."
EndChar
StartChar: pi
Encoding: 381 960 381
GlifName: pi
Width: 1300
VWidth: 0
Flags: W
HStem: -13 146<953.179 1095.02> 950 150<174.051 302.887 487 867 1047 1166>
VStem: 757 170.5<152.66 514.844>
DStem2: 197.697 -13.0606 377.697 -13.0606 0.173648 0.984808<44.5188 843.526> 696.932 -13.0606 878.033 -13.0606 0.173648 0.984808<208.132 977.962>
LayerCount: 2
Fore
SplineSet
1047 950 m 257,0,-1
 949 393 l 257,1,2
 940 341 940 341 932 293 c 128,-1,3
 924 245 924 245 927.5 209 c 128,-1,4
 931 173 931 173 952.5 152 c 128,-1,5
 974 131 974 131 1023 133 c 257,6,7
 1034 133 1034 133 1046.5 135 c 128,-1,8
 1059 137 1059 137 1070 139 c 257,9,10
 1082 142 1082 142 1094 145 c 257,11,-1
 1152 19 l 257,12,13
 1133 10 1133 10 1096.5 -1 c 128,-1,14
 1060 -12 1060 -12 997 -13 c 257,15,16
NamedP: "ab02"
 936 -14 936 -14 892.5 1.5 c 128,-1,17
 849 17 849 17 820.5 45.5 c 128,-1,18
 792 74 792 74 777 113 c 128,-1,19
 762 152 762 152 757.5 199 c 128,-1,20
 753 246 753 246 757 299 c 128,-1,21
 761 352 761 352 771 407 c 257,22,-1
 867 950 l 257,23,-1
 487 950 l 257,24,-1
 518 787 l 257,25,-1
NamedP: "mh01"
 380 0 l 257,26,-1
NamedP: "sv01"
 200 0 l 257,27,-1
NamedP: "ab01"
 322 694 l 257,28,29
 331 743 331 743 334 791 c 128,-1,30
 337 839 337 839 330 876.5 c 128,-1,31
 323 914 323 914 303.5 936 c 128,-1,32
 284 958 284 958 248 954 c 257,33,34
 237 952 237 952 224.5 950.5 c 128,-1,35
 212 949 212 949 201 947 c 257,36,37
 189 944 189 944 177 942 c 257,38,-1
 119 1068 l 257,39,40
 138 1077 138 1077 174 1088.5 c 128,-1,41
 210 1100 210 1100 271 1100 c 257,42,-1
NamedP: "av01"
 1212 1100 l 257,43,-1
NamedP: "sv02"
 1166 950 l 257,44,-1
 1047 950 l 257,0,-1
EndSplineSet
PickledDataWithLists: "(dp0
Vcom.fontlab.ttprogram
p1
(c_codecs
encode
p2
(Vdata
p3
Vlatin1
p4
tp5
Rp6
g2
(V<data>\\u000a        <ttProgram>\\u000a          <ttc code=\"mdeltah\" delta=\"-4\" point=\"mh01\" ppm1=\"14\" ppm2=\"14\"/>\\u000a          <ttc align=\"round\" code=\"alignv\" point=\"av01\"/>\\u000a          <ttc code=\"alignb\" point=\"ab01\" zone=\"b: 0\"/>\\u000a          <ttc code=\"alignb\" point=\"ab02\" zone=\"b: 0\"/>\\u000a          <ttc code=\"singlev\" point1=\"ab01\" point2=\"sv01\"/>\\u000a          <ttc code=\"singlev\" point1=\"av01\" point2=\"sv02\"/>\\u000a        </ttProgram>\\u000a      </data>
p7
g4
tp8
Rp9
Ntp10
s."
EndChar
StartChar: sigma
Encoding: 444 963 444
GlifName: sigma
Width: 1300
VWidth: 0
Flags: W
LayerCount: 2
Fore
SplineSet
96 550 m 257,0,1
 104 657 104 657 141.5 759 c 128,-1,2
 179 861 179 861 251.5 940.5 c 128,-1,3
 324 1020 324 1020 434 1068.5 c 128,-1,4
 544 1117 544 1117 697 1117 c 257,5,-1
NamedP: "av01"
 1297 1117 l 257,6,-1
NamedP: "sv01"
 1272 980 l 257,7,-1
 1197 980 l 257,8,-1
 1007 990 l 257,9,-1
 1088 852 l 257,10,11
 1108 783 1108 783 1105.5 708 c 128,-1,12
 1103 633 1103 633 1096 550 c 257,13,14
 1089 472 1089 472 1066.5 397.5 c 128,-1,15
 1044 323 1044 323 1006.5 256.5 c 128,-1,16
 969 190 969 190 917.5 135 c 128,-1,17
 866 80 866 80 801.5 42.5 c 128,-1,18
 737 5 737 5 660.5 -12 c 128,-1,19
 584 -29 584 -29 496 -20 c 257,20,21
NamedP: "ab01"
 368 -7 368 -7 286.5 41 c 128,-1,22
 205 89 205 89 160 164 c 128,-1,23
 115 239 115 239 101.5 337.5 c 128,-1,24
 88 436 88 436 96 550 c 257,0,1
266 550 m 257,25,26
 259 471 259 471 267 399.5 c 128,-1,27
 275 328 275 328 303.5 270.5 c 128,-1,28
 332 213 332 213 385 173.5 c 128,-1,29
 438 134 438 134 521 120 c 257,30,31
 575 111 575 111 626 124.5 c 128,-1,32
 677 138 677 138 722 167.5 c 128,-1,33
 767 197 767 197 804.5 240.5 c 128,-1,34
 842 284 842 284 869 334.5 c 128,-1,35
 896 385 896 385 911 440.5 c 128,-1,36
 926 496 926 496 926 550 c 257,37,38
 926 629 926 629 917.5 701.5 c 128,-1,39
 909 774 909 774 882 831.5 c 128,-1,40
 855 889 855 889 805 928 c 128,-1,41
 755 967 755 967 672 980 c 257,42,43
 617 988 617 988 567 974.5 c 128,-1,44
 517 961 517 961 473 930.5 c 128,-1,45
 429 900 429 900 393 856.5 c 128,-1,46
 357 813 357 813 330.5 762.5 c 128,-1,47
 304 712 304 712 287 657.5 c 128,-1,48
 270 603 270 603 266 550 c 257,25,26
EndSplineSet
PickledDataWithLists: "(dp0
Vcom.fontlab.ttprogram
p1
(c_codecs
encode
p2
(Vdata
p3
Vlatin1
p4
tp5
Rp6
g2
(V<data>\\u000a        <ttProgram>\\u000a          <ttc align=\"round\" code=\"alignv\" point=\"av01\"/>\\u000a          <ttc code=\"alignb\" point=\"ab01\" zone=\"b: 0\"/>\\u000a          <ttc code=\"singlev\" point1=\"av01\" point2=\"sv01\"/>\\u000a        </ttProgram>\\u000a      </data>
p7
g4
tp8
Rp9
Ntp10
s."
EndChar
StartChar: psi
Encoding: 391 968 391
GlifName: psi
Width: 1300
VWidth: 0
Flags: W
LayerCount: 2
Fore
SplineSet
94 800 m 257,0,-1
 287 820 l 257,1,-1
NamedP: "av02"
 230 497 l 257,2,3
 217 425 217 425 216.5 358.5 c 128,-1,4
 216 292 216 292 231.5 241 c 128,-1,5
 247 190 247 190 282 159.5 c 128,-1,6
 317 129 317 129 375 129 c 257,7,8
 391 128 391 128 409 128 c 257,9,-1
NamedP: "av03"
 473 128 l 257,10,-1
 644 1100 l 257,11,-1
 840 1121 l 257,12,-1
NamedP: "av01"
 665 128 l 257,13,14
NamedP: "av07"
 711 128 711 128 742.5 128 c 128,-1,15
NamedP: "sv01"
 774 128 774 128 775 129 c 257,16,17
 855 129 855 129 903 159.5 c 128,-1,18
 951 190 951 190 979.5 241 c 128,-1,19
 1008 292 1008 292 1022.5 358.5 c 128,-1,20
 1037 425 1037 425 1050 497 c 257,21,-1
NamedP: "av05"
 1081 672 l 257,22,23
 1097 764 1097 764 1086 828 c 128,-1,24
 1075 892 1075 892 1050.5 931.5 c 128,-1,25
 1026 971 1026 971 995 989 c 128,-1,26
 964 1007 964 1007 941 1007 c 257,27,-1
NamedP: "sv02"
 960 1117 l 257,28,29
NamedP: "av06"
 1043 1117 1043 1117 1107.5 1078 c 128,-1,30
 1172 1039 1172 1039 1213.5 978 c 128,-1,31
 1255 917 1255 917 1271.5 843 c 128,-1,32
 1288 769 1288 769 1276 699 c 257,33,-1
 1240 495 l 257,34,35
NamedP: "sv03"
 1231 448 1231 448 1221.5 391.5 c 128,-1,36
 1212 335 1212 335 1193 278 c 128,-1,37
 1174 221 1174 221 1143 168 c 128,-1,38
 1112 115 1112 115 1060.5 73.5 c 128,-1,39
 1009 32 1009 32 933 7.5 c 128,-1,40
 857 -17 857 -17 750 -17 c 257,41,-1
 640 -17 l 257,42,-1
NamedP: "sv04"
 554 -500 l 257,43,-1
NamedP: "sv05"
 362 -500 l 257,44,-1
NamedP: "av04"
 448 -17 l 257,45,-1
 350 -17 l 257,46,47
 260 -17 260 -17 200.5 10 c 128,-1,48
 141 37 141 37 104 80.5 c 128,-1,49
 67 124 67 124 50 179.5 c 128,-1,50
 33 235 33 235 28.5 292 c 128,-1,51
 24 349 24 349 28.5 402 c 128,-1,52
 33 455 33 455 40 495 c 257,53,-1
 94 800 l 257,0,-1
EndSplineSet
PickledDataWithLists: "(dp0
Vcom.fontlab.ttprogram
p1
(c_codecs
encode
p2
(Vdata
p3
Vlatin1
p4
tp5
Rp6
g2
(V<data>\\u000a        <ttProgram>\\u000a          <ttc align=\"round\" code=\"alignv\" point=\"av01\"/>\\u000a          <ttc align=\"round\" code=\"alignv\" point=\"av02\"/>\\u000a          <ttc align=\"round\" code=\"alignv\" point=\"av03\"/>\\u000a          <ttc align=\"round\" code=\"alignv\" point=\"av04\"/>\\u000a          <ttc align=\"round\" code=\"alignv\" point=\"av05\"/>\\u000a          <ttc align=\"round\" code=\"alignv\" point=\"av06\"/>\\u000a          <ttc align=\"round\" code=\"alignv\" point=\"av07\"/>\\u000a          <ttc code=\"singlev\" point1=\"av03\" point2=\"sv01\"/>\\u000a          <ttc code=\"singlev\" point1=\"av06\" point2=\"sv02\" stem=\"Y: 144\"/>\\u000a          <ttc code=\"singlev\" point1=\"av05\" point2=\"sv03\"/>\\u000a          <ttc code=\"singlev\" point1=\"av07\" point2=\"sv04\" stem=\"Y: 144\"/>\\u000a          <ttc code=\"singlev\" point1=\"av04\" point2=\"sv05\"/>\\u000a        </ttProgram>\\u000a      </data>
p7
g4
tp8
Rp9
Ntp10
s."
EndChar
StartChar: omega
Encoding: 345 969 345
GlifName: omega
Width: 1300
VWidth: 0
Flags: W
LayerCount: 2
Fore
SplineSet
784 725 m 257,0,-1
 742 482 l 257,1,2
 729 411 729 411 720.5 347 c 128,-1,3
 712 283 712 283 717.5 234.5 c 128,-1,4
 723 186 723 186 747.5 157.5 c 128,-1,5
 772 129 772 129 825 129 c 257,6,7
 885 129 885 129 922.5 158.5 c 128,-1,8
 960 188 960 188 984.5 241.5 c 128,-1,9
 1009 295 1009 295 1025 368.5 c 128,-1,10
 1041 442 1041 442 1056 530 c 257,11,12
 1072 622 1072 622 1073 693.5 c 128,-1,13
 1074 765 1074 765 1064 818 c 128,-1,14
 1054 871 1054 871 1036 907 c 128,-1,15
 1018 943 1018 943 998 965.5 c 128,-1,16
 978 988 978 988 957 997.5 c 128,-1,17
 936 1007 936 1007 921 1007 c 257,18,-1
NamedP: "sv01"
 940 1117 l 257,19,20
NamedP: "ih03"
 1023 1117 1023 1117 1089.5 1072 c 128,-1,21
 1156 1027 1156 1027 1198.5 951 c 128,-1,22
 1241 875 1241 875 1256 773.5 c 128,-1,23
 1271 672 1271 672 1251 560 c 257,24,-1
 1233 457 l 257,25,26
 1223 402 1223 402 1210 345.5 c 128,-1,27
 1197 289 1197 289 1176 236.5 c 128,-1,28
 1155 184 1155 184 1124.5 138 c 128,-1,29
 1094 92 1094 92 1049 57.5 c 128,-1,30
 1004 23 1004 23 943 3 c 128,-1,31
 882 -17 882 -17 800 -17 c 257,32,33
NamedP: "sv02"
 749 -17 749 -17 712.5 -7 c 128,-1,34
 676 3 676 3 650.5 21.5 c 128,-1,35
 625 40 625 40 609 65 c 128,-1,36
 593 90 593 90 584 120 c 257,37,38
NamedP: "ih01"
 564 90 564 90 539.5 65 c 128,-1,39
 515 40 515 40 483 21.5 c 128,-1,40
 451 3 451 3 411 -7 c 128,-1,41
 371 -17 371 -17 321 -17 c 257,42,43
NamedP: "ab01"
 239 -17 239 -17 185 3 c 128,-1,44
 131 23 131 23 98 57.5 c 128,-1,45
 65 92 65 92 50.5 138.5 c 128,-1,46
 36 185 36 185 33.5 237.5 c 128,-1,47
 31 290 31 290 37.5 346 c 128,-1,48
 44 402 44 402 54 457 c 257,49,-1
 72 560 l 257,50,51
 92 672 92 672 141 773.5 c 128,-1,52
 190 875 190 875 257.5 951 c 128,-1,53
 325 1027 325 1027 405.5 1072 c 128,-1,54
 486 1117 486 1117 569 1117 c 257,55,-1
NamedP: "ih02"
 550 1007 l 257,56,57
NamedP: "sv03"
 527 1007 527 1007 487.5 984.5 c 128,-1,58
 448 962 448 962 405 907 c 128,-1,59
 362 852 362 852 321.5 760.5 c 128,-1,60
 281 669 281 669 257 530 c 257,61,62
 242 442 242 442 231.5 368.5 c 128,-1,63
 221 295 221 295 226.5 241.5 c 128,-1,64
 232 188 232 188 259 158.5 c 128,-1,65
 286 129 286 129 346 129 c 257,66,67
 399 129 399 129 433.5 157.5 c 128,-1,68
 468 186 468 186 490.5 234.5 c 128,-1,69
 513 283 513 283 527.5 347 c 128,-1,70
 542 411 542 411 555 482 c 257,71,-1
 601 745 l 257,72,-1
NamedP: "av01"
 784 725 l 257,0,-1
EndSplineSet
PickledDataWithLists: "(dp0
Vcom.fontlab.ttprogram
p1
(c_codecs
encode
p2
(Vdata
p3
Vlatin1
p4
tp5
Rp6
g2
(V<data>\\u000a        <ttProgram>\\u000a          <ttc code=\"interpolateh\" point=\"ih01\" point1=\"ih02\" point2=\"ih03\"/>\\u000a          <ttc align=\"round\" code=\"alignv\" point=\"ih02\"/>\\u000a          <ttc align=\"round\" code=\"alignv\" point=\"av01\"/>\\u000a          <ttc code=\"alignb\" point=\"ab01\" zone=\"b: 0\"/>\\u000a          <ttc code=\"singlev\" point1=\"ih02\" point2=\"ih03\"/>\\u000a          <ttc code=\"singlev\" point1=\"ih03\" point2=\"sv01\" stem=\"Y: 144\"/>\\u000a          <ttc code=\"singlev\" point1=\"ab01\" point2=\"sv02\"/>\\u000a          <ttc code=\"singlev\" point1=\"ih02\" point2=\"sv03\" stem=\"Y: 144\"/>\\u000a        </ttProgram>\\u000a      </data>
p7
g4
tp8
Rp9
Ntp10
s."
EndChar
StartChar: omega1
Encoding: 346 982 346
GlifName: omega1
Width: 1300
VWidth: 0
Flags: W
LayerCount: 2
Fore
SplineSet
1300 942 m 257,0,-1
NamedP: "sv02"
 1139 942 l 257,1,-1
 1217 885 l 257,2,3
 1228 857 1228 857 1237.5 824.5 c 128,-1,4
 1247 792 1247 792 1251.5 747.5 c 128,-1,5
 1256 703 1256 703 1252.5 641.5 c 128,-1,6
 1249 580 1249 580 1234 495 c 257,7,-1
NamedP: "sv03"
 1225 444 l 257,8,9
 1217 401 1217 401 1205.5 350 c 128,-1,10
 1194 299 1194 299 1174 247.5 c 128,-1,11
 1154 196 1154 196 1123 148.5 c 128,-1,12
 1092 101 1092 101 1047 64 c 128,-1,13
 1002 27 1002 27 939.5 5 c 128,-1,14
 877 -17 877 -17 794 -17 c 257,15,16
NamedP: "sv04"
 740 -17 740 -17 703 -7 c 128,-1,17
 666 3 666 3 641 21.5 c 128,-1,18
 616 40 616 40 601.5 65 c 128,-1,19
 587 90 587 90 578 120 c 257,20,21
 558 90 558 90 534.5 65 c 128,-1,22
 511 40 511 40 480.5 21.5 c 128,-1,23
 450 3 450 3 409.5 -7 c 128,-1,24
 369 -17 369 -17 315 -17 c 257,25,26
NamedP: "ab01"
 232 -17 232 -17 177.5 5 c 128,-1,27
 123 27 123 27 90.5 64 c 128,-1,28
 58 101 58 101 44.5 148.5 c 128,-1,29
 31 196 31 196 28.5 247.5 c 128,-1,30
 26 299 26 299 32 350 c 128,-1,31
 38 401 38 401 46 444 c 257,32,-1
 55 495 l 257,33,34
NamedP: "av03"
 70 580 70 580 88.5 641.5 c 128,-1,35
 107 703 107 703 127 747.5 c 128,-1,36
 147 792 147 792 168 824.5 c 128,-1,37
 189 857 189 857 210 885 c 257,38,-1
 308 942 l 257,39,-1
NamedP: "mv01"
 140 942 l 257,40,-1
NamedP: "sv05"
 188 1100 l 257,41,-1
NamedP: "av01"
 1348 1100 l 257,42,-1
NamedP: "sv01"
 1300 942 l 257,0,-1
NamedP: "sv02"
779 725 m 257,43,-1
 733 464 l 257,44,45
 721 396 721 396 712.5 335 c 128,-1,46
 704 274 704 274 709.5 228 c 128,-1,47
 715 182 715 182 740 155.5 c 128,-1,48
 765 129 765 129 820 129 c 257,49,50
 873 129 873 129 910 159.5 c 128,-1,51
 947 190 947 190 972.5 241 c 128,-1,52
 998 292 998 292 1015 358.5 c 128,-1,53
 1032 425 1032 425 1045 497 c 257,54,55
NamedP: "av04"
 1064 605 1064 605 1067.5 680.5 c 128,-1,56
 1071 756 1071 756 1064.5 807.5 c 128,-1,57
 1058 859 1058 859 1044 890.5 c 128,-1,58
 1030 922 1030 922 1012 942 c 257,59,-1
 434 942 l 257,60,61
NamedP: "mv02"
 410 922 410 922 384.5 890.5 c 128,-1,62
 359 859 359 859 334.5 807.5 c 128,-1,63
 310 756 310 756 287.5 680.5 c 128,-1,64
 265 605 265 605 246 497 c 257,65,66
NamedP: "sv06"
 233 425 233 425 226.5 358.5 c 128,-1,67
 220 292 220 292 228 241 c 128,-1,68
 236 190 236 190 262 159.5 c 128,-1,69
 288 129 288 129 341 129 c 257,70,71
 396 129 396 129 430 155.5 c 128,-1,72
 464 182 464 182 486 228 c 128,-1,73
 508 274 508 274 521 335 c 128,-1,74
 534 396 534 396 546 464 c 257,75,-1
 595 745 l 257,76,-1
NamedP: "av02"
 779 725 l 257,43,-1
EndSplineSet
PickledDataWithLists: "(dp0
Vcom.fontlab.ttprogram
p1
(c_codecs
encode
p2
(Vdata
p3
Vlatin1
p4
tp5
Rp6
g2
(V<data>\\u000a        <ttProgram>\\u000a          <ttc align=\"round\" code=\"alignv\" point=\"av01\"/>\\u000a          <ttc align=\"round\" code=\"alignv\" point=\"av02\"/>\\u000a          <ttc align=\"round\" code=\"alignv\" point=\"av03\"/>\\u000a          <ttc align=\"round\" code=\"alignv\" point=\"av04\"/>\\u000a          <ttc code=\"alignb\" point=\"ab01\" zone=\"b: 0\"/>\\u000a          <ttc code=\"singlev\" point1=\"av01\" point2=\"sv01\"/>\\u000a          <ttc code=\"singlev\" point1=\"sv01\" point2=\"sv02\" stem=\"Y: 153\"/>\\u000a          <ttc code=\"singlev\" point1=\"av04\" point2=\"sv03\"/>\\u000a          <ttc code=\"singlev\" point1=\"ab01\" point2=\"sv04\"/>\\u000a          <ttc code=\"mdeltav\" delta=\"2\" point=\"mv01\" ppm1=\"14\" ppm2=\"14\"/>\\u000a          <ttc code=\"singlev\" point1=\"sv02\" point2=\"sv05\"/>\\u000a          <ttc code=\"mdeltav\" delta=\"2\" point=\"mv02\" ppm1=\"14\" ppm2=\"14\"/>\\u000a          <ttc code=\"mdeltav\" delta=\"1\" point=\"mv02\" ppm1=\"18\" ppm2=\"18\"/>\\u000a          <ttc code=\"singlev\" point1=\"av03\" point2=\"sv06\"/>\\u000a        </ttProgram>\\u000a      </data>
p7
g4
tp8
Rp9
Ntp10
s."
EndChar
StartChar: hyphentwo
Encoding: 284 8208 284
GlifName: hyphentwo
Width: 1300
VWidth: 0
Flags: W
LayerCount: 2
Fore
SplineSet
305 600 m 257,0,-1
NamedP: "av01"
 805 600 l 257,1,-1
NamedP: "sv01"
 778 445 l 257,2,-1
 278 445 l 257,3,-1
 305 600 l 257,0,-1
NamedP: "av01"
EndSplineSet
PickledDataWithLists: "(dp0
Vcom.fontlab.ttprogram
p1
(c_codecs
encode
p2
(Vdata
p3
Vlatin1
p4
tp5
Rp6
g2
(V<data>\\u000a        <ttProgram>\\u000a          <ttc align=\"round\" code=\"alignv\" point=\"av01\"/>\\u000a          <ttc code=\"singlev\" point1=\"av01\" point2=\"sv01\"/>\\u000a        </ttProgram>\\u000a      </data>
p7
g4
tp8
Rp9
Ntp10
s."
EndChar
StartChar: quoteleft
Encoding: 400 8216 400
GlifName: quoteleft
Width: 1300
VWidth: 0
Flags: W
LayerCount: 2
Fore
SplineSet
406 1095 m 257,0,1
 405 1069 405 1069 393 1045.5 c 128,-1,2
 381 1022 381 1022 361.5 1004.5 c 128,-1,3
 342 987 342 987 316 978.5 c 128,-1,4
 290 970 290 970 261 974 c 257,5,6
 217 980 217 980 187 1012.5 c 128,-1,7
 157 1045 157 1045 158 1109 c 257,8,9
 158 1139 158 1139 168 1179.5 c 128,-1,10
 178 1220 178 1220 203 1266.5 c 128,-1,11
 228 1313 228 1313 271.5 1362.5 c 128,-1,12
 315 1412 315 1412 382 1460 c 257,13,-1
 423 1440 l 257,14,15
 396 1407 396 1407 374 1370 c 257,16,17
 355 1338 355 1338 337.5 1298 c 128,-1,18
 320 1258 320 1258 315 1216 c 257,19,20
 357 1214 357 1214 382.5 1183.5 c 128,-1,21
 408 1153 408 1153 406 1095 c 257,0,1
EndSplineSet
EndChar
StartChar: quotesinglbase
Encoding: 402 8218 402
GlifName: quotesinglbase
Width: 1300
VWidth: 0
Flags: W
LayerCount: 2
Fore
SplineSet
194 105 m 257,0,1
NamedP: "mh01"
 195 131 195 131 207 154.5 c 128,-1,2
 219 178 219 178 238.5 195.5 c 128,-1,3
 258 213 258 213 284 221.5 c 128,-1,4
 310 230 310 230 339 226 c 257,5,6
NamedP: "av01"
 383 220 383 220 413 187.5 c 128,-1,7
 443 155 443 155 442 91 c 257,8,9
 442 61 442 61 432 20.5 c 128,-1,10
 422 -20 422 -20 397 -66.5 c 128,-1,11
 372 -113 372 -113 328.5 -162.5 c 128,-1,12
 285 -212 285 -212 218 -260 c 257,13,-1
 177 -240 l 257,14,15
 204 -207 204 -207 226 -170 c 257,16,17
NamedP: "mh02"
 245 -138 245 -138 262.5 -98 c 128,-1,18
 280 -58 280 -58 285 -16 c 257,19,20
NamedP: "mh03"
 243 -14 243 -14 217.5 16.5 c 128,-1,21
 192 47 192 47 194 105 c 257,0,1
NamedP: "mh01"
EndSplineSet
PickledDataWithLists: "(dp0
Vcom.fontlab.ttprogram
p1
(c_codecs
encode
p2
(Vdata
p3
Vlatin1
p4
tp5
Rp6
g2
(V<data>\\u000a        <ttProgram>\\u000a          <ttc code=\"mdeltah\" delta=\"6\" point=\"mh01\" ppm1=\"12\" ppm2=\"12\"/>\\u000a          <ttc code=\"mdeltah\" delta=\"2\" point=\"mh02\" ppm1=\"12\" ppm2=\"12\"/>\\u000a          <ttc code=\"mdeltah\" delta=\"6\" point=\"mh03\" ppm1=\"12\" ppm2=\"12\"/>\\u000a          <ttc code=\"mdeltah\" delta=\"2\" point=\"mh03\" ppm1=\"13\" ppm2=\"13\"/>\\u000a          <ttc align=\"round\" code=\"alignv\" point=\"av01\"/>\\u000a          <ttc code=\"alignb\" point=\"mh03\" zone=\"b: 0\"/>\\u000a        </ttProgram>\\u000a      </data>
p7
g4
tp8
Rp9
Ntp10
s."
EndChar
StartChar: quotedblleft
Encoding: 398 8220 398
GlifName: quotedblleft
Width: 1300
VWidth: 0
Flags: W
LayerCount: 2
Fore
SplineSet
406 1095 m 257,0,1
 405 1069 405 1069 393 1045.5 c 128,-1,2
 381 1022 381 1022 361.5 1004.5 c 128,-1,3
 342 987 342 987 316 978.5 c 128,-1,4
 290 970 290 970 261 974 c 257,5,6
 217 980 217 980 187 1012.5 c 128,-1,7
 157 1045 157 1045 158 1109 c 257,8,9
 158 1139 158 1139 168 1179.5 c 128,-1,10
 178 1220 178 1220 203 1266.5 c 128,-1,11
 228 1313 228 1313 271.5 1362.5 c 128,-1,12
 315 1412 315 1412 382 1460 c 257,13,-1
 423 1440 l 257,14,15
 396 1407 396 1407 374 1370 c 257,16,17
 355 1338 355 1338 337.5 1298 c 128,-1,18
 320 1258 320 1258 315 1216 c 257,19,20
 357 1214 357 1214 382.5 1183.5 c 128,-1,21
 408 1153 408 1153 406 1095 c 257,0,1
806 1095 m 257,22,23
 805 1069 805 1069 793 1045.5 c 128,-1,24
 781 1022 781 1022 761.5 1004.5 c 128,-1,25
 742 987 742 987 716 978.5 c 128,-1,26
 690 970 690 970 661 974 c 257,27,28
 617 980 617 980 587 1012.5 c 128,-1,29
 557 1045 557 1045 558 1109 c 257,30,31
 558 1139 558 1139 568 1179.5 c 128,-1,32
 578 1220 578 1220 603 1266.5 c 128,-1,33
 628 1313 628 1313 671.5 1362.5 c 128,-1,34
 715 1412 715 1412 782 1460 c 257,35,-1
 823 1440 l 257,36,37
 796 1407 796 1407 774 1370 c 257,38,39
 755 1338 755 1338 737.5 1298 c 128,-1,40
 720 1258 720 1258 715 1216 c 257,41,42
 757 1214 757 1214 782.5 1183.5 c 128,-1,43
 808 1153 808 1153 806 1095 c 257,22,23
EndSplineSet
EndChar
StartChar: quotedblbase
Encoding: 397 8222 397
GlifName: quotedblbase
Width: 1300
VWidth: 0
Flags: W
LayerCount: 2
Fore
SplineSet
194 105 m 257,0,1
NamedP: "mh01"
 195 131 195 131 207 154.5 c 128,-1,2
 219 178 219 178 238.5 195.5 c 128,-1,3
 258 213 258 213 284 221.5 c 128,-1,4
 310 230 310 230 339 226 c 257,5,6
NamedP: "av01"
 383 220 383 220 413 187.5 c 128,-1,7
 443 155 443 155 442 91 c 257,8,9
 442 61 442 61 432 20.5 c 128,-1,10
 422 -20 422 -20 397 -66.5 c 128,-1,11
 372 -113 372 -113 328.5 -162.5 c 128,-1,12
 285 -212 285 -212 218 -260 c 257,13,-1
 177 -240 l 257,14,15
 204 -207 204 -207 226 -170 c 257,16,17
NamedP: "mh02"
 245 -138 245 -138 262.5 -98 c 128,-1,18
 280 -58 280 -58 285 -16 c 257,19,20
NamedP: "mh03"
 243 -14 243 -14 217.5 16.5 c 128,-1,21
 192 47 192 47 194 105 c 257,0,1
NamedP: "mh01"
594 105 m 257,22,23
NamedP: "mh04"
 595 131 595 131 607 154.5 c 128,-1,24
 619 178 619 178 638.5 195.5 c 128,-1,25
 658 213 658 213 684 221.5 c 128,-1,26
 710 230 710 230 739 226 c 257,27,28
NamedP: "av02"
 783 220 783 220 813 187.5 c 128,-1,29
 843 155 843 155 842 91 c 257,30,31
 842 61 842 61 832 20.5 c 128,-1,32
 822 -20 822 -20 797 -66.5 c 128,-1,33
 772 -113 772 -113 728.5 -162.5 c 128,-1,34
 685 -212 685 -212 618 -260 c 257,35,-1
 577 -240 l 257,36,37
 604 -207 604 -207 626 -170 c 257,38,39
NamedP: "mh05"
 645 -138 645 -138 662.5 -98 c 128,-1,40
 680 -58 680 -58 685 -16 c 257,41,42
NamedP: "mh06"
 643 -14 643 -14 617.5 16.5 c 128,-1,43
 592 47 592 47 594 105 c 257,22,23
NamedP: "mh04"
EndSplineSet
PickledDataWithLists: "(dp0
Vcom.fontlab.ttprogram
p1
(c_codecs
encode
p2
(Vdata
p3
Vlatin1
p4
tp5
Rp6
g2
(V<data>\\u000a        <ttProgram>\\u000a          <ttc code=\"mdeltah\" delta=\"6\" point=\"mh01\" ppm1=\"12\" ppm2=\"12\"/>\\u000a          <ttc code=\"mdeltah\" delta=\"2\" point=\"mh02\" ppm1=\"12\" ppm2=\"12\"/>\\u000a          <ttc code=\"mdeltah\" delta=\"6\" point=\"mh03\" ppm1=\"12\" ppm2=\"12\"/>\\u000a          <ttc code=\"mdeltah\" delta=\"2\" point=\"mh03\" ppm1=\"13\" ppm2=\"13\"/>\\u000a          <ttc align=\"round\" code=\"alignv\" point=\"av01\"/>\\u000a          <ttc code=\"alignb\" point=\"mh03\" zone=\"b: 0\"/>\\u000a          <ttc code=\"mdeltah\" delta=\"6\" point=\"mh04\" ppm1=\"12\" ppm2=\"12\"/>\\u000a          <ttc code=\"mdeltah\" delta=\"2\" point=\"mh05\" ppm1=\"12\" ppm2=\"12\"/>\\u000a          <ttc code=\"mdeltah\" delta=\"6\" point=\"mh06\" ppm1=\"12\" ppm2=\"12\"/>\\u000a          <ttc code=\"mdeltah\" delta=\"2\" point=\"mh06\" ppm1=\"13\" ppm2=\"13\"/>\\u000a          <ttc align=\"round\" code=\"alignv\" point=\"av02\"/>\\u000a          <ttc code=\"alignb\" point=\"mh06\" zone=\"b: 0\"/>\\u000a          <ttc align=\"round\" code=\"alignv\" point=\"av01\"/>\\u000a          <ttc align=\"round\" code=\"alignv\" point=\"av02\"/>\\u000a          <ttc code=\"alignb\" point=\"mh03\" zone=\"b: 0\"/>\\u000a          <ttc code=\"alignb\" point=\"mh06\" zone=\"b: 0\"/>\\u000a        </ttProgram>\\u000a      </data>
p7
g4
tp8
Rp9
Ntp10
s."
EndChar
StartChar: daggerdbl
Encoding: 204 8225 204
GlifName: daggerdbl
Width: 1300
VWidth: 0
Flags: W
LayerCount: 2
Fore
SplineSet
305 1049 m 257,0,-1
NamedP: "at01"
 605 1049 l 257,1,-1
 685 1500 l 257,2,-1
 889 1520 l 257,3,-1
NamedP: "at02"
 805 1049 l 257,4,-1
 1125 1049 l 257,5,-1
NamedP: "sv01"
 1079 900 l 257,6,-1
 779 900 l 257,7,-1
 673 300 l 257,8,-1
 973 300 l 257,9,-1
NamedP: "sv02"
 947 150 l 257,10,-1
 647 150 l 257,11,-1
 550 -400 l 257,12,-1
NamedP: "sv03"
 350 -400 l 257,13,-1
NamedP: "av02"
 447 150 l 257,14,-1
 147 150 l 257,15,-1
 173 300 l 257,16,-1
NamedP: "av01"
 473 300 l 257,17,-1
 579 900 l 257,18,-1
 279 900 l 257,19,-1
 305 1049 l 257,0,-1
NamedP: "at01"
EndSplineSet
PickledDataWithLists: "(dp0
Vcom.fontlab.ttprogram
p1
(c_codecs
encode
p2
(Vdata
p3
Vlatin1
p4
tp5
Rp6
g2
(V<data>\\u000a        <ttProgram>\\u000a          <ttc align=\"round\" code=\"alignv\" point=\"av01\"/>\\u000a          <ttc align=\"round\" code=\"alignv\" point=\"av02\"/>\\u000a          <ttc code=\"alignt\" point=\"at01\" zone=\"t: x\"/>\\u000a          <ttc code=\"alignt\" point=\"at02\" zone=\"t: 1\"/>\\u000a          <ttc code=\"singlev\" point1=\"at01\" point2=\"sv01\"/>\\u000a          <ttc code=\"singlev\" point1=\"av01\" point2=\"sv02\"/>\\u000a          <ttc code=\"singlev\" point1=\"av02\" point2=\"sv03\"/>\\u000a        </ttProgram>\\u000a      </data>
p7
g4
tp8
Rp9
Ntp10
s."
EndChar
StartChar: ellipsis
Encoding: 228 8230 228
GlifName: ellipsis
Width: 1300
VWidth: 0
Flags: W
LayerCount: 2
Fore
SplineSet
108 150 m 257,0,1
 114 184 114 184 132 214 c 128,-1,2
 150 244 150 244 176.5 266.5 c 128,-1,3
 203 289 203 289 235 302 c 128,-1,4
 267 315 267 315 301 315 c 257,5,6
NamedP: "av01"
 335 315 335 315 362.5 302 c 128,-1,7
 390 289 390 289 408.5 266.5 c 128,-1,8
 427 244 427 244 435 214 c 128,-1,9
 443 184 443 184 437 150 c 257,10,11
 431 116 431 116 412.5 85.5 c 128,-1,12
 394 55 394 55 368 32.5 c 128,-1,13
 342 10 342 10 310 -3.5 c 128,-1,14
 278 -17 278 -17 244 -17 c 257,15,16
NamedP: "ab01"
 210 -17 210 -17 182 -3.5 c 128,-1,17
 154 10 154 10 135.5 32.5 c 128,-1,18
 117 55 117 55 109.5 85.5 c 128,-1,19
 102 116 102 116 108 150 c 257,0,1
528 150 m 257,20,21
 534 184 534 184 552 214 c 128,-1,22
 570 244 570 244 596.5 266.5 c 128,-1,23
 623 289 623 289 655 302 c 128,-1,24
 687 315 687 315 721 315 c 257,25,26
NamedP: "av03"
 755 315 755 315 782.5 302 c 128,-1,27
 810 289 810 289 828.5 266.5 c 128,-1,28
 847 244 847 244 855 214 c 128,-1,29
 863 184 863 184 857 150 c 257,30,31
 851 116 851 116 832.5 85.5 c 128,-1,32
 814 55 814 55 788 32.5 c 128,-1,33
 762 10 762 10 730 -3.5 c 128,-1,34
 698 -17 698 -17 664 -17 c 257,35,36
NamedP: "ab02"
 630 -17 630 -17 602 -3.5 c 128,-1,37
 574 10 574 10 555.5 32.5 c 128,-1,38
 537 55 537 55 529.5 85.5 c 128,-1,39
 522 116 522 116 528 150 c 257,20,21
948 150 m 257,40,41
 954 184 954 184 972 214 c 128,-1,42
 990 244 990 244 1016.5 266.5 c 128,-1,43
 1043 289 1043 289 1075 302 c 128,-1,44
 1107 315 1107 315 1141 315 c 257,45,46
NamedP: "av02"
 1175 315 1175 315 1202.5 302 c 128,-1,47
 1230 289 1230 289 1248.5 266.5 c 128,-1,48
 1267 244 1267 244 1275 214 c 128,-1,49
 1283 184 1283 184 1277 150 c 257,50,51
 1271 116 1271 116 1252.5 85.5 c 128,-1,52
 1234 55 1234 55 1208 32.5 c 128,-1,53
 1182 10 1182 10 1150 -3.5 c 128,-1,54
 1118 -17 1118 -17 1084 -17 c 257,55,56
NamedP: "ab03"
 1050 -17 1050 -17 1022 -3.5 c 128,-1,57
 994 10 994 10 975.5 32.5 c 128,-1,58
 957 55 957 55 949.5 85.5 c 128,-1,59
 942 116 942 116 948 150 c 257,40,41
EndSplineSet
PickledDataWithLists: "(dp0
Vcom.fontlab.ttprogram
p1
(c_codecs
encode
p2
(Vdata
p3
Vlatin1
p4
tp5
Rp6
g2
(V<data>\\u000a        <ttProgram>\\u000a          <ttc align=\"round\" code=\"alignv\" point=\"av01\"/>\\u000a          <ttc align=\"round\" code=\"alignv\" point=\"av02\"/>\\u000a          <ttc align=\"round\" code=\"alignv\" point=\"av03\"/>\\u000a          <ttc code=\"alignb\" point=\"ab01\" zone=\"b: 0\"/>\\u000a          <ttc code=\"alignb\" point=\"ab02\" zone=\"b: 0\"/>\\u000a          <ttc code=\"alignb\" point=\"ab03\" zone=\"b: 0\"/>\\u000a        </ttProgram>\\u000a      </data>
p7
g4
tp8
Rp9
Ntp10
s."
EndChar
StartChar: perthousand
Encoding: 375 8240 375
GlifName: perthousand
Width: 2600
VWidth: 0
Flags: W
LayerCount: 2
Fore
SplineSet
1446 -17 m 257,0,1
NamedP: "ab02"
 1376 -17 1376 -17 1331.5 10.5 c 128,-1,2
 1287 38 1287 38 1264.5 86.5 c 128,-1,3
 1242 135 1242 135 1239.5 201.5 c 128,-1,4
 1237 268 1237 268 1251 345 c 257,5,6
 1264 421 1264 421 1289 486.5 c 128,-1,7
 1314 552 1314 552 1353 599 c 128,-1,8
 1392 646 1392 646 1446 673 c 128,-1,9
 1500 700 1500 700 1573 700 c 257,10,11
NamedP: "av03"
 1643 700 1643 700 1687 673 c 128,-1,12
 1731 646 1731 646 1753.5 599 c 128,-1,13
 1776 552 1776 552 1778.5 486.5 c 128,-1,14
 1781 421 1781 421 1768 345 c 257,15,16
 1754 268 1754 268 1729 201.5 c 128,-1,17
 1704 135 1704 135 1665 86.5 c 128,-1,18
 1626 38 1626 38 1572 10.5 c 128,-1,19
 1518 -17 1518 -17 1446 -17 c 257,0,1
NamedP: "ab02"
1628 393 m 257,20,21
 1634 428 1634 428 1636.5 460 c 128,-1,22
 1639 492 1639 492 1632.5 516 c 128,-1,23
 1626 540 1626 540 1606.5 554.5 c 128,-1,24
 1587 569 1587 569 1549 569 c 257,25,26
 1512 569 1512 569 1488.5 556 c 128,-1,27
 1465 543 1465 543 1450.5 521 c 128,-1,28
 1436 499 1436 499 1428 469.5 c 128,-1,29
 1420 440 1420 440 1414 407 c 257,30,-1
 1396 306 l 257,31,32
 1390 270 1390 270 1387 237.5 c 128,-1,33
 1384 205 1384 205 1391 180.5 c 128,-1,34
 1398 156 1398 156 1418 141.5 c 128,-1,35
 1438 127 1438 127 1476 127 c 257,36,37
 1512 127 1512 127 1535.5 140 c 128,-1,38
 1559 153 1559 153 1573.5 175 c 128,-1,39
 1588 197 1588 197 1595.5 226.5 c 128,-1,40
 1603 256 1603 256 1609 288 c 257,41,-1
 1628 393 l 257,20,21
272 0 m 257,42,-1
 86 0 l 257,43,-1
 1027 1500 l 257,44,-1
 1213 1500 l 257,45,-1
 272 0 l 257,42,-1
327 800 m 257,46,47
NamedP: "av01"
 257 800 257 800 212.5 827.5 c 128,-1,48
 168 855 168 855 145.5 903.5 c 128,-1,49
 123 952 123 952 120.5 1018.5 c 128,-1,50
 118 1085 118 1085 132 1162 c 257,51,52
 145 1238 145 1238 170 1303.5 c 128,-1,53
 195 1369 195 1369 234 1416 c 128,-1,54
 273 1463 273 1463 327 1490 c 128,-1,55
 381 1517 381 1517 454 1517 c 257,56,57
NamedP: "at01"
 524 1517 524 1517 568 1490 c 128,-1,58
 612 1463 612 1463 634.5 1416 c 128,-1,59
 657 1369 657 1369 659.5 1303.5 c 128,-1,60
 662 1238 662 1238 649 1162 c 257,61,62
 635 1085 635 1085 610 1018.5 c 128,-1,63
 585 952 585 952 546 903.5 c 128,-1,64
 507 855 507 855 453 827.5 c 128,-1,65
 399 800 399 800 327 800 c 257,46,47
NamedP: "av01"
509 1210 m 257,66,67
 515 1245 515 1245 517.5 1277 c 128,-1,68
 520 1309 520 1309 513.5 1333 c 128,-1,69
 507 1357 507 1357 487.5 1371.5 c 128,-1,70
 468 1386 468 1386 430 1386 c 257,71,72
 393 1386 393 1386 369.5 1373 c 128,-1,73
 346 1360 346 1360 331.5 1338 c 128,-1,74
 317 1316 317 1316 309 1286.5 c 128,-1,75
 301 1257 301 1257 295 1224 c 257,76,-1
 277 1123 l 257,77,78
 271 1087 271 1087 268 1054.5 c 128,-1,79
 265 1022 265 1022 272 997.5 c 128,-1,80
 279 973 279 973 299 958.5 c 128,-1,81
 319 944 319 944 357 944 c 257,82,83
 393 944 393 944 416.5 957 c 128,-1,84
 440 970 440 970 454.5 992 c 128,-1,85
 469 1014 469 1014 476.5 1043.5 c 128,-1,86
 484 1073 484 1073 490 1105 c 257,87,-1
 509 1210 l 257,66,67
846 -17 m 257,88,89
NamedP: "ab01"
 776 -17 776 -17 731.5 10.5 c 128,-1,90
 687 38 687 38 664.5 86.5 c 128,-1,91
 642 135 642 135 639.5 201.5 c 128,-1,92
 637 268 637 268 651 345 c 257,93,94
 664 421 664 421 689 486.5 c 128,-1,95
 714 552 714 552 753 599 c 128,-1,96
 792 646 792 646 846 673 c 128,-1,97
 900 700 900 700 973 700 c 257,98,99
NamedP: "av02"
 1043 700 1043 700 1087 673 c 128,-1,100
 1131 646 1131 646 1153.5 599 c 128,-1,101
 1176 552 1176 552 1178.5 486.5 c 128,-1,102
 1181 421 1181 421 1168 345 c 257,103,104
 1154 268 1154 268 1129 201.5 c 128,-1,105
 1104 135 1104 135 1065 86.5 c 128,-1,106
 1026 38 1026 38 972 10.5 c 128,-1,107
 918 -17 918 -17 846 -17 c 257,88,89
NamedP: "ab01"
1028 393 m 257,108,109
 1034 428 1034 428 1036.5 460 c 128,-1,110
 1039 492 1039 492 1032.5 516 c 128,-1,111
 1026 540 1026 540 1006.5 554.5 c 128,-1,112
 987 569 987 569 949 569 c 257,113,114
 912 569 912 569 888.5 556 c 128,-1,115
 865 543 865 543 850.5 521 c 128,-1,116
 836 499 836 499 828 469.5 c 128,-1,117
 820 440 820 440 814 407 c 257,118,-1
 796 306 l 257,119,120
 790 270 790 270 787 237.5 c 128,-1,121
 784 205 784 205 791 180.5 c 128,-1,122
 798 156 798 156 818 141.5 c 128,-1,123
 838 127 838 127 876 127 c 257,124,125
 912 127 912 127 935.5 140 c 128,-1,126
 959 153 959 153 973.5 175 c 128,-1,127
 988 197 988 197 995.5 226.5 c 128,-1,128
 1003 256 1003 256 1009 288 c 257,129,-1
 1028 393 l 257,108,109
EndSplineSet
PickledDataWithLists: "(dp0
Vcom.fontlab.ttprogram
p1
(c_codecs
encode
p2
(Vdata
p3
Vlatin1
p4
tp5
Rp6
g2
(V<data>\\u000a        <ttProgram>\\u000a          <ttc align=\"round\" code=\"alignv\" point=\"av01\"/>\\u000a          <ttc align=\"round\" code=\"alignv\" point=\"av02\"/>\\u000a          <ttc align=\"round\" code=\"alignv\" point=\"av03\"/>\\u000a          <ttc code=\"alignt\" point=\"at01\" zone=\"t: 1\"/>\\u000a          <ttc code=\"alignb\" point=\"ab01\" zone=\"b: 0\"/>\\u000a          <ttc code=\"alignb\" point=\"ab02\" zone=\"b: 0\"/>\\u000a        </ttProgram>\\u000a      </data>
p7
g4
tp8
Rp9
Ntp10
s."
EndChar
StartChar: asterism
Encoding: 126 8258 126
GlifName: asterism
Width: 1300
VWidth: 0
Flags: W
LayerCount: 2
Fore
SplineSet
653 1097 m 257,0,-1
 706 1001 l 257,1,-1
 648 956 l 257,2,-1
 592 1059 l 257,3,-1
 586 1095 l 257,4,-1
 568 1059 l 257,5,-1
 481 963 l 257,6,-1
 429 996 l 257,7,-1
 521 1098 l 257,8,-1
 557 1120 l 257,9,-1
 517 1122 l 257,10,-1
 412 1159 l 257,11,-1
 437 1224 l 257,12,-1
 549 1186 l 257,13,-1
 578 1160 l 257,14,-1
 574 1201 l 257,15,-1
 595 1318 l 257,16,-1
 662 1325 l 257,17,-1
 640 1199 l 257,18,-1
 620 1159 l 257,19,-1
 657 1184 l 257,20,-1
 776 1220 l 257,21,-1
 793 1159 l 257,22,-1
 665 1120 l 257,23,-1
 625 1118 l 257,24,-1
 653 1097 l 257,0,-1
953 497 m 257,25,-1
 1006 401 l 257,26,-1
 948 356 l 257,27,-1
 892 459 l 257,28,-1
 886 495 l 257,29,-1
 868 459 l 257,30,-1
 781 363 l 257,31,-1
 729 396 l 257,32,-1
 821 498 l 257,33,-1
 857 520 l 257,34,-1
 817 522 l 257,35,-1
 712 559 l 257,36,-1
 737 624 l 257,37,-1
 849 586 l 257,38,-1
 878 560 l 257,39,-1
 874 601 l 257,40,-1
 895 718 l 257,41,-1
 962 725 l 257,42,-1
 940 599 l 257,43,-1
 920 559 l 257,44,-1
 957 584 l 257,45,-1
 1076 620 l 257,46,-1
 1093 559 l 257,47,-1
 965 520 l 257,48,-1
 925 518 l 257,49,-1
 953 497 l 257,25,-1
353 497 m 257,50,-1
 406 401 l 257,51,-1
 348 356 l 257,52,-1
 292 459 l 257,53,-1
 286 495 l 257,54,-1
 268 459 l 257,55,-1
 181 363 l 257,56,-1
 129 396 l 257,57,-1
 221 498 l 257,58,-1
 257 520 l 257,59,-1
 217 522 l 257,60,-1
 112 559 l 257,61,-1
 137 624 l 257,62,-1
 249 586 l 257,63,-1
 278 560 l 257,64,-1
 274 601 l 257,65,-1
 295 718 l 257,66,-1
 362 725 l 257,67,-1
 340 599 l 257,68,-1
 320 559 l 257,69,-1
 357 584 l 257,70,-1
 476 620 l 257,71,-1
 493 559 l 257,72,-1
 365 520 l 257,73,-1
 325 518 l 257,74,-1
 353 497 l 257,50,-1
EndSplineSet
EndChar
StartChar: twoasterisksvertical
Encoding: 535 8273 535
GlifName: twoasterisksvertical
Width: 1300
VWidth: 0
Flags: W
LayerCount: 2
Fore
SplineSet
653 1097 m 257,0,-1
 706 1001 l 257,1,-1
 648 956 l 257,2,-1
 592 1059 l 257,3,-1
 586 1095 l 257,4,-1
 568 1059 l 257,5,-1
 481 963 l 257,6,-1
 429 996 l 257,7,-1
 521 1098 l 257,8,-1
 557 1120 l 257,9,-1
 517 1122 l 257,10,-1
 412 1159 l 257,11,-1
 437 1224 l 257,12,-1
 549 1186 l 257,13,-1
 578 1160 l 257,14,-1
 574 1201 l 257,15,-1
 595 1318 l 257,16,-1
 662 1325 l 257,17,-1
 640 1199 l 257,18,-1
 620 1159 l 257,19,-1
 657 1184 l 257,20,-1
 776 1220 l 257,21,-1
 793 1159 l 257,22,-1
 665 1120 l 257,23,-1
 625 1118 l 257,24,-1
 653 1097 l 257,0,-1
653 497 m 257,25,-1
 706 401 l 257,26,-1
 648 356 l 257,27,-1
 592 459 l 257,28,-1
 586 495 l 257,29,-1
 568 459 l 257,30,-1
 481 363 l 257,31,-1
 429 396 l 257,32,-1
 521 498 l 257,33,-1
 557 520 l 257,34,-1
 517 522 l 257,35,-1
 412 559 l 257,36,-1
 437 624 l 257,37,-1
 549 586 l 257,38,-1
 578 560 l 257,39,-1
 574 601 l 257,40,-1
 595 718 l 257,41,-1
 662 725 l 257,42,-1
 640 599 l 257,43,-1
 620 559 l 257,44,-1
 657 584 l 257,45,-1
 776 620 l 257,46,-1
 793 559 l 257,47,-1
 665 520 l 257,48,-1
 625 518 l 257,49,-1
 653 497 l 257,25,-1
EndSplineSet
EndChar
StartChar: zerosuperior
Encoding: 586 8304 586
GlifName: zerosuperior
Width: 1300
VWidth: 0
Flags: W
LayerCount: 2
Fore
SplineSet
344 711 m 257,0,1
 302 716 302 716 271 734.5 c 128,-1,2
 240 753 240 753 218 781 c 128,-1,3
 196 809 196 809 183 845 c 128,-1,4
 170 881 170 881 163.5 921.5 c 128,-1,5
 157 962 157 962 157 1006.5 c 128,-1,6
 157 1051 157 1051 161 1095 c 257,7,8
 165 1140 165 1140 177.5 1187.5 c 128,-1,9
 190 1235 190 1235 210 1279 c 128,-1,10
 230 1323 230 1323 257.5 1361.5 c 128,-1,11
 285 1400 285 1400 319 1427.5 c 128,-1,12
 353 1455 353 1455 393 1469 c 128,-1,13
 433 1483 433 1483 479 1478 c 257,14,15
 521 1474 521 1474 552 1456 c 128,-1,16
 583 1438 583 1438 605 1410 c 128,-1,17
 627 1382 627 1382 640.5 1345.5 c 128,-1,18
 654 1309 654 1309 661 1268 c 128,-1,19
 668 1227 668 1227 668 1182.5 c 128,-1,20
 668 1138 668 1138 663 1095 c 257,21,22
 657 1049 657 1049 644 1001.5 c 128,-1,23
 631 954 631 954 610 909.5 c 128,-1,24
 589 865 589 865 561.5 826.5 c 128,-1,25
 534 788 534 788 500.5 760.5 c 128,-1,26
 467 733 467 733 427.5 719.5 c 128,-1,27
 388 706 388 706 344 711 c 257,0,1
264 1116 m 257,28,29
 260 1087 260 1087 256.5 1053.5 c 128,-1,30
 253 1020 253 1020 252.5 985.5 c 128,-1,31
 252 951 252 951 256.5 919 c 128,-1,32
 261 887 261 887 273.5 861.5 c 128,-1,33
 286 836 286 836 307.5 819 c 128,-1,34
 329 802 329 802 363 799 c 257,35,36
 392 796 392 796 417.5 806.5 c 128,-1,37
 443 817 443 817 464 837 c 128,-1,38
 485 857 485 857 501.5 884.5 c 128,-1,39
 518 912 518 912 530 943.5 c 128,-1,40
 542 975 542 975 549.5 1008.5 c 128,-1,41
 557 1042 557 1042 559 1073 c 257,42,43
 561 1102 561 1102 564 1136 c 128,-1,44
 567 1170 567 1170 567 1204.5 c 128,-1,45
 567 1239 567 1239 562.5 1271 c 128,-1,46
 558 1303 558 1303 546.5 1328.5 c 128,-1,47
 535 1354 535 1354 514 1370.5 c 128,-1,48
 493 1387 493 1387 460 1390 c 257,49,50
 429 1393 429 1393 404 1383 c 128,-1,51
 379 1373 379 1373 359 1353 c 128,-1,52
 339 1333 339 1333 323 1305 c 128,-1,53
 307 1277 307 1277 295.5 1245.5 c 128,-1,54
 284 1214 284 1214 276 1181 c 128,-1,55
 268 1148 268 1148 264 1116 c 257,28,29
EndSplineSet
EndChar
StartChar: superscriptsmalli
Encoding: 511 8305 511
GlifName: superscriptsmalli
Width: 1300
VWidth: 0
Flags: W
LayerCount: 2
Fore
SplineSet
415 1470 m 257,0,-1
 516 1470 l 257,1,-1
 498 1370 l 257,2,-1
 397 1370 l 257,3,-1
 415 1470 l 257,0,-1
387 1210 m 257,4,-1
 327 1190 l 257,5,-1
 212 1190 l 257,6,-1
 225 1270 l 257,7,-1
 478 1270 l 257,8,9
 465 1200 465 1200 456 1149.5 c 128,-1,10
 447 1099 447 1099 441 1063.5 c 128,-1,11
 435 1028 435 1028 431 1006 c 128,-1,12
 427 984 427 984 425 971 c 128,-1,13
 423 958 423 958 422 952 c 128,-1,14
 421 946 421 946 420.5 944 c 128,-1,15
 420 942 420 942 419.5 940.5 c 128,-1,16
 419 939 419 939 419 935 c 257,17,18
 418 928 418 928 416 916.5 c 128,-1,19
 414 905 414 905 412.5 893 c 128,-1,20
 411 881 411 881 409.5 870.5 c 128,-1,21
 408 860 408 860 408 854 c 257,22,23
 408 816 408 816 429.5 801 c 128,-1,24
 451 786 451 786 490 786 c 257,25,26
 503 786 503 786 519.5 792 c 128,-1,27
 536 798 536 798 552 806.5 c 128,-1,28
 568 815 568 815 581.5 824 c 128,-1,29
 595 833 595 833 603 840 c 257,30,-1
 627 780 l 257,31,32
 622 776 622 776 607.5 764.5 c 128,-1,33
 593 753 593 753 572 741.5 c 128,-1,34
 551 730 551 730 525 720.5 c 128,-1,35
 499 711 499 711 471 711 c 257,36,37
 437 711 437 711 408 721 c 128,-1,38
 379 731 379 731 358 748 c 128,-1,39
 337 765 337 765 325 789 c 128,-1,40
 313 813 313 813 313 842 c 257,41,42
 313 851 313 851 314 864 c 128,-1,43
 315 877 315 877 316.5 891 c 128,-1,44
 318 905 318 905 320 919 c 128,-1,45
 322 933 322 933 324 943 c 257,46,-1
 366 1179 l 257,47,-1
 387 1210 l 257,4,-1
EndSplineSet
EndChar
StartChar: superscriptfour
Encoding: 503 8308 503
GlifName: superscriptfour
Width: 1300
VWidth: 0
Flags: W
LayerCount: 2
Fore
SplineSet
653 870 m 257,0,-1
 563 870 l 257,1,-1
 537 720 l 257,2,-1
 437 720 l 257,3,-1
 463 870 l 257,4,-1
 166 870 l 257,5,-1
 181 955 l 257,6,-1
 516 1480 l 257,7,-1
 608 1470 l 257,8,-1
 321 1020 l 257,9,-1
 263 950 l 257,10,-1
 478 950 l 257,11,-1
 513 1153 l 257,12,-1
 612 1145 l 257,13,-1
 578 950 l 257,14,-1
 675 950 l 257,15,-1
 653 870 l 257,0,-1
EndSplineSet
EndChar
StartChar: superscriptfive
Encoding: 502 8309 502
GlifName: superscriptfive
Width: 1300
VWidth: 0
Flags: W
LayerCount: 2
Fore
SplineSet
328 1211 m 257,0,1
 332 1213 332 1213 341 1217.5 c 128,-1,2
 350 1222 350 1222 362 1226.5 c 128,-1,3
 374 1231 374 1231 387.5 1234 c 128,-1,4
 401 1237 401 1237 415 1237 c 257,5,6
 466 1237 466 1237 503.5 1222.5 c 128,-1,7
 541 1208 541 1208 565 1182.5 c 128,-1,8
 589 1157 589 1157 600.5 1122.5 c 128,-1,9
 612 1088 612 1088 612 1047 c 257,10,11
 612 989 612 989 593 942.5 c 128,-1,12
 574 896 574 896 541.5 859.5 c 128,-1,13
 509 823 509 823 464 796.5 c 128,-1,14
 419 770 419 770 367 753 c 128,-1,15
 315 736 315 736 257.5 728 c 128,-1,16
 200 720 200 720 142 720 c 257,17,-1
 156 800 l 257,18,19
 204 800 204 800 249 807.5 c 128,-1,20
 294 815 294 815 333.5 829 c 128,-1,21
 373 843 373 843 406 863 c 128,-1,22
 439 883 439 883 462.5 908.5 c 128,-1,23
 486 934 486 934 499 964.5 c 128,-1,24
 512 995 512 995 512 1029 c 257,25,26
 512 1054 512 1054 503.5 1076 c 128,-1,27
 495 1098 495 1098 479 1115 c 128,-1,28
 463 1132 463 1132 440.5 1142.5 c 128,-1,29
 418 1153 418 1153 391 1153 c 257,30,31
 350 1153 350 1153 321.5 1144.5 c 128,-1,32
 293 1136 293 1136 270 1120 c 257,33,-1
 213 1120 l 257,34,-1
 274 1470 l 257,35,-1
 646 1470 l 257,36,-1
 632 1390 l 257,37,-1
 359 1390 l 257,38,-1
 328 1211 l 257,0,1
EndSplineSet
EndChar
